<svg xmlns="http://www.w3.org/2000/svg" xmlns:xlink="http://www.w3.org/1999/xlink" viewBox="0 0 40 40"><defs><style>.cls-1{isolation:isolate;}.cls-2{fill:#f3f3ff;}.cls-3{opacity:0.4;mix-blend-mode:multiply;}.cls-4{fill:#fff;}.cls-5{font-size:12px;fill:#666;font-family:NotoSansCJKkr-Regular-KSCpc-EUC-H, Noto Sans CJK KR;}.cls-42,.cls-5{letter-spacing:-0.03em;}.cls-6{letter-spacing:-0.03em;}.cls-7{letter-spacing:-0.05em;}.cls-8{letter-spacing:-0.02em;}.cls-9{letter-spacing:-0.03em;}.cls-10{letter-spacing:-0.05em;}.cls-11{letter-spacing:-0.06em;}.cls-12{letter-spacing:-0.04em;}.cls-13{letter-spacing:-0.02em;}.cls-14{letter-spacing:-0.03em;}.cls-15{letter-spacing:-0.05em;}.cls-16{letter-spacing:-0.04em;}.cls-17{letter-spacing:-0.07em;}.cls-18{letter-spacing:-0.04em;}.cls-19{letter-spacing:-0.02em;}.cls-20{letter-spacing:-0.05em;}.cls-21{letter-spacing:-0.02em;}.cls-22{letter-spacing:-0.07em;}.cls-23{letter-spacing:-0.06em;}.cls-24{letter-spacing:-0.04em;}.cls-25{letter-spacing:-0.06em;}.cls-26{letter-spacing:-0.08em;}.cls-27{letter-spacing:-0.06em;}.cls-28{letter-spacing:-0.03em;}.cls-29{letter-spacing:-0.06em;}.cls-30{letter-spacing:-0.06em;}.cls-31{letter-spacing:-0.06em;}.cls-32{letter-spacing:-0.05em;}.cls-33{letter-spacing:-0.06em;}.cls-34{letter-spacing:-0.02em;}.cls-35{letter-spacing:-0.06em;}.cls-36{letter-spacing:-0.05em;}.cls-37{letter-spacing:-0.06em;}.cls-38{letter-spacing:-0.08em;}.cls-39{letter-spacing:-0.06em;}.cls-40{letter-spacing:-0.07em;}.cls-41{letter-spacing:-0.06em;}.cls-43{letter-spacing:-0.03em;}.cls-44{letter-spacing:-0.04em;}.cls-45{letter-spacing:-0.03em;}.cls-46{letter-spacing:-0.04em;}.cls-47{letter-spacing:-0.06em;}.cls-48{letter-spacing:-0.03em;}.cls-49{letter-spacing:-0.07em;}.cls-50{letter-spacing:-0.08em;}.cls-51{letter-spacing:-0.06em;}.cls-52{letter-spacing:-0.07em;}.cls-53{letter-spacing:-0.04em;}.cls-54{letter-spacing:-0.01em;}.cls-55{letter-spacing:-0.02em;}.cls-56{letter-spacing:-0.06em;}.cls-57{letter-spacing:-0.06em;}.cls-58{letter-spacing:-0.05em;}.cls-59{letter-spacing:-0.08em;}.cls-60{letter-spacing:-0.03em;}.cls-61{letter-spacing:-0.05em;}.cls-62{letter-spacing:-0.02em;}.cls-63{letter-spacing:-0.07em;}.cls-64{letter-spacing:-0.07em;}.cls-65{letter-spacing:-0.07em;}.cls-66{letter-spacing:-0.01em;}.cls-67{letter-spacing:-0.05em;}.cls-68{letter-spacing:-0.05em;}.cls-69{letter-spacing:-0.05em;}.cls-70{letter-spacing:-0.05em;}.cls-71{letter-spacing:-0.06em;}.cls-72{letter-spacing:-0.04em;}.cls-73{letter-spacing:-0.03em;}.cls-74{letter-spacing:-0.04em;}.cls-75{letter-spacing:-0.06em;}.cls-76{letter-spacing:-0.03em;}.cls-77{letter-spacing:-0.03em;}.cls-78{letter-spacing:-0.07em;}.cls-79{letter-spacing:-0.06em;}.cls-80{letter-spacing:-0.04em;}.cls-81{letter-spacing:-0.05em;}.cls-82{letter-spacing:-0.05em;}.cls-83{letter-spacing:-0.02em;}.cls-84{letter-spacing:-0.08em;}.cls-85{letter-spacing:-0.04em;}.cls-86{letter-spacing:-0.04em;}.cls-87{letter-spacing:-0.01em;}.cls-88{letter-spacing:-0.01em;}.cls-89{letter-spacing:-0.06em;}.cls-90{letter-spacing:-0.07em;}.cls-91{letter-spacing:-0.04em;}.cls-92{letter-spacing:-0.05em;}.cls-93{letter-spacing:-0.04em;}.cls-94{letter-spacing:-0.02em;}.cls-95{letter-spacing:-0.01em;}.cls-96{letter-spacing:-0.02em;}.cls-97{letter-spacing:-0.06em;}.cls-98{letter-spacing:-0.04em;}.cls-99{letter-spacing:-0.05em;}.cls-100{letter-spacing:-0.02em;}.cls-101{letter-spacing:-0.05em;}.cls-102{letter-spacing:-0.09em;}.cls-103{letter-spacing:-0.02em;}.cls-104{letter-spacing:-0.05em;}.cls-105{letter-spacing:-0.05em;}.cls-106{letter-spacing:-0.03em;}.cls-107{letter-spacing:-0.01em;}.cls-108{letter-spacing:-0.03em;}.cls-109{letter-spacing:-0.04em;}.cls-110{letter-spacing:-0.02em;}.cls-111{letter-spacing:-0.05em;}.cls-112{letter-spacing:-0.05em;}.cls-113{letter-spacing:-0.07em;}.cls-114{letter-spacing:-0.03em;}.cls-115{letter-spacing:-0.06em;}.cls-116{letter-spacing:-0.01em;}.cls-117{letter-spacing:-0.06em;}.cls-118{letter-spacing:-0.01em;}.cls-119{letter-spacing:-0.07em;}.cls-120{letter-spacing:-0.04em;}.cls-121{letter-spacing:-0.03em;}.cls-122{letter-spacing:-0.07em;}.cls-123{fill:#ffa300;}.cls-124{fill:none;stroke:#fff;stroke-linecap:round;stroke-linejoin:round;stroke-width:2px;}</style></defs><title>btn_more</title><g class="cls-1"><g id="레이어_1" data-name="레이어 1"><rect class="cls-2" x="-699.41" y="-516.36" width="1920" height="654.96"/></g><g id="레이어_2" data-name="레이어 2"><image class="cls-3" width="401" height="489" transform="translate(-325.23 -408.09)"/><rect class="cls-4" x="-309.41" y="-397.98" width="370" height="457.98" rx="3" ry="3"/><text class="cls-5" transform="translate(-288.55 -184.98)">R<tspan class="cls-6" x="7.26" y="0">i</tspan><tspan class="cls-7" x="10.22" y="0">x</tspan><tspan class="cls-8" x="15.55" y="0">는 </tspan><tspan class="cls-9" x="28.68" y="0">I</tspan><tspan class="cls-10" x="31.79" y="0">C</tspan><tspan class="cls-8" x="38.84" y="0">O </tspan><tspan class="cls-11" x="49.84" y="0">직</tspan><tspan class="cls-8" x="60.17" y="0">후 </tspan><tspan class="cls-12" x="73.97" y="0">암</tspan><tspan class="cls-13" x="84.58" y="0">호</tspan><tspan class="cls-14" x="95.4" y="0">화 </tspan><tspan class="cls-15" x="109.2" y="0">화</tspan><tspan class="cls-16" x="119.61" y="0">폐</tspan><tspan class="cls-14" x="130.13" y="0">를 </tspan><tspan class="cls-17" x="143.93" y="0">고</tspan><tspan class="cls-18" x="154.09" y="0">유</tspan><tspan class="cls-19" x="164.6" y="0">자</tspan><tspan class="cls-20" x="175.42" y="0">산</tspan><tspan class="cls-21" x="185.85" y="0">으</tspan><tspan class="cls-8" x="196.67" y="0">로 </tspan><tspan class="cls-22" x="210.47" y="0">편</tspan><tspan class="cls-23" x="220.7" y="0">입</tspan><tspan class="cls-24" x="231.02" y="0">합</tspan><tspan class="cls-25" x="241.59" y="0">니</tspan><tspan class="cls-26" x="251.97" y="0">다</tspan><tspan class="cls-14" x="262.06" y="0">. 이 </tspan><tspan class="cls-19" x="281.29" y="0">자</tspan><tspan class="cls-27" x="292.1" y="0">산</tspan><tspan class="cls-8" x="302.41" y="0">은 </tspan><tspan class="cls-19" x="315.54" y="0">A</tspan><tspan class="cls-8" x="322.6" y="0">I </tspan><tspan class="cls-28"><tspan x="0" y="20">투</tspan><tspan class="cls-8" x="10.68" y="20">자 </tspan><tspan class="cls-29" x="24.48" y="20">머</tspan><tspan class="cls-30" x="34.78" y="20">신</tspan><tspan class="cls-8" x="45.06" y="20">에 </tspan><tspan class="cls-31" x="58.86" y="20">의</tspan><tspan class="cls-32" x="69.17" y="20">해</tspan><tspan class="cls-8" x="79.66" y="20">서 </tspan><tspan class="cls-33" x="93.46" y="20">지</tspan><tspan class="cls-34" x="103.78" y="20">속</tspan><tspan class="cls-35" x="114.58" y="20">적</tspan><tspan class="cls-19" x="124.94" y="20">으</tspan><tspan class="cls-8" x="135.75" y="20">로 </tspan><tspan x="149.55" y="20">투</tspan><tspan class="cls-8" x="160.24" y="20">자 </tspan><tspan class="cls-36" x="174.04" y="20">수</tspan><tspan class="cls-37" x="184.42" y="20">익</tspan><tspan class="cls-8" x="194.76" y="20">을 </tspan><tspan class="cls-38" x="208.56" y="20">발</tspan><tspan class="cls-39" x="218.66" y="20">생</tspan><tspan class="cls-40" x="229.03" y="20">시</tspan><tspan class="cls-41" x="239.24" y="20">킵</tspan><tspan class="cls-25" x="249.52" y="20">니</tspan><tspan class="cls-26" x="259.89" y="20">다</tspan><tspan class="cls-14" x="269.99" y="20">. </tspan><tspan class="cls-42" x="275.41" y="20">R</tspan><tspan class="cls-6" x="282.67" y="20">i</tspan><tspan class="cls-7" x="285.63" y="20">x</tspan><tspan class="cls-8" x="290.96" y="20">는 </tspan><tspan class="cls-43" x="304.09" y="20">R</tspan><tspan class="cls-44" x="311.34" y="20">N</tspan><tspan class="cls-14" x="319.55" y="20">N </tspan></tspan><tspan class="cls-8"><tspan x="0" y="40">및 </tspan><tspan class="cls-45" x="13.13" y="40">C</tspan><tspan class="cls-44" x="20.36" y="40">N</tspan><tspan class="cls-46" x="28.57" y="40">N</tspan><tspan x="36.8" y="40">에 </tspan><tspan class="cls-47" x="50.6" y="40">의</tspan><tspan class="cls-14" x="60.89" y="40">한 </tspan><tspan class="cls-48" x="74.02" y="40">4</tspan><tspan class="cls-49" x="80.29" y="40">중</tspan><tspan x="90.5" y="40">의 </tspan><tspan class="cls-33" x="104.3" y="40">인</tspan><tspan class="cls-50" x="114.63" y="40">공</tspan><tspan class="cls-23" x="124.76" y="40">지</tspan><tspan x="135.08" y="40">능 </tspan><tspan class="cls-51" x="148.88" y="40">레</tspan><tspan class="cls-52" x="159.18" y="40">이</tspan><tspan class="cls-35" x="169.41" y="40">어</tspan><tspan x="179.77" y="40">를 </tspan><tspan class="cls-53" x="193.57" y="40">통</tspan><tspan class="cls-14" x="204.18" y="40">해 </tspan><tspan class="cls-27" x="217.98" y="40">통</tspan><tspan x="228.29" y="40">제 </tspan><tspan class="cls-40" x="242.09" y="40">되</tspan><tspan x="252.3" y="40">어 </tspan><tspan class="cls-28" x="266.1" y="40">투</tspan><tspan class="cls-54" x="276.79" y="40">자</tspan><tspan class="cls-55" x="287.69" y="40">종</tspan><tspan class="cls-56" x="298.49" y="40">목</tspan><tspan class="cls-14" x="308.8" y="40">과 </tspan></tspan><tspan class="cls-57"><tspan x="0" y="60">거</tspan><tspan class="cls-58" x="10.33" y="60">래</tspan><tspan class="cls-14" x="20.83" y="60">소 </tspan><tspan class="cls-33" x="34.63" y="60">비</tspan><tspan class="cls-59" x="44.96" y="60">중</tspan><tspan class="cls-14" x="55.02" y="60">, </tspan><tspan class="cls-60" x="60.44" y="60">금</tspan><tspan class="cls-61" x="71.08" y="60">액</tspan><tspan class="cls-8" x="81.57" y="60">, </tspan><tspan class="cls-62" x="86.99" y="60">타</tspan><tspan class="cls-63" x="97.75" y="60">이</tspan><tspan class="cls-8" x="107.92" y="60">밍 등 </tspan><tspan class="cls-64" x="135.52" y="60">모</tspan><tspan class="cls-14" x="145.73" y="60">든 </tspan><tspan class="cls-65" x="159.53" y="60">것</tspan><tspan class="cls-8" x="169.69" y="60">이 </tspan><tspan class="cls-66" x="183.49" y="60">자</tspan><tspan class="cls-67" x="194.44" y="60">동</tspan><tspan class="cls-14" x="204.85" y="60">화 </tspan><tspan class="cls-40" x="218.65" y="60">되</tspan><tspan class="cls-14" x="228.86" y="60">어 </tspan><tspan class="cls-68" x="242.66" y="60">있</tspan><tspan class="cls-69" x="253.1" y="60">으</tspan><tspan class="cls-70" x="263.54" y="60">며</tspan><tspan class="cls-8" x="273.92" y="60">, </tspan><tspan class="cls-16" x="279.35" y="60">독</tspan><tspan class="cls-71" x="289.87" y="60">립</tspan><tspan class="cls-8" x="300.19" y="60">적 </tspan></tspan><tspan class="cls-72"><tspan x="0" y="80">채</tspan><tspan class="cls-73" x="10.54" y="80">산</tspan><tspan class="cls-74" x="21.19" y="80">단</tspan><tspan class="cls-75" x="31.7" y="80">위</tspan><tspan class="cls-14" x="42.04" y="80">를 </tspan><tspan class="cls-76" x="55.84" y="80">가</tspan><tspan class="cls-14" x="66.49" y="80">진 </tspan><tspan class="cls-57" x="80.29" y="80">수</tspan><tspan class="cls-77" x="90.62" y="80">많</tspan><tspan class="cls-8" x="101.26" y="80">은 </tspan><tspan class="cls-28" x="115.06" y="80">투</tspan><tspan class="cls-39" x="125.74" y="80">자</tspan><tspan class="cls-40" x="136.11" y="80">모</tspan><tspan class="cls-34" x="146.33" y="80">듈</tspan><tspan class="cls-78" x="157.12" y="80">들</tspan><tspan class="cls-8" x="167.31" y="80">로 </tspan><tspan class="cls-79" x="181.11" y="80">이</tspan><tspan class="cls-80" x="191.45" y="80">루</tspan><tspan class="cls-81" x="202.03" y="80">어</tspan><tspan class="cls-8" x="212.43" y="80">져 </tspan><tspan class="cls-37" x="226.23" y="80">있</tspan><tspan class="cls-82" x="236.58" y="80">습</tspan><tspan class="cls-25" x="247.03" y="80">니</tspan><tspan class="cls-26" x="257.41" y="80">다</tspan><tspan class="cls-14" x="267.5" y="80">.</tspan></tspan><tspan x="0" y="100">R</tspan><tspan class="cls-6" x="7.26" y="100">i</tspan><tspan class="cls-7" x="10.22" y="100">x</tspan><tspan class="cls-8" x="15.55" y="100">는 </tspan><tspan class="cls-79" x="29.35" y="100">비</tspan><tspan class="cls-83" x="39.68" y="100">트</tspan><tspan class="cls-84" x="50.49" y="100">코</tspan><tspan class="cls-29" x="60.57" y="100">인</tspan><tspan class="cls-8" x="70.87" y="100">의 </tspan><tspan class="cls-37" x="84.67" y="100">연</tspan><tspan class="cls-8" x="95.01" y="100">간 </tspan><tspan class="cls-36" x="108.81" y="100">수</tspan><tspan class="cls-37" x="119.2" y="100">익</tspan><tspan class="cls-85" x="129.54" y="100">률</tspan><tspan class="cls-14" x="140.04" y="100">인 </tspan><tspan class="cls-13" x="153.17" y="100">7</tspan><tspan class="cls-86" x="159.6" y="100">2</tspan><tspan class="cls-87" x="165.8" y="100">0</tspan><tspan class="cls-88" x="172.28" y="100">%</tspan><tspan class="cls-14" x="183.25" y="100">와 </tspan><tspan class="cls-30" x="197.05" y="100">전</tspan><tspan class="cls-35" x="207.32" y="100">업</tspan><tspan class="cls-89" x="217.68" y="100">개</tspan><tspan class="cls-37" x="228.04" y="100">인</tspan><tspan class="cls-28" x="238.39" y="100">투</tspan><tspan class="cls-90" x="249.07" y="100">자</tspan><tspan class="cls-91" x="259.22" y="100">자</tspan><tspan class="cls-8" x="269.8" y="100">의 </tspan><tspan class="cls-29" x="283.6" y="100">최</tspan><tspan class="cls-14" x="293.9" y="100">고 </tspan><tspan class="cls-92"><tspan x="0" y="120">수</tspan><tspan class="cls-37" x="10.38" y="120">익</tspan><tspan class="cls-93" x="20.73" y="120">률</tspan><tspan class="cls-8" x="31.23" y="120">인 연 </tspan><tspan class="cls-94" x="58.16" y="120">6</tspan><tspan class="cls-95" x="64.62" y="120">00</tspan><tspan class="cls-87" x="77.76" y="120">0</tspan><tspan class="cls-8" x="84.24" y="120">% </tspan><tspan class="cls-62" x="97.38" y="120">사</tspan><tspan class="cls-47" x="108.14" y="120">이</tspan><tspan class="cls-14" x="118.43" y="120">의 </tspan><tspan x="132.23" y="120">수</tspan><tspan class="cls-37" x="142.62" y="120">익</tspan><tspan class="cls-96" x="152.96" y="120">률</tspan><tspan class="cls-8" x="163.77" y="120">을 </tspan><tspan class="cls-97" x="177.57" y="120">목</tspan><tspan class="cls-96" x="187.93" y="120">표</tspan><tspan class="cls-8" x="198.74" y="120">로 </tspan><tspan class="cls-98" x="212.54" y="120">합</tspan><tspan class="cls-25" x="223.11" y="120">니</tspan><tspan class="cls-26" x="233.48" y="120">다</tspan><tspan class="cls-8" x="243.58" y="120">. </tspan></tspan><tspan class="cls-86"><tspan x="0" y="140">0</tspan><tspan class="cls-99" x="6.19" y="140">.</tspan><tspan class="cls-100" x="8.98" y="140">6</tspan><tspan class="cls-101" x="15.39" y="140">7</tspan><tspan class="cls-102" x="21.43" y="140">1</tspan><tspan class="cls-103" x="26.97" y="140">%</tspan><tspan class="cls-14" x="37.81" y="140">로 </tspan><tspan class="cls-104" x="51.61" y="140">현</tspan><tspan class="cls-105" x="62.02" y="140">재</tspan><tspan class="cls-14" x="72.5" y="140">의 </tspan><tspan class="cls-53" x="86.3" y="140">상</tspan><tspan class="cls-14" x="96.91" y="140">한 </tspan><tspan class="cls-77" x="110.71" y="140">하</tspan><tspan class="cls-106" x="121.35" y="140">한</tspan><tspan class="cls-8" x="132.06" y="140">이 </tspan><tspan class="cls-65" x="145.86" y="140">없</tspan><tspan class="cls-14" x="156.02" y="140">이 </tspan><tspan class="cls-89" x="169.15" y="140">2</tspan><tspan class="cls-107" x="175.13" y="140">4</tspan><tspan class="cls-31" x="181.64" y="140">시</tspan><tspan class="cls-14" x="191.95" y="140">간 </tspan><tspan class="cls-57" x="205.75" y="140">거</tspan><tspan class="cls-82" x="216.09" y="140">래</tspan><tspan class="cls-8" x="226.55" y="140">가 </tspan><tspan class="cls-37" x="240.35" y="140">이</tspan><tspan class="cls-97" x="250.69" y="140">뤄</tspan><tspan class="cls-79" x="261.04" y="140">지</tspan><tspan class="cls-8" x="271.38" y="140">는 </tspan><tspan class="cls-108" x="285.18" y="140">우</tspan><tspan class="cls-109" x="295.8" y="140">상</tspan><tspan class="cls-8" x="306.36" y="140">향 </tspan></tspan><tspan class="cls-97"><tspan x="0" y="160">시</tspan><tspan class="cls-110" x="10.35" y="160">장</tspan><tspan class="cls-111" x="21.16" y="160">에</tspan><tspan class="cls-14" x="31.65" y="160">서 </tspan><tspan class="cls-89" x="44.78" y="160">2</tspan><tspan class="cls-107" x="50.76" y="160">4</tspan><tspan class="cls-31" x="57.28" y="160">시</tspan><tspan class="cls-14" x="67.59" y="160">간 </tspan><tspan class="cls-112" x="81.39" y="160">내</tspan><tspan class="cls-14" x="91.87" y="160">내 </tspan><tspan class="cls-113" x="105.67" y="160">자</tspan><tspan class="cls-8" x="115.88" y="160">체 </tspan><tspan class="cls-108" x="129.68" y="160">학</tspan><tspan class="cls-114" x="140.31" y="160">습</tspan><tspan class="cls-14" x="151.04" y="160">에 </tspan><tspan class="cls-115" x="164.84" y="160">의</tspan><tspan class="cls-8" x="175.15" y="160">해 </tspan><tspan class="cls-28" x="188.95" y="160">투</tspan><tspan class="cls-116" x="199.63" y="160">자</tspan><tspan class="cls-8" x="210.59" y="160">를 </tspan><tspan class="cls-117" x="224.39" y="160">수</tspan><tspan class="cls-111" x="234.75" y="160">행</tspan><tspan class="cls-118" x="245.24" y="160">하</tspan><tspan class="cls-8" x="256.15" y="160">는 </tspan><tspan class="cls-21" x="269.28" y="160">A</tspan><tspan class="cls-8" x="276.34" y="160">I</tspan></tspan><tspan class="cls-40"><tspan x="0" y="180">모</tspan><tspan class="cls-119" x="10.21" y="180">듈</tspan><tspan class="cls-120" x="20.4" y="180">로</tspan><tspan class="cls-89" x="30.92" y="180">서</tspan><tspan class="cls-14" x="41.29" y="180">는 </tspan><tspan class="cls-111" x="55.08" y="180">매</tspan><tspan class="cls-8" x="65.58" y="180">우 </tspan><tspan class="cls-64" x="79.38" y="180">보</tspan><tspan class="cls-121" x="89.59" y="180">수</tspan><tspan class="cls-122" x="100.26" y="180">적</tspan><tspan class="cls-14" x="110.48" y="180">인 </tspan><tspan class="cls-92" x="124.28" y="180">수</tspan><tspan class="cls-37" x="134.66" y="180">익</tspan><tspan class="cls-14" x="145.01" y="180">률 </tspan><tspan class="cls-41" x="158.81" y="180">입</tspan><tspan class="cls-25" x="169.08" y="180">니</tspan><tspan class="cls-26" x="179.45" y="180">다</tspan><tspan class="cls-14" x="189.55" y="180">.</tspan></tspan></text><circle class="cls-123" cx="20" cy="20" r="20"/><circle class="cls-124" cx="18.96" cy="18.96" r="7.89"/><line class="cls-124" x1="24.54" y1="24.54" x2="28.93" y2="28.93"/></g></g></svg>