<svg xmlns="http://www.w3.org/2000/svg" xmlns:xlink="http://www.w3.org/1999/xlink" viewBox="0 0 58 38"><defs>
<style>.cls-1{fill:none;}.cls-2{clip-path:url(#clip-path);}.cls-3{fill:#1d1b60;}.cls-4{fill:#e13dae;}</style>
<clipPath id="clip-path"><rect class="cls-1" x="-389.63" y="51.34" width="1920" height="612.01" transform="translate(1140.74 714.69) rotate(180)"/></clipPath>
</defs>
<title>logo</title>
<g id="레이어_1" data-name="레이어 1">
<g class="cls-2">
<image width="1921" height="1176" transform="translate(-390.44 -245)"/></g></g><g id="레이어_2" data-name="레이어 2"><path class="cls-3" d="M56.86,15.07a2.61,2.61,0,0,0-3.68,0L39.73,28.53a4.76,4.76,0,0,1-8.12-3.13c0-.08,0-.16,0-.24V16.91a2.6,2.6,0,0,0-2.6-2.6h0a2.59,2.59,0,0,0-2.6,2.6v8.25a1.93,1.93,0,0,0,0,.24,4.76,4.76,0,0,1-8.12,3.13L14,24.22A10.41,10.41,0,0,0,18,6.77a10.3,10.3,0,0,0-7.68-2.86A10.51,10.51,0,0,0,.37,14.53v18a2.61,2.61,0,0,0,5.21,0v-18a5.38,5.38,0,0,1,4.95-5.42,5.21,5.21,0,1,1,.26,10.41h0a3.67,3.67,0,0,0-2.6,6.27l6.42,6.42a9.83,9.83,0,0,0,7,2.94,10,10,0,0,0,3.88-.78A10.14,10.14,0,0,0,29,31.93a10.26,10.26,0,0,0,7.42,3.22,9.83,9.83,0,0,0,7-2.94L56.86,18.75A2.6,2.6,0,0,0,56.86,15.07Z"/><circle class="cls-4" cx="29.02" cy="6.5" r="3.65"/><path class="cls-4" d="M55,35.14a2.6,2.6,0,0,1-1.84-.76L37.57,18.77a2.6,2.6,0,1,1,3.68-3.68L56.86,30.7a2.6,2.6,0,0,1,0,3.68A2.56,2.56,0,0,1,55,35.14Z"/></g></svg>