<svg xmlns="http://www.w3.org/2000/svg" xmlns:xlink="http://www.w3.org/1999/xlink" viewBox="0 0 40 40"><defs><style>.cls-1{fill:none;}.cls-2{clip-path:url(#clip-path);}.cls-3{fill:#1d1b60;}.cls-4{fill:#fff;}</style><clipPath id="clip-path"><rect class="cls-1" x="-775" y="-810.26" width="1920" height="612.01" transform="translate(370 -1008.51) rotate(180)"/></clipPath></defs><title>painpoint2</title><g id="레이어_1" data-name="레이어 1"><g class="cls-2"><image width="1921" height="1176" transform="translate(-775.82 -1106.6)"/></g></g><g id="레이어_2" data-name="레이어 2"><circle class="cls-3" cx="20" cy="20" r="20"/><path class="cls-4" d="M14.29,26.51c4.48-4.07,7.5-7.33,7.5-9.94A2.24,2.24,0,0,0,19.45,14a4.31,4.31,0,0,0-3,1.74l-2.34-2.32a7.49,7.49,0,0,1,6-2.77c3.47,0,5.88,2.22,5.88,5.64,0,3.09-2.65,6.49-5.4,9.27a25.5,25.5,0,0,1,2.92-.24h3.31V29H14.29Z"/></g></svg>