<svg xmlns="http://www.w3.org/2000/svg" xmlns:xlink="http://www.w3.org/1999/xlink" viewBox="0 0 40 40"><defs><style>.cls-1{fill:none;}.cls-2{clip-path:url(#clip-path);}.cls-3{fill:#1d1b60;}.cls-4{fill:#fff;}</style><clipPath id="clip-path"><rect class="cls-1" x="-1160" y="-810.26" width="1920" height="612.01" transform="translate(-400.01 -1008.51) rotate(180)"/></clipPath></defs><title>painpoint3</title><g id="레이어_1" data-name="레이어 1"><g class="cls-2"><image width="1921" height="1176" transform="translate(-1160.82 -1106.6)"/></g></g><g id="레이어_2" data-name="레이어 2"><circle class="cls-3" cx="20" cy="20" r="20"/><path class="cls-4" d="M13.61,26.8l2-2.7a5.5,5.5,0,0,0,3.74,1.74c1.67,0,2.76-.7,2.76-2.05,0-1.55-.83-2.46-4.59-2.46v-3c3.06,0,4-.94,4-2.36A1.79,1.79,0,0,0,19.47,14a4.79,4.79,0,0,0-3.21,1.5l-2.17-2.63a8.42,8.42,0,0,1,5.57-2.22c3.72,0,6.15,1.73,6.15,4.94a4.11,4.11,0,0,1-2.89,4v.12a4.43,4.43,0,0,1,3.47,4.37c0,3.35-3.06,5.23-6.63,5.23A7.69,7.69,0,0,1,13.61,26.8Z"/></g></svg>