<svg xmlns="http://www.w3.org/2000/svg" viewBox="0 0 815 280"><defs><style>.cls-1{fill:#f3f3ff;}.cls-19,.cls-2,.cls-35,.cls-52{font-size:12px;}.cls-18,.cls-2{fill:#e13dae;}.cls-2{font-family:NotoSansCJKkr-Medium-KSCpc-EUC-H, Noto Sans CJK KR;letter-spacing:-0.03em;}.cls-3{letter-spacing:-0.06em;}.cls-4{letter-spacing:-0.03em;}.cls-5{letter-spacing:-0.02em;}.cls-6{letter-spacing:-0.04em;}.cls-7{letter-spacing:-0.03em;}.cls-8{letter-spacing:-0.02em;}.cls-9{letter-spacing:-0.02em;}.cls-10{letter-spacing:-0.03em;}.cls-11{letter-spacing:-0.02em;}.cls-12{letter-spacing:-0.05em;}.cls-13{letter-spacing:-0.04em;}.cls-14{letter-spacing:-0.01em;}.cls-15{letter-spacing:-0.03em;}.cls-16{letter-spacing:-0.05em;}.cls-17{fill:none;stroke:#e13dae;stroke-miterlimit:10;}.cls-19,.cls-35,.cls-52{fill:#1d1b60;font-family:NotoSansCJKkr-Bold-KSCpc-EUC-H, Noto Sans CJK KR;}.cls-20,.cls-35,.cls-42,.cls-43,.cls-44,.cls-52{font-weight:700;}.cls-21{letter-spacing:-0.02em;}.cls-22,.cls-44{letter-spacing:-0.01em;}.cls-23{letter-spacing:-0.03em;}.cls-24{letter-spacing:0em;}.cls-25{letter-spacing:-0.01em;}.cls-26{letter-spacing:-0.01em;}.cls-27,.cls-42,.cls-52{letter-spacing:-0.01em;}.cls-28,.cls-45{letter-spacing:0em;}.cls-29,.cls-45,.cls-46,.cls-47{font-family:NotoSansCJKkr-Regular-KSCpc-EUC-H, Noto Sans CJK KR;}.cls-30{letter-spacing:-0.07em;}.cls-31{letter-spacing:-0.02em;}.cls-32{letter-spacing:-0.01em;}.cls-33{letter-spacing:-0.01em;}.cls-34,.cls-46{letter-spacing:-0.01em;}.cls-36{letter-spacing:0.01em;}.cls-37{letter-spacing:-0.04em;}.cls-38{letter-spacing:-0.02em;}.cls-39{letter-spacing:-0.02em;}.cls-40{letter-spacing:-0.03em;}.cls-41{letter-spacing:-0.02em;}.cls-43{letter-spacing:0em;}.cls-47{letter-spacing:-0.02em;}.cls-48{letter-spacing:-0.02em;}.cls-49{letter-spacing:0.01em;}.cls-50{letter-spacing:-0.05em;}.cls-51{letter-spacing:-0.03em;}</style></defs><title>road1_2</title><g id="레이어_1" data-name="레이어 1"><rect class="cls-1" x="-0.3" y="-138.98" width="815.3" height="467.08"/><text class="cls-2" transform="translate(340 17.97)">2<tspan class="cls-3" x="6.42" y="0">0</tspan><tspan class="cls-4" x="12.54" y="0">1</tspan><tspan class="cls-5" x="18.99" y="0">8</tspan><tspan class="cls-6" x="25.58" y="0">.</tspan><tspan class="cls-7" x="28.67" y="0">0</tspan><tspan class="cls-8" x="35.09" y="0">2</tspan></text><text class="cls-2" transform="translate(339.85 58.95)">2<tspan class="cls-3" x="6.42" y="0">0</tspan><tspan class="cls-4" x="12.54" y="0">1</tspan><tspan class="cls-5" x="18.99" y="0">8</tspan><tspan class="cls-6" x="25.58" y="0">.</tspan><tspan class="cls-9" x="28.67" y="0">0</tspan><tspan class="cls-10" x="35.24" y="0">5</tspan></text><text class="cls-2" transform="translate(337.63 140.92)">2<tspan class="cls-3" x="6.42" y="0">0</tspan><tspan class="cls-4" x="12.54" y="0">1</tspan><tspan class="cls-5" x="18.99" y="0">8</tspan><tspan class="cls-11" x="25.58" y="0">.</tspan><tspan class="cls-12" x="28.97" y="0">2</tspan><tspan class="cls-10" x="35.25" y="0">Q</tspan></text><text class="cls-2" transform="translate(337.57 181.91)">2<tspan class="cls-3" x="6.42" y="0">0</tspan><tspan class="cls-4" x="12.54" y="0">1</tspan><tspan class="cls-5" x="18.99" y="0">8</tspan><tspan class="cls-13" x="25.58" y="0">.</tspan><tspan class="cls-14" x="28.64" y="0">4</tspan><tspan class="cls-8" x="35.31" y="0">Q</tspan></text><text class="cls-2" transform="translate(337.95 222.89)">2<tspan class="cls-3" x="6.42" y="0">0</tspan><tspan class="cls-15" x="12.54" y="0">1</tspan><tspan class="cls-16" x="19.03" y="0">9</tspan><tspan class="cls-11" x="25.25" y="0">.</tspan><tspan class="cls-12" x="28.64" y="0">2</tspan><tspan class="cls-10" x="34.93" y="0">Q</tspan></text><line class="cls-17" x1="406.55" y1="13.02" x2="406.85" y2="259.34"/><circle class="cls-18" cx="406.85" cy="13.48" r="4.5"/><circle class="cls-18" cx="406.85" cy="54.46" r="4.5"/><circle class="cls-18" cx="406.85" cy="95.43" r="4.5"/><circle class="cls-18" cx="406.85" cy="136.41" r="4.5"/><circle class="cls-18" cx="406.85" cy="177.39" r="4.5"/><circle class="cls-18" cx="406.85" cy="218.36" r="4.5"/><circle class="cls-18" cx="406.85" cy="259.34" r="4.5"/></g><g id="레이어_2" data-name="레이어 2"><text class="cls-19" transform="translate(431.75 256.88)"><tspan class="cls-20">Pl<tspan class="cls-21" x="11.78" y="0">a</tspan><tspan x="18.65" y="0">t</tspan><tspan class="cls-22" x="23.69" y="0">f</tspan><tspan x="28.01" y="0">orm </tspan><tspan class="cls-23" x="55.04" y="0">c</tspan><tspan class="cls-24" x="61.01" y="0">on</tspan><tspan class="cls-25" x="76.21" y="0">v</tspan><tspan x="83.03" y="0">e</tspan><tspan class="cls-26" x="90" y="0">r</tspan><tspan x="95.13" y="0">sion main n</tspan><tspan class="cls-27" x="163.07" y="0">e</tspan><tspan class="cls-28" x="169.89" y="0">t </tspan></tspan><tspan class="cls-29"><tspan class="cls-30" x="0" y="14.4">T</tspan><tspan class="cls-28" x="6.3" y="14.4">o be launched </tspan><tspan class="cls-31" x="87.98" y="14.4">a</tspan><tspan x="94.57" y="14.4">t the time when </tspan><tspan class="cls-32" x="184.77" y="14.4">DA</tspan><tspan x="200.04" y="14.4">O is d</tspan><tspan class="cls-33" x="230.67" y="14.4">e</tspan><tspan class="cls-34" x="237.19" y="14.4">t</tspan><tspan class="cls-28" x="241.53" y="14.4">ermined</tspan></tspan></text><text class="cls-35" transform="translate(431.13 18.05)">P<tspan class="cls-27" x="8" y="0">r</tspan><tspan class="cls-36" x="13.09" y="0">e</tspan><tspan x="20.21" y="0">- sale</tspan></text><text class="cls-35" transform="translate(431.13 59.06)">I<tspan class="cls-37" x="3.96" y="0">C</tspan><tspan x="11.38" y="0">O</tspan></text><text class="cls-35" transform="translate(431.13 141.07)">Li<tspan class="cls-38" x="10.57" y="0">s</tspan><tspan x="16.24" y="0">ting on </tspan><tspan class="cls-39" x="60.43" y="0">e</tspan><tspan class="cls-40" x="67.21" y="0">x</tspan><tspan class="cls-24" x="73.62" y="0">chan</tspan><tspan class="cls-41" x="102.41" y="0">g</tspan><tspan class="cls-24" x="109.34" y="0">e</tspan></text><text class="cls-19" transform="translate(431.13 100.05)"><tspan class="cls-20">Pu</tspan><tspan class="cls-42" x="15.65" y="0">r</tspan><tspan class="cls-20" x="20.74" y="0">chase </tspan><tspan class="cls-43" x="57.47" y="0">o</tspan><tspan class="cls-20" x="64.92" y="0">f intrinsic ass</tspan><tspan class="cls-44" x="142.67" y="0">et</tspan><tspan class="cls-20" x="154.39" y="0">s </tspan><tspan class="cls-45" x="163.05" y="0">(Bi</tspan><tspan class="cls-46" x="178.29" y="0">t</tspan><tspan class="cls-47" x="182.64" y="0">c</tspan><tspan class="cls-29" x="188.46" y="0">oin)</tspan></text><text class="cls-35" transform="translate(431.18 174.87)">AI In<tspan class="cls-26" x="26.03" y="0">v</tspan><tspan class="cls-24" x="32.84" y="0">e</tspan><tspan class="cls-48" x="39.82" y="0">s</tspan><tspan x="45.48" y="0">tment Pl</tspan><tspan class="cls-21" x="96.3" y="0">a</tspan><tspan x="103.16" y="0">t</tspan><tspan class="cls-22" x="108.2" y="0">f</tspan><tspan x="112.52" y="0">orm Launching</tspan><tspan x="0" y="14.4">In</tspan><tspan class="cls-26" x="11.65" y="14.4">v</tspan><tspan x="18.47" y="14.4">e</tspan><tspan class="cls-38" x="25.44" y="14.4">s</tspan><tspan x="31.1" y="14.4">tment tru</tspan><tspan class="cls-38" x="88.05" y="14.4">s</tspan><tspan x="93.72" y="14.4">t se</tspan><tspan class="cls-49" x="114.39" y="14.4">r</tspan><tspan x="119.79" y="14.4">vi</tspan><tspan class="cls-23" x="130.35" y="14.4">c</tspan><tspan class="cls-24" x="136.32" y="14.4">e open RIX </tspan><tspan class="cls-50" x="201.03" y="14.4">E</tspan><tspan class="cls-51" x="207.86" y="14.4">x</tspan><tspan x="214.27" y="14.4">chan</tspan><tspan class="cls-21" x="243.06" y="14.4">g</tspan><tspan class="cls-24" x="249.99" y="14.4">e se</tspan><tspan class="cls-49" x="272.6" y="14.4">r</tspan><tspan x="278" y="14.4">vi</tspan><tspan class="cls-23" x="288.56" y="14.4">c</tspan><tspan class="cls-24" x="294.52" y="14.4">e open </tspan></text><text class="cls-52" transform="translate(431.13 223.08)">DA<tspan class="cls-24" x="15.97" y="0">O</tspan></text></g></svg>