<svg xmlns="http://www.w3.org/2000/svg" viewBox="0 0 1200 240"><defs><style>.cls-1{fill:#f3f3ff;}.cls-2{font-size:12px;letter-spacing:-0.03em;}.cls-18,.cls-19,.cls-2{fill:#e13dae;}.cls-19,.cls-2,.cls-25,.cls-34,.cls-43,.cls-53{font-family:NotoSansCJKkr-Bold-KSCpc-EUC-H, Noto Sans CJK KR;}.cls-19,.cls-2,.cls-25,.cls-35,.cls-43{font-weight:700;}.cls-3{letter-spacing:-0.06em;}.cls-4{letter-spacing:-0.03em;}.cls-5{letter-spacing:-0.02em;}.cls-6{letter-spacing:-0.04em;}.cls-7{letter-spacing:-0.04em;}.cls-8{letter-spacing:-0.03em;}.cls-9{letter-spacing:-0.01em;}.cls-10{letter-spacing:-0.02em;}.cls-11{letter-spacing:-0.01em;}.cls-12{letter-spacing:-0.04em;}.cls-13{letter-spacing:-0.04em;}.cls-14{letter-spacing:-0.01em;}.cls-15{letter-spacing:-0.03em;}.cls-16{letter-spacing:-0.05em;}.cls-17{fill:none;stroke:#e13dae;stroke-miterlimit:10;}.cls-19{font-size:20px;letter-spacing:-0.03em;}.cls-20{letter-spacing:-0.03em;}.cls-21{letter-spacing:-0.02em;}.cls-22{letter-spacing:-0.02em;}.cls-23{letter-spacing:-0.07em;}.cls-24{letter-spacing:-0.03em;}.cls-25,.cls-34,.cls-43,.cls-53{font-size:14px;fill:#1d1b60;}.cls-26{letter-spacing:-0.01em;}.cls-27{letter-spacing:0.01em;}.cls-28{letter-spacing:0em;}.cls-29{letter-spacing:-0.04em;}.cls-30{letter-spacing:-0.02em;}.cls-31{letter-spacing:-0.02em;}.cls-32{letter-spacing:-0.03em;}.cls-33{letter-spacing:-0.02em;}.cls-34,.cls-45,.cls-62{letter-spacing:-0.03em;}.cls-36{letter-spacing:-0.04em;}.cls-37{letter-spacing:-0.03em;}.cls-38{letter-spacing:-0.04em;}.cls-39,.cls-43{letter-spacing:-0.02em;}.cls-40,.cls-60,.cls-62{font-family:NotoSansCJKkr-Regular-KSCpc-EUC-H, Noto Sans CJK KR;}.cls-41{letter-spacing:-0.04em;}.cls-42{letter-spacing:-0.05em;}.cls-44{letter-spacing:-0.03em;}.cls-46{letter-spacing:-0.05em;}.cls-47{letter-spacing:-0.04em;}.cls-48{letter-spacing:-0.01em;}.cls-49{letter-spacing:-0.06em;}.cls-50{letter-spacing:-0.07em;}.cls-51{letter-spacing:-0.05em;}.cls-52{letter-spacing:-0.04em;}.cls-53{letter-spacing:-0.05em;}.cls-54{letter-spacing:-0.07em;}.cls-55{letter-spacing:-0.06em;}.cls-56{letter-spacing:-0.08em;}.cls-57{letter-spacing:-0.05em;}.cls-58{letter-spacing:-0.06em;}.cls-59{letter-spacing:-0.06em;}.cls-60{letter-spacing:-0.1em;}.cls-61{letter-spacing:-0.04em;}.cls-63{letter-spacing:-0.04em;}</style></defs><title>road1_3</title><g id="레이어_1" data-name="레이어 1"><rect class="cls-1" x="-360" y="-150.88" width="1920" height="433.94"/><text class="cls-2" transform="translate(132.86 222.32) rotate(-45)">2<tspan class="cls-3" x="6.74" y="0">0</tspan><tspan class="cls-4" x="13.13" y="0">1</tspan><tspan class="cls-5" x="19.83" y="0">8</tspan><tspan class="cls-6" x="26.64" y="0">.</tspan><tspan class="cls-7" x="30.08" y="0">0</tspan><tspan class="cls-8" x="36.71" y="0">2</tspan></text><text class="cls-2" transform="translate(270.49 222.58) rotate(-45)">2<tspan class="cls-3" x="6.74" y="0">0</tspan><tspan class="cls-4" x="13.13" y="0">1</tspan><tspan class="cls-5" x="19.83" y="0">8</tspan><tspan class="cls-6" x="26.64" y="0">.</tspan><tspan class="cls-9" x="30.08" y="0">0</tspan><tspan class="cls-10" x="37.08" y="0">4</tspan></text><text class="cls-2" transform="translate(544.79 224.07) rotate(-45)">2<tspan class="cls-3" x="6.74" y="0">0</tspan><tspan class="cls-4" x="13.13" y="0">1</tspan><tspan class="cls-5" x="19.83" y="0">8</tspan><tspan class="cls-11" x="26.64" y="0">.</tspan><tspan class="cls-12" x="30.41" y="0">2</tspan><tspan class="cls-8" x="37.02" y="0">Q</tspan></text><text class="cls-2" transform="translate(682.72 224.04) rotate(-45)">2<tspan class="cls-3" x="6.74" y="0">0</tspan><tspan class="cls-4" x="13.13" y="0">1</tspan><tspan class="cls-5" x="19.83" y="0">8</tspan><tspan class="cls-13" x="26.64" y="0">.</tspan><tspan class="cls-14" x="30.07" y="0">4</tspan><tspan class="cls-10" x="36.97" y="0">Q</tspan></text><text class="cls-2" transform="translate(820.81 223.84) rotate(-45)">2<tspan class="cls-3" x="6.74" y="0">0</tspan><tspan class="cls-15" x="13.13" y="0">1</tspan><tspan class="cls-16" x="19.85" y="0">9</tspan><tspan class="cls-11" x="26.32" y="0">.</tspan><tspan class="cls-12" x="30.09" y="0">2</tspan><tspan class="cls-10" x="36.7" y="0">Q</tspan></text><line class="cls-17" x1="174.6" y1="173.85" x2="985.4" y2="173.85"/><circle class="cls-18" cx="174.79" cy="173.85" r="3.76"/><path class="cls-18" d="M985.22,177.61a3.76,3.76,0,1,0-3.76-3.76A3.76,3.76,0,0,0,985.22,177.61Z"/><circle class="cls-18" cx="317" cy="173.85" r="4.5"/><circle class="cls-18" cx="453.37" cy="173.85" r="4.5"/><circle class="cls-18" cx="862.5" cy="173.85" r="4.5"/><circle class="cls-18" cx="726.12" cy="173.85" r="4.5"/><circle class="cls-18" cx="589.75" cy="173.85" r="4.5"/></g><g id="레이어_2" data-name="레이어 2"><text class="cls-19" transform="translate(556.68 -15.96)">R<tspan class="cls-20" x="13.04" y="0">i</tspan><tspan class="cls-21" x="18.46" y="0">x </tspan><tspan class="cls-22" x="33.24" y="0">로</tspan><tspan class="cls-23" x="51.32" y="0">드</tspan><tspan class="cls-24" x="68.24" y="0">맵</tspan></text><text class="cls-25" transform="translate(192.55 165.57) rotate(-45)">P<tspan class="cls-26" x="9.34" y="0">r</tspan><tspan class="cls-27" x="15.27" y="0">e</tspan><tspan class="cls-28" x="23.58" y="0">- sale</tspan></text><text class="cls-25" transform="translate(332.91 165.57) rotate(-45)">I<tspan class="cls-29" x="4.62" y="0">C</tspan><tspan x="13.27" y="0">O</tspan></text><text class="cls-25" transform="translate(605.64 165.57) rotate(-45)">Li<tspan class="cls-30" x="12.33" y="0">s</tspan><tspan x="18.94" y="0">ting on the </tspan><tspan class="cls-31" x="96.65" y="0">e</tspan><tspan class="cls-32" x="104.56" y="0">x</tspan><tspan x="112.04" y="0">chan</tspan><tspan class="cls-33" x="145.63" y="0">g</tspan><tspan x="153.72" y="0">e </tspan></text><text class="cls-34" transform="translate(457.87 153.67) rotate(-45)"><tspan class="cls-35">Pu<tspan class="cls-36" x="17.56" y="0">r</tspan><tspan x="23.14" y="0">chase </tspan><tspan class="cls-37" x="63.9" y="0">o</tspan><tspan x="72.24" y="0">f intrinsic ass</tspan><tspan class="cls-38" x="157.69" y="0">et</tspan><tspan class="cls-39" x="170.67" y="0">s </tspan></tspan><tspan class="cls-40"><tspan x="0" y="16.8">(Bi</tspan><tspan class="cls-41" x="16.73" y="16.8">t</tspan><tspan class="cls-42" x="21.45" y="16.8">c</tspan><tspan x="27.89" y="16.8">oin)</tspan></tspan></text><text class="cls-43" transform="translate(708.08 129.89) rotate(-45)">AI In<tspan class="cls-44" x="28.62" y="0">v</tspan><tspan class="cls-45" x="36.22" y="0">e</tspan><tspan class="cls-46" x="44" y="0">s</tspan><tspan class="cls-45" x="50.26" y="0">tment</tspan><tspan class="cls-45"><tspan x="0" y="16.8">Pl</tspan><tspan class="cls-47" x="13.05" y="16.8">a</tspan><tspan x="20.71" y="16.8">t</tspan><tspan class="cls-38" x="26.24" y="16.8">f</tspan><tspan x="30.93" y="16.8">orm Launching</tspan></tspan><tspan x="0" y="33.6">In</tspan><tspan class="cls-44" x="12.89" y="33.6">v</tspan><tspan class="cls-45" x="20.5" y="33.6">e</tspan><tspan class="cls-46" x="28.28" y="33.6">s</tspan><tspan class="cls-45" x="34.54" y="33.6">tment tru</tspan><tspan class="cls-46" x="97.83" y="33.6">s</tspan><tspan class="cls-45" x="104.09" y="33.6">t se</tspan><tspan class="cls-48" x="126.81" y="33.6">r</tspan><tspan class="cls-45" x="132.76" y="33.6">vi</tspan><tspan class="cls-49" x="144.38" y="33.6">c</tspan><tspan class="cls-45" x="150.99" y="33.6">e open</tspan><tspan class="cls-45"><tspan x="0" y="50.4">RIX </tspan><tspan class="cls-50" x="24.72" y="50.4">E</tspan><tspan class="cls-51" x="32.34" y="50.4">x</tspan><tspan x="39.47" y="50.4">chan</tspan><tspan class="cls-52" x="71.65" y="50.4">g</tspan><tspan x="79.39" y="50.4">e se</tspan><tspan class="cls-48" x="104.37" y="50.4">r</tspan><tspan x="110.32" y="50.4">vi</tspan><tspan class="cls-49" x="121.94" y="50.4">c</tspan><tspan x="128.55" y="50.4">e open </tspan></tspan></text><text class="cls-25" transform="translate(876.73 165.57) rotate(-45)"><tspan class="cls-26">DA</tspan><tspan x="18.63" y="0">O</tspan></text><text class="cls-53" transform="translate(976.4 143.67) rotate(-45)"><tspan class="cls-35">Pl<tspan class="cls-54" x="12.35" y="0">a</tspan><tspan x="19.66" y="0">t</tspan><tspan class="cls-55" x="24.84" y="0">f</tspan><tspan x="29.18" y="0">orm </tspan><tspan class="cls-56" x="57.92" y="0">c</tspan><tspan class="cls-57" x="64.17" y="0">on</tspan><tspan class="cls-58" x="80.51" y="0">v</tspan><tspan class="cls-57" x="87.76" y="0">e</tspan><tspan class="cls-59" x="95.2" y="0">r</tspan><tspan class="cls-57" x="100.49" y="0">sion main n</tspan><tspan class="cls-55" x="172.04" y="0">e</tspan><tspan x="179.31" y="0">t </tspan></tspan><tspan class="cls-60"><tspan x="0" y="16.8">T</tspan><tspan class="cls-45" x="7" y="16.8">o be launched </tspan><tspan class="cls-61" x="97.4" y="16.8">a</tspan><tspan class="cls-45" x="104.73" y="16.8">t the time </tspan></tspan><tspan class="cls-62"><tspan x="0" y="33.6">when </tspan><tspan class="cls-63" x="37.42" y="33.6">DA</tspan><tspan x="54.53" y="33.6">O is d</tspan><tspan class="cls-63" x="88.17" y="33.6">e</tspan><tspan class="cls-41" x="95.42" y="33.6">t</tspan><tspan x="100.14" y="33.6">ermined</tspan></tspan></text></g></svg>