<svg xmlns="http://www.w3.org/2000/svg" viewBox="0 0 1200 240"><defs><style>.cls-1{fill:#f3f3ff;}.cls-2{font-size:12px;letter-spacing:-0.03em;}.cls-18,.cls-2{fill:#e13dae;}.cls-19,.cls-2,.cls-21{font-family:NotoSansCJKkr-Bold-KSCpc-EUC-H, Noto Sans CJK KR;}.cls-19,.cls-2,.cls-22{font-weight:700;}.cls-3{letter-spacing:-0.06em;}.cls-4{letter-spacing:-0.03em;}.cls-5{letter-spacing:-0.02em;}.cls-6{letter-spacing:-0.04em;}.cls-7{letter-spacing:-0.04em;}.cls-8{letter-spacing:-0.03em;}.cls-9{letter-spacing:-0.01em;}.cls-10{letter-spacing:-0.02em;}.cls-11{letter-spacing:-0.01em;}.cls-12{letter-spacing:-0.04em;}.cls-13{letter-spacing:-0.04em;}.cls-14{letter-spacing:-0.01em;}.cls-15{letter-spacing:-0.03em;}.cls-16{letter-spacing:-0.05em;}.cls-17{fill:none;stroke:#e13dae;stroke-miterlimit:10;}.cls-19,.cls-21{font-size:14px;fill:#1d1b60;}.cls-20{letter-spacing:-0.04em;}.cls-23{font-family:NotoSansCJKkr-Regular-KSCpc-EUC-H, Noto Sans CJK KR;}.cls-24{letter-spacing:-0.01em;}</style></defs><title>road1_3</title><g id="레이어_1" data-name="레이어 1"><rect class="cls-1" x="-360" y="-150.88" width="1920" height="433.94"/><text class="cls-2" transform="translate(132.86 222.32) rotate(-45)">2<tspan class="cls-3" x="6.74" y="0">0</tspan><tspan class="cls-4" x="13.13" y="0">1</tspan><tspan class="cls-5" x="19.83" y="0">8</tspan><tspan class="cls-6" x="26.64" y="0">.</tspan><tspan class="cls-7" x="30.08" y="0">0</tspan><tspan class="cls-8" x="36.71" y="0">2</tspan></text><text class="cls-2" transform="translate(270.49 222.58) rotate(-45)">2<tspan class="cls-3" x="6.74" y="0">0</tspan><tspan class="cls-4" x="13.13" y="0">1</tspan><tspan class="cls-5" x="19.83" y="0">8</tspan><tspan class="cls-6" x="26.64" y="0">.</tspan><tspan class="cls-9" x="30.08" y="0">0</tspan><tspan class="cls-10" x="37.08" y="0">4</tspan></text><text class="cls-2" transform="translate(544.79 224.07) rotate(-45)">2<tspan class="cls-3" x="6.74" y="0">0</tspan><tspan class="cls-4" x="13.13" y="0">1</tspan><tspan class="cls-5" x="19.83" y="0">8</tspan><tspan class="cls-11" x="26.64" y="0">.</tspan><tspan class="cls-12" x="30.41" y="0">2</tspan><tspan class="cls-8" x="37.02" y="0">Q</tspan></text><text class="cls-2" transform="translate(682.72 224.04) rotate(-45)">2<tspan class="cls-3" x="6.74" y="0">0</tspan><tspan class="cls-4" x="13.13" y="0">1</tspan><tspan class="cls-5" x="19.83" y="0">8</tspan><tspan class="cls-13" x="26.64" y="0">.</tspan><tspan class="cls-14" x="30.07" y="0">4</tspan><tspan class="cls-10" x="36.97" y="0">Q</tspan></text><text class="cls-2" transform="translate(820.81 223.84) rotate(-45)">2<tspan class="cls-3" x="6.74" y="0">0</tspan><tspan class="cls-15" x="13.13" y="0">1</tspan><tspan class="cls-16" x="19.85" y="0">9</tspan><tspan class="cls-11" x="26.32" y="0">.</tspan><tspan class="cls-12" x="30.09" y="0">2</tspan><tspan class="cls-10" x="36.7" y="0">Q</tspan></text><line class="cls-17" x1="174.6" y1="173.85" x2="985.4" y2="173.85"/><circle class="cls-18" cx="174.79" cy="173.85" r="3.76"/><path class="cls-18" d="M985.22,177.61a3.76,3.76,0,1,0-3.76-3.76A3.76,3.76,0,0,0,985.22,177.61Z"/><circle class="cls-18" cx="317" cy="173.85" r="4.5"/><circle class="cls-18" cx="453.37" cy="173.85" r="4.5"/><circle class="cls-18" cx="862.5" cy="173.85" r="4.5"/><circle class="cls-18" cx="726.12" cy="173.85" r="4.5"/><circle class="cls-18" cx="589.75" cy="173.85" r="4.5"/></g><g id="레이어_4" data-name="레이어 4"><text class="cls-19" transform="translate(197.32 160.53) rotate(-45)">프리세일</text><text class="cls-19" transform="translate(337.68 160.53) rotate(-45)">I<tspan class="cls-20" x="4.62" y="0">C</tspan><tspan x="13.27" y="0">O</tspan></text><text class="cls-19" transform="translate(609.86 160.53) rotate(-45)">거래소 상장</text><text class="cls-21" transform="translate(470.86 161.53) rotate(-45)"><tspan class="cls-22">고유자산매입 </tspan><tspan class="cls-23" x="81.46" y="0">(비트코인)</tspan></text><text class="cls-19" transform="translate(712.85 124.85) rotate(-45)">AI 투자 플랫폼 가동<tspan x="0" y="16.8">고유 자산 가치 평가 개시</tspan><tspan x="0" y="33.6">신탁투자 서비스 개시</tspan><tspan x="0" y="50.4">태환 매입 개시</tspan></text><text class="cls-19" transform="translate(881.5 160.53) rotate(-45)"><tspan class="cls-24">DA</tspan><tspan x="18.63" y="0">O 가동</tspan></text><text class="cls-21" transform="translate(991.18 148.63) rotate(-45)"><tspan class="cls-22">플랫폼 전환 메인넷</tspan><tspan class="cls-23"><tspan x="0" y="16.8">(DAO결정시 착수)</tspan></tspan></text></g></svg>