<svg xmlns="http://www.w3.org/2000/svg" viewBox="0 0 815 280"><defs><style>.cls-1{fill:#f3f3ff;}.cls-2,.cls-25{font-size:12px;font-family:NotoSansCJKkr-Medium-KSCpc-EUC-H, Noto Sans CJK KR;}.cls-18,.cls-2,.cls-25{fill:#e13dae;}.cls-2{letter-spacing:-0.03em;}.cls-3{letter-spacing:-0.06em;}.cls-4{letter-spacing:-0.03em;}.cls-5{letter-spacing:-0.02em;}.cls-6{letter-spacing:-0.04em;}.cls-7{letter-spacing:-0.03em;}.cls-8{letter-spacing:-0.02em;}.cls-9{letter-spacing:-0.02em;}.cls-10{letter-spacing:-0.03em;}.cls-11{letter-spacing:-0.02em;}.cls-12{letter-spacing:-0.05em;}.cls-13{letter-spacing:-0.04em;}.cls-14{letter-spacing:-0.01em;}.cls-15{letter-spacing:-0.03em;}.cls-16{letter-spacing:-0.05em;}.cls-17{fill:none;stroke:#e13dae;stroke-miterlimit:10;}.cls-19,.cls-21{font-size:14px;fill:#1d1b60;font-family:NotoSansCJKkr-Bold-KSCpc-EUC-H, Noto Sans CJK KR;}.cls-19,.cls-22{font-weight:700;}.cls-20{letter-spacing:-0.04em;}.cls-23{font-family:NotoSansCJKkr-Regular-KSCpc-EUC-H, Noto Sans CJK KR;}.cls-24{letter-spacing:-0.01em;}.cls-25{letter-spacing:-0.03em;}</style></defs><title>road1_2</title><g id="레이어_1" data-name="레이어 1"><rect class="cls-1" x="-0.3" y="-138.98" width="815.3" height="467.08"/><text class="cls-2" transform="translate(340 17.97)">2<tspan class="cls-3" x="6.42" y="0">0</tspan><tspan class="cls-4" x="12.54" y="0">1</tspan><tspan class="cls-5" x="18.99" y="0">8</tspan><tspan class="cls-6" x="25.58" y="0">.</tspan><tspan class="cls-7" x="28.67" y="0">0</tspan><tspan class="cls-8" x="35.09" y="0">2</tspan></text><text class="cls-2" transform="translate(339.85 58.95)">2<tspan class="cls-3" x="6.42" y="0">0</tspan><tspan class="cls-4" x="12.54" y="0">1</tspan><tspan class="cls-5" x="18.99" y="0">8</tspan><tspan class="cls-6" x="25.58" y="0">.</tspan><tspan class="cls-9" x="28.67" y="0">0</tspan><tspan class="cls-10" x="35.24" y="0">5</tspan></text><text class="cls-2" transform="translate(337.63 140.92)">2<tspan class="cls-3" x="6.42" y="0">0</tspan><tspan class="cls-4" x="12.54" y="0">1</tspan><tspan class="cls-5" x="18.99" y="0">8</tspan><tspan class="cls-11" x="25.58" y="0">.</tspan><tspan class="cls-12" x="28.97" y="0">2</tspan><tspan class="cls-10" x="35.25" y="0">Q</tspan></text><text class="cls-2" transform="translate(337.57 181.91)">2<tspan class="cls-3" x="6.42" y="0">0</tspan><tspan class="cls-4" x="12.54" y="0">1</tspan><tspan class="cls-5" x="18.99" y="0">8</tspan><tspan class="cls-13" x="25.58" y="0">.</tspan><tspan class="cls-14" x="28.64" y="0">4</tspan><tspan class="cls-8" x="35.31" y="0">Q</tspan></text><text class="cls-2" transform="translate(337.95 222.89)">2<tspan class="cls-3" x="6.42" y="0">0</tspan><tspan class="cls-15" x="12.54" y="0">1</tspan><tspan class="cls-16" x="19.03" y="0">9</tspan><tspan class="cls-11" x="25.25" y="0">.</tspan><tspan class="cls-12" x="28.64" y="0">2</tspan><tspan class="cls-10" x="34.93" y="0">Q</tspan></text><line class="cls-17" x1="406.55" y1="13.02" x2="406.85" y2="259.34"/><circle class="cls-18" cx="406.85" cy="13.48" r="4.5"/><circle class="cls-18" cx="406.85" cy="54.46" r="4.5"/><circle class="cls-18" cx="406.85" cy="95.43" r="4.5"/><circle class="cls-18" cx="406.85" cy="136.41" r="4.5"/><circle class="cls-18" cx="406.85" cy="177.39" r="4.5"/><circle class="cls-18" cx="406.85" cy="218.36" r="4.5"/><circle class="cls-18" cx="406.85" cy="259.34" r="4.5"/></g><g id="레이어_4" data-name="레이어 4"><text class="cls-19" transform="translate(431.72 18.05)">프리세일</text><text class="cls-19" transform="translate(431.72 59.03)">I<tspan class="cls-20" x="4.62" y="0">C</tspan><tspan x="13.27" y="0">O</tspan></text><text class="cls-19" transform="translate(431.72 99.93)">거래소 상장</text><text class="cls-21" transform="translate(431.72 140.96)"><tspan class="cls-22">토큰분배 고유자산매입 </tspan><tspan class="cls-23" x="135.9" y="0">(비트코인)</tspan></text><text class="cls-19" transform="translate(431.77 177.39)">AI 투자 플렛폼 가동 고유 자산 가치 평가 개시<tspan x="0" y="16.8">신탁투자 서비스 개시 태환 매입 개시</tspan></text><text class="cls-19" transform="translate(431.72 222.92)"><tspan class="cls-24">DA</tspan><tspan x="18.63" y="0">O 가동</tspan></text><text class="cls-21" transform="translate(431.72 263.88)"><tspan class="cls-22">플랫폼 전환 메인넷 </tspan><tspan class="cls-23" x="114.06" y="0">(DAO결정시 착수)</tspan></text><text class="cls-25" transform="translate(360.24 263.88)">향<tspan class="cls-8" x="10.65" y="0">후</tspan></text></g></svg>