<svg xmlns="http://www.w3.org/2000/svg" viewBox="0 0 430 330"><defs><style>.cls-1{fill:#f3f3ff;}.cls-2,.cls-25{font-size:12px;font-family:NotoSansCJKkr-Medium-KSCpc-EUC-H, Noto Sans CJK KR;}.cls-18,.cls-2,.cls-25{fill:#e13dae;}.cls-2{letter-spacing:-0.03em;}.cls-3{letter-spacing:-0.06em;}.cls-4{letter-spacing:-0.03em;}.cls-5{letter-spacing:-0.02em;}.cls-6{letter-spacing:-0.04em;}.cls-7{letter-spacing:-0.03em;}.cls-8{letter-spacing:-0.02em;}.cls-9{letter-spacing:0em;}.cls-10{letter-spacing:-0.02em;}.cls-11{letter-spacing:-0.05em;}.cls-12{letter-spacing:-0.03em;}.cls-13{letter-spacing:-0.04em;}.cls-14{letter-spacing:-0.01em;}.cls-15{letter-spacing:-0.03em;}.cls-16{letter-spacing:-0.05em;}.cls-17{fill:none;stroke:#e13dae;stroke-miterlimit:10;}.cls-19,.cls-21{font-size:14px;fill:#1d1b60;font-family:NotoSansCJKkr-Bold-KSCpc-EUC-H, Noto Sans CJK KR;}.cls-19,.cls-22{font-weight:700;}.cls-20{letter-spacing:-0.04em;}.cls-23{font-family:NotoSansCJKkr-Regular-KSCpc-EUC-H, Noto Sans CJK KR;}.cls-24{letter-spacing:-0.01em;}.cls-25{letter-spacing:-0.03em;}</style></defs><title>road1_1</title><g id="레이어_1" data-name="레이어 1"><rect class="cls-1" y="-135.91" width="430.03" height="507.08"/><text class="cls-2" transform="translate(36.72 19.04)">2<tspan class="cls-3" x="6.42" y="0">0</tspan><tspan class="cls-4" x="12.54" y="0">1</tspan><tspan class="cls-5" x="18.99" y="0">8</tspan><tspan class="cls-6" x="25.58" y="0">.</tspan><tspan class="cls-7" x="28.67" y="0">0</tspan><tspan class="cls-8" x="35.09" y="0">2</tspan></text><text class="cls-2" transform="translate(36.35 66.69)">2<tspan class="cls-3" x="6.42" y="0">0</tspan><tspan class="cls-4" x="12.54" y="0">1</tspan><tspan class="cls-5" x="18.99" y="0">8</tspan><tspan class="cls-6" x="25.58" y="0">.</tspan><tspan class="cls-9" x="28.67" y="0">0</tspan><tspan class="cls-8" x="35.46" y="0">4</tspan></text><text class="cls-2" transform="translate(34.35 161.99)">2<tspan class="cls-3" x="6.42" y="0">0</tspan><tspan class="cls-4" x="12.54" y="0">1</tspan><tspan class="cls-5" x="18.99" y="0">8</tspan><tspan class="cls-10" x="25.58" y="0">.</tspan><tspan class="cls-11" x="28.97" y="0">2</tspan><tspan class="cls-12" x="35.25" y="0">Q</tspan></text><text class="cls-2" transform="translate(34.3 209.64)">2<tspan class="cls-3" x="6.42" y="0">0</tspan><tspan class="cls-4" x="12.54" y="0">1</tspan><tspan class="cls-5" x="18.99" y="0">8</tspan><tspan class="cls-13" x="25.58" y="0">.</tspan><tspan class="cls-14" x="28.64" y="0">4</tspan><tspan class="cls-8" x="35.31" y="0">Q</tspan></text><text class="cls-2" transform="translate(34.68 257.29)">2<tspan class="cls-3" x="6.42" y="0">0</tspan><tspan class="cls-15" x="12.54" y="0">1</tspan><tspan class="cls-16" x="19.03" y="0">9</tspan><tspan class="cls-10" x="25.25" y="0">.</tspan><tspan class="cls-11" x="28.64" y="0">2</tspan><tspan class="cls-12" x="34.93" y="0">Q</tspan></text><line class="cls-17" x1="103.28" y1="14.09" x2="103.58" y2="300.41"/><circle class="cls-18" cx="103.58" cy="14.54" r="4.5"/><circle class="cls-18" cx="103.58" cy="62.19" r="4.5"/><circle class="cls-18" cx="103.58" cy="109.83" r="4.5"/><circle class="cls-18" cx="103.58" cy="157.48" r="4.5"/><circle class="cls-18" cx="103.58" cy="205.12" r="4.5"/><circle class="cls-18" cx="103.58" cy="252.76" r="4.5"/><circle class="cls-18" cx="103.58" cy="300.41" r="4.5"/></g><g id="레이어_4" data-name="레이어 4"><text class="cls-19" transform="translate(127.88 19.12)">프리세일</text><text class="cls-19" transform="translate(127.88 66.9)">I<tspan class="cls-20" x="4.62" y="0">C</tspan><tspan x="13.27" y="0">O</tspan></text><text class="cls-19" transform="translate(127.88 114.67)">거래소 상장</text><text class="cls-21" transform="translate(127.88 162.43)"><tspan class="cls-22">토큰분배 고유자산매입 </tspan><tspan class="cls-23" x="135.9" y="0">(비트코인)</tspan></text><text class="cls-19" transform="translate(127.94 201.82)">AI 투자 플렛폼 가동 고유 자산 가치 평가 개시<tspan x="0" y="16.8">신탁투자 서비스 개시 태환 매입 개시</tspan></text><text class="cls-19" transform="translate(127.88 258)"><tspan class="cls-24">DA</tspan><tspan x="18.63" y="0">O 가동</tspan></text><text class="cls-21" transform="translate(127.88 305.76)"><tspan class="cls-22">플랫폼 전환 메인넷 </tspan><tspan class="cls-23" x="114.06" y="0">(DAO결정시 착수)</tspan></text><text class="cls-25" transform="translate(56.96 304.94)">향<tspan class="cls-8" x="10.65" y="0">후</tspan></text></g></svg>