<svg xmlns="http://www.w3.org/2000/svg" viewBox="0 0 430 330"><defs><style>.cls-1{fill:#f3f3ff;}.cls-2,.cls-25,.cls-29,.cls-31,.cls-45{font-size:12px;}.cls-18,.cls-19,.cls-2{fill:#e13dae;}.cls-2{font-family:NotoSansCJKkr-Medium-KSCpc-EUC-H, Noto Sans CJK KR;letter-spacing:-0.03em;}.cls-3{letter-spacing:-0.06em;}.cls-4{letter-spacing:-0.03em;}.cls-5{letter-spacing:-0.02em;}.cls-6{letter-spacing:-0.04em;}.cls-7{letter-spacing:-0.03em;}.cls-31,.cls-8{letter-spacing:-0.02em;}.cls-9{letter-spacing:0em;}.cls-10{letter-spacing:-0.02em;}.cls-11{letter-spacing:-0.05em;}.cls-12{letter-spacing:-0.03em;}.cls-13{letter-spacing:-0.04em;}.cls-14{letter-spacing:-0.01em;}.cls-15{letter-spacing:-0.03em;}.cls-16{letter-spacing:-0.05em;}.cls-17{fill:none;stroke:#e13dae;stroke-miterlimit:10;}.cls-19{font-size:20px;letter-spacing:-0.03em;}.cls-19,.cls-25,.cls-29,.cls-31,.cls-45{font-family:NotoSansCJKkr-Bold-KSCpc-EUC-H, Noto Sans CJK KR;}.cls-19,.cls-25,.cls-29,.cls-32,.cls-46,.cls-47,.cls-48{font-weight:700;}.cls-20{letter-spacing:-0.03em;}.cls-21{letter-spacing:-0.02em;}.cls-22{letter-spacing:-0.02em;}.cls-23{letter-spacing:-0.07em;}.cls-24{letter-spacing:-0.03em;}.cls-25,.cls-29,.cls-31,.cls-45{fill:#1d1b60;}.cls-26,.cls-29,.cls-46{letter-spacing:-0.01em;}.cls-27{letter-spacing:0.01em;}.cls-28{letter-spacing:-0.04em;}.cls-30{letter-spacing:0em;}.cls-33{letter-spacing:-0.04em;}.cls-34{letter-spacing:-0.04em;}.cls-35{letter-spacing:-0.06em;}.cls-36{letter-spacing:-0.03em;}.cls-37,.cls-49,.cls-50,.cls-51,.cls-52{font-family:NotoSansCJKkr-Regular-KSCpc-EUC-H, Noto Sans CJK KR;}.cls-37{letter-spacing:-0.1em;}.cls-38{letter-spacing:-0.04em;}.cls-39{letter-spacing:-0.04em;}.cls-40{letter-spacing:-0.04em;}.cls-41{letter-spacing:-0.02em;}.cls-42{letter-spacing:-0.02em;}.cls-43{letter-spacing:-0.03em;}.cls-44{letter-spacing:-0.02em;}.cls-47{letter-spacing:0em;}.cls-48,.cls-56{letter-spacing:-0.01em;}.cls-49{letter-spacing:0em;}.cls-50{letter-spacing:-0.01em;}.cls-51{letter-spacing:-0.02em;}.cls-53{letter-spacing:-0.01em;}.cls-54{letter-spacing:-0.02em;}.cls-55{letter-spacing:-0.02em;}.cls-57{letter-spacing:0.01em;}.cls-58{letter-spacing:-0.03em;}.cls-59{letter-spacing:0.01em;}.cls-60{letter-spacing:-0.03em;}</style></defs><title>road1_1</title><g id="레이어_1" data-name="레이어 1"><rect class="cls-1" y="-135.91" width="430.03" height="507.08"/><text class="cls-2" transform="translate(36.72 19.04)">2<tspan class="cls-3" x="6.42" y="0">0</tspan><tspan class="cls-4" x="12.54" y="0">1</tspan><tspan class="cls-5" x="18.99" y="0">8</tspan><tspan class="cls-6" x="25.58" y="0">.</tspan><tspan class="cls-7" x="28.67" y="0">0</tspan><tspan class="cls-8" x="35.09" y="0">2</tspan></text><text class="cls-2" transform="translate(36.35 66.69)">2<tspan class="cls-3" x="6.42" y="0">0</tspan><tspan class="cls-4" x="12.54" y="0">1</tspan><tspan class="cls-5" x="18.99" y="0">8</tspan><tspan class="cls-6" x="25.58" y="0">.</tspan><tspan class="cls-9" x="28.67" y="0">0</tspan><tspan class="cls-8" x="35.46" y="0">4</tspan></text><text class="cls-2" transform="translate(34.35 161.99)">2<tspan class="cls-3" x="6.42" y="0">0</tspan><tspan class="cls-4" x="12.54" y="0">1</tspan><tspan class="cls-5" x="18.99" y="0">8</tspan><tspan class="cls-10" x="25.58" y="0">.</tspan><tspan class="cls-11" x="28.97" y="0">2</tspan><tspan class="cls-12" x="35.25" y="0">Q</tspan></text><text class="cls-2" transform="translate(34.3 209.64)">2<tspan class="cls-3" x="6.42" y="0">0</tspan><tspan class="cls-4" x="12.54" y="0">1</tspan><tspan class="cls-5" x="18.99" y="0">8</tspan><tspan class="cls-13" x="25.58" y="0">.</tspan><tspan class="cls-14" x="28.64" y="0">4</tspan><tspan class="cls-8" x="35.31" y="0">Q</tspan></text><text class="cls-2" transform="translate(34.68 257.29)">2<tspan class="cls-3" x="6.42" y="0">0</tspan><tspan class="cls-15" x="12.54" y="0">1</tspan><tspan class="cls-16" x="19.03" y="0">9</tspan><tspan class="cls-10" x="25.25" y="0">.</tspan><tspan class="cls-11" x="28.64" y="0">2</tspan><tspan class="cls-12" x="34.93" y="0">Q</tspan></text><line class="cls-17" x1="103.28" y1="14.09" x2="103.58" y2="300.41"/><circle class="cls-18" cx="103.58" cy="14.54" r="4.5"/><circle class="cls-18" cx="103.58" cy="62.19" r="4.5"/><circle class="cls-18" cx="103.58" cy="109.83" r="4.5"/><circle class="cls-18" cx="103.58" cy="157.48" r="4.5"/><circle class="cls-18" cx="103.58" cy="205.12" r="4.5"/><circle class="cls-18" cx="103.58" cy="252.76" r="4.5"/><circle class="cls-18" cx="103.58" cy="300.41" r="4.5"/></g><g id="레이어_2" data-name="레이어 2"><text class="cls-19" transform="translate(171.42 -17.99)">R<tspan class="cls-20" x="13.04" y="0">i</tspan><tspan class="cls-21" x="18.46" y="0">x </tspan><tspan class="cls-22" x="33.24" y="0">로</tspan><tspan class="cls-23" x="51.32" y="0">드</tspan><tspan class="cls-24" x="68.24" y="0">맵</tspan></text><text class="cls-25" transform="translate(127.86 19.12)">P<tspan class="cls-26" x="8" y="0">r</tspan><tspan class="cls-27" x="13.09" y="0">e</tspan><tspan x="20.21" y="0">- sale</tspan></text><text class="cls-25" transform="translate(127.86 66.8)">I<tspan class="cls-28" x="3.96" y="0">C</tspan><tspan x="11.38" y="0">O</tspan></text><text class="cls-29" transform="translate(127.86 257.49)">DA<tspan class="cls-30" x="15.97" y="0">O</tspan></text><text class="cls-31" transform="translate(127.91 297.94)"><tspan class="cls-32">Pl<tspan class="cls-33" x="11.18" y="0">a</tspan><tspan x="17.75" y="0">t</tspan><tspan class="cls-34" x="22.49" y="0">f</tspan><tspan x="26.51" y="0">orm </tspan><tspan class="cls-35" x="52.34" y="0">c</tspan><tspan x="58.01" y="0">on</tspan><tspan class="cls-36" x="72.61" y="0">v</tspan><tspan x="79.13" y="0">e</tspan><tspan class="cls-36" x="85.8" y="0">r</tspan><tspan class="cls-12" x="90.63" y="0">sion main n</tspan><tspan class="cls-34" x="155.27" y="0">e</tspan><tspan class="cls-12" x="161.79" y="0">t </tspan></tspan><tspan class="cls-37"><tspan x="0" y="14.4">T</tspan><tspan class="cls-8" x="6" y="14.4">o be launched </tspan><tspan class="cls-38" x="83.48" y="14.4">a</tspan><tspan class="cls-12" x="89.77" y="14.4">t the time when </tspan><tspan class="cls-39" x="175.17" y="14.4">DA</tspan><tspan class="cls-8" x="189.84" y="14.4">O is d</tspan><tspan class="cls-40" x="218.67" y="14.4">e</tspan><tspan class="cls-38" x="224.89" y="14.4">t</tspan><tspan class="cls-12" x="228.93" y="14.4">ermined</tspan></tspan></text><text class="cls-25" transform="translate(127.67 161.98)">Li<tspan class="cls-41" x="10.57" y="0">s</tspan><tspan x="16.24" y="0">ting on </tspan><tspan class="cls-42" x="60.43" y="0">e</tspan><tspan class="cls-43" x="67.21" y="0">x</tspan><tspan class="cls-30" x="73.62" y="0">chan</tspan><tspan class="cls-44" x="102.41" y="0">g</tspan><tspan class="cls-30" x="109.34" y="0">e</tspan></text><text class="cls-45" transform="translate(127.91 114.47)"><tspan class="cls-32">Pu</tspan><tspan class="cls-46" x="15.65" y="0">r</tspan><tspan class="cls-32" x="20.74" y="0">chase </tspan><tspan class="cls-47" x="57.47" y="0">o</tspan><tspan class="cls-32" x="64.92" y="0">f intrinsic ass</tspan><tspan class="cls-48" x="142.67" y="0">et</tspan><tspan class="cls-32" x="154.39" y="0">s </tspan><tspan class="cls-49" x="163.05" y="0">(Bi</tspan><tspan class="cls-50" x="178.29" y="0">t</tspan><tspan class="cls-51" x="182.64" y="0">c</tspan><tspan class="cls-52" x="188.46" y="0">oin)</tspan></text><text class="cls-25" transform="translate(127.91 194.38)">AI In<tspan class="cls-53" x="26.03" y="0">v</tspan><tspan class="cls-30" x="32.84" y="0">e</tspan><tspan class="cls-54" x="39.82" y="0">s</tspan><tspan x="45.48" y="0">tment Pl</tspan><tspan class="cls-55" x="96.3" y="0">a</tspan><tspan x="103.16" y="0">t</tspan><tspan class="cls-56" x="108.2" y="0">f</tspan><tspan x="112.52" y="0">orm Launching</tspan><tspan x="0" y="14.4">In</tspan><tspan class="cls-53" x="11.65" y="14.4">v</tspan><tspan x="18.47" y="14.4">e</tspan><tspan class="cls-41" x="25.44" y="14.4">s</tspan><tspan x="31.1" y="14.4">tment tru</tspan><tspan class="cls-41" x="88.05" y="14.4">s</tspan><tspan x="93.72" y="14.4">t se</tspan><tspan class="cls-57" x="114.39" y="14.4">r</tspan><tspan x="119.79" y="14.4">vi</tspan><tspan class="cls-58" x="130.35" y="14.4">c</tspan><tspan class="cls-30" x="136.32" y="14.4">e open</tspan><tspan x="0" y="28.8">RIX </tspan><tspan class="cls-11" x="22.39" y="28.8">E</tspan><tspan class="cls-43" x="29.22" y="28.8">x</tspan><tspan class="cls-30" x="35.63" y="28.8">chan</tspan><tspan class="cls-44" x="64.42" y="28.8">g</tspan><tspan class="cls-30" x="71.35" y="28.8">e se</tspan><tspan class="cls-59" x="93.96" y="28.8">r</tspan><tspan class="cls-30" x="99.36" y="28.8">vi</tspan><tspan class="cls-60" x="109.92" y="28.8">c</tspan><tspan x="115.88" y="28.8">e open </tspan></text></g></svg>