<svg xmlns="http://www.w3.org/2000/svg" viewBox="0 0 1200 180"><defs><style>.cls-1{fill:#ccc;}.cls-17,.cls-2,.cls-77{fill:#e13dae;}.cls-3,.cls-5{fill:#1d1b60;}.cls-12,.cls-4{fill:#ffa300;}.cls-5{font-size:15px;}.cls-34,.cls-5,.cls-61,.cls-73,.cls-75,.cls-77{font-family:NotoSansCJKkr-Bold-KSCpc-EUC-H, Noto Sans CJK KR;font-weight:700;}.cls-17,.cls-6{letter-spacing:-0.04em;}.cls-7{letter-spacing:-0.03em;}.cls-8{letter-spacing:-0.03em;}.cls-9{letter-spacing:-0.03em;}.cls-10{letter-spacing:-0.01em;}.cls-11{letter-spacing:-0.03em;}.cls-12{letter-spacing:-0.04em;}.cls-13{letter-spacing:-0.03em;}.cls-14{letter-spacing:-0.03em;}.cls-15{letter-spacing:-0.03em;}.cls-16{letter-spacing:-0.01em;}.cls-18{letter-spacing:-0.03em;}.cls-19{letter-spacing:0.01em;}.cls-20{letter-spacing:-0.02em;}.cls-21{letter-spacing:-0.03em;}.cls-22{letter-spacing:-0.03em;}.cls-23{letter-spacing:-0.03em;}.cls-24{letter-spacing:-0.03em;}.cls-25{fill:#666;}.cls-26{letter-spacing:0em;}.cls-27{letter-spacing:-0.01em;}.cls-28{letter-spacing:0em;}.cls-29{letter-spacing:0em;}.cls-30{letter-spacing:-0.01em;}.cls-31{letter-spacing:0em;}.cls-32{letter-spacing:-0.01em;}.cls-33{letter-spacing:0em;}.cls-34,.cls-61,.cls-73,.cls-75{font-size:12px;fill:#fff;}.cls-34{letter-spacing:-0.01em;}.cls-35{letter-spacing:0.01em;}.cls-36{letter-spacing:-0.02em;}.cls-37{letter-spacing:-0.02em;}.cls-38{letter-spacing:-0.02em;}.cls-39{letter-spacing:-0.03em;}.cls-40{letter-spacing:-0.03em;}.cls-41{letter-spacing:-0.03em;}.cls-42{letter-spacing:-0.02em;}.cls-43{letter-spacing:-0.02em;}.cls-44{letter-spacing:-0.02em;}.cls-45{letter-spacing:-0.01em;}.cls-46{letter-spacing:-0.04em;}.cls-47{letter-spacing:-0.03em;}.cls-48{letter-spacing:-0.02em;}.cls-49{letter-spacing:-0.03em;}.cls-50{letter-spacing:-0.03em;}.cls-51{letter-spacing:-0.03em;}.cls-52{letter-spacing:-0.03em;}.cls-53{letter-spacing:-0.03em;}.cls-54{letter-spacing:-0.05em;}.cls-55,.cls-75{letter-spacing:-0.02em;}.cls-56{letter-spacing:-0.03em;}.cls-57{letter-spacing:-0.03em;}.cls-58{letter-spacing:-0.01em;}.cls-59{letter-spacing:-0.04em;}.cls-60{letter-spacing:-0.03em;}.cls-61{letter-spacing:-0.03em;}.cls-62{letter-spacing:0.01em;}.cls-63{letter-spacing:-0.03em;}.cls-64{letter-spacing:-0.03em;}.cls-65{letter-spacing:-0.03em;}.cls-66{letter-spacing:-0.03em;}.cls-67{letter-spacing:-0.02em;}.cls-68{letter-spacing:-0.03em;}.cls-69{letter-spacing:-0.03em;}.cls-70{letter-spacing:-0.05em;}.cls-71{letter-spacing:-0.03em;}.cls-72{letter-spacing:-0.03em;}.cls-73{letter-spacing:-0.02em;}.cls-74{letter-spacing:-0.03em;}.cls-76{letter-spacing:-0.01em;}.cls-77{font-size:20px;letter-spacing:-0.02em;}.cls-78{letter-spacing:0em;}.cls-79{letter-spacing:-0.02em;}.cls-80{letter-spacing:-0.04em;}.cls-81{letter-spacing:-0.01em;}.cls-82{letter-spacing:-0.05em;}.cls-83{letter-spacing:-0.04em;}</style></defs><title>system2_3</title><g id="레이어_2" data-name="레이어 2"><rect class="cls-1" x="641.35" y="131.18" width="28" height="28" rx="3" ry="3"/><rect class="cls-1" x="602.84" y="131.18" width="28" height="28" rx="3" ry="3"/><rect class="cls-1" x="679.87" y="131.18" width="28" height="28" rx="3" ry="3"/><rect class="cls-1" x="718.38" y="131.18" width="28" height="28" rx="3" ry="3"/><rect class="cls-1" x="756.89" y="131.18" width="28" height="28" rx="3" ry="3"/><rect class="cls-1" x="795.4" y="131.18" width="28" height="28" rx="3" ry="3"/><rect class="cls-1" x="833.91" y="131.18" width="28" height="28" rx="3" ry="3"/><rect class="cls-1" x="872.42" y="131.18" width="28" height="28" rx="3" ry="3"/><rect class="cls-1" x="910.94" y="131.18" width="28" height="28" rx="3" ry="3"/><rect class="cls-1" x="949.45" y="131.18" width="28" height="28" rx="3" ry="3"/><rect class="cls-1" x="987.96" y="131.18" width="28" height="28" rx="3" ry="3"/><rect class="cls-1" x="1064.98" y="131.18" width="28" height="28" rx="3" ry="3"/><rect class="cls-1" x="1026.47" y="131.18" width="28" height="28" rx="3" ry="3"/><rect class="cls-1" x="1103.49" y="131.18" width="28" height="28" rx="3" ry="3"/><rect class="cls-1" x="1142" y="131.18" width="28" height="28" rx="3" ry="3"/><rect class="cls-2" x="800" y="91.18" width="177.33" height="28" rx="3" ry="3"/><rect class="cls-2" x="992.67" y="91.18" width="177.33" height="28" rx="3" ry="3"/><rect class="cls-3" x="215" y="11.17" width="955" height="28" rx="3" ry="3"/><rect class="cls-4" x="415" y="51.18" width="755" height="28" rx="3" ry="3"/><rect class="cls-4" x="215" y="51.18" width="184.55" height="28" rx="3" ry="3"/><rect class="cls-2" x="215" y="91.18" width="570" height="28" rx="3" ry="3"/><rect class="cls-1" x="415" y="131.18" width="177.33" height="28" rx="3" ry="3"/><text class="cls-5" transform="translate(30 30.11)"><tspan class="cls-6">P<tspan class="cls-7" x="9.43" y="0">o</tspan><tspan class="cls-8" x="18.39" y="0">l</tspan><tspan class="cls-9" x="22.71" y="0">i</tspan><tspan class="cls-10" x="26.81" y="0">c</tspan><tspan class="cls-11" x="34.52" y="0">y</tspan></tspan><tspan class="cls-12"><tspan x="0" y="40">L</tspan><tspan class="cls-13" x="8.11" y="40">i</tspan><tspan class="cls-14" x="12.22" y="40">q</tspan><tspan class="cls-15" x="21.46" y="40">u</tspan><tspan class="cls-13" x="30.58" y="40">i</tspan><tspan class="cls-15" x="34.69" y="40">di</tspan><tspan class="cls-16" x="48.04" y="40">t</tspan><tspan class="cls-11" x="54.23" y="40">y</tspan></tspan><tspan class="cls-17"><tspan x="0" y="80">P</tspan><tspan class="cls-18" x="9.43" y="80">o</tspan><tspan class="cls-19" x="18.42" y="80">r</tspan><tspan class="cls-20" x="25.08" y="80">t</tspan><tspan class="cls-21" x="31.15" y="80">f</tspan><tspan class="cls-22" x="36.28" y="80">o</tspan><tspan class="cls-23" x="45.24" y="80">l</tspan><tspan class="cls-24" x="49.57" y="80">i</tspan><tspan class="cls-11" x="53.67" y="80">o</tspan></tspan><tspan class="cls-25"><tspan class="cls-26" x="0" y="120">D</tspan><tspan class="cls-27" x="10.69" y="120">Q</tspan><tspan x="22.14" y="120">N </tspan><tspan class="cls-28" x="36.78" y="120">m</tspan><tspan class="cls-29" x="51.17" y="120">a</tspan><tspan class="cls-30" x="60" y="120">c</tspan><tspan class="cls-31" x="67.79" y="120">h</tspan><tspan class="cls-32" x="77.32" y="120">i</tspan><tspan class="cls-33" x="81.79" y="120">n</tspan><tspan x="91.4" y="120">e</tspan></tspan></text><text class="cls-34" transform="translate(225 30.11)">A<tspan class="cls-35" x="7.53" y="0">r</tspan><tspan class="cls-36" x="12.87" y="0">t</tspan><tspan class="cls-37" x="17.63" y="0">i</tspan><tspan class="cls-38" x="20.99" y="0">fi</tspan><tspan class="cls-39" x="29.07" y="0">c</tspan><tspan class="cls-40" x="34.98" y="0">i</tspan><tspan class="cls-41" x="38.23" y="0">a</tspan><tspan class="cls-42" x="44.98" y="0">l </tspan><tspan class="cls-43" x="50.89" y="0">n</tspan><tspan class="cls-44" x="58.29" y="0">e</tspan><tspan class="cls-45" x="64.99" y="0">t</tspan><tspan class="cls-46" x="69.88" y="0">w</tspan><tspan class="cls-47" x="79.79" y="0">o</tspan><tspan class="cls-48" x="87" y="0">r</tspan><tspan class="cls-42" x="91.99" y="0">k </tspan><tspan class="cls-49" x="101.38" y="0">f</tspan><tspan class="cls-50" x="105.5" y="0">o</tspan><tspan class="cls-51" x="112.7" y="0">r </tspan><tspan class="cls-52" x="120.06" y="0">m</tspan><tspan class="cls-53" x="131.28" y="0">a</tspan><tspan class="cls-48" x="138.06" y="0">r</tspan><tspan class="cls-54" x="143.05" y="0">k</tspan><tspan class="cls-55" x="149.74" y="0">e</tspan><tspan class="cls-42" x="156.45" y="0">t </tspan><tspan class="cls-36" x="163.61" y="0">p</tspan><tspan class="cls-56" x="171.06" y="0">o</tspan><tspan class="cls-42" x="178.24" y="0">l</tspan><tspan class="cls-57" x="181.72" y="0">i</tspan><tspan class="cls-58" x="185.02" y="0">c</tspan><tspan class="cls-42" x="191.2" y="0">y</tspan><tspan class="cls-59"><tspan x="0" y="40">U</tspan><tspan class="cls-60" x="8.45" y="40">S</tspan><tspan class="cls-42" x="15.6" y="40">D</tspan></tspan></text><text class="cls-61"><tspan x="425" y="70.11">C</tspan><tspan class="cls-62" x="432.53" y="70.11">r</tspan><tspan class="cls-63" x="437.91" y="70.11">y</tspan><tspan class="cls-51" x="444.47" y="70.11">p</tspan><tspan class="cls-64" x="451.9" y="70.11">t</tspan><tspan class="cls-42" x="456.58" y="70.11">o </tspan><tspan class="cls-65" x="466.22" y="70.11">c</tspan><tspan class="cls-66" x="472.12" y="70.11">u</tspan><tspan class="cls-67" x="479.43" y="70.11">r</tspan><tspan class="cls-68" x="484.42" y="70.11">r</tspan><tspan class="cls-36" x="489.3" y="70.11">e</tspan><tspan class="cls-43" x="495.99" y="70.11">n</tspan><tspan class="cls-58" x="503.39" y="70.11">c</tspan><tspan class="cls-42" x="509.57" y="70.11">y</tspan><tspan class="cls-69"><tspan x="425" y="110.11">B</tspan><tspan class="cls-70" x="432.84" y="110.11">T</tspan><tspan class="cls-42" x="439.79" y="110.11">C</tspan></tspan><tspan class="cls-71"><tspan x="425" y="150.11">Hi</tspan><tspan class="cls-42" x="437.04" y="150.11">d</tspan><tspan class="cls-72" x="444.47" y="150.11">d</tspan><tspan class="cls-36" x="451.89" y="150.11">e</tspan><tspan class="cls-51" x="458.58" y="150.11">n</tspan></tspan></text><text class="cls-73"><tspan x="810" y="110.11">E</tspan><tspan class="cls-74" x="817.12" y="110.11">T</tspan><tspan class="cls-51" x="824.24" y="110.11">H</tspan></text><text class="cls-75"><tspan x="1005.01" y="110.11">e</tspan><tspan class="cls-64" x="1011.71" y="110.11">t</tspan><tspan class="cls-76" x="1016.39" y="110.11">c</tspan><tspan class="cls-51" x="1022.56" y="110.11">.</tspan></text><text class="cls-77" transform="translate(506.75 -15.47)">3<tspan class="cls-78" x="11.46" y="0">차</tspan><tspan class="cls-11" x="29.79" y="0">원 </tspan><tspan class="cls-79" x="51.73" y="0">A</tspan><tspan class="cls-11" x="64.2" y="0">I </tspan><tspan class="cls-80" x="74.33" y="0">의</tspan><tspan class="cls-81" x="91.92" y="0">사</tspan><tspan class="cls-82" x="110.1" y="0">결</tspan><tspan class="cls-11" x="127.57" y="0">정 </tspan><tspan class="cls-83" x="150.57" y="0">엔</tspan><tspan class="cls-11" x="168.09" y="0">진</tspan></text></g></svg>