<svg xmlns="http://www.w3.org/2000/svg" viewBox="0 0 430 166.11"><defs><style>.cls-1{fill:#ccc;}.cls-2,.cls-68{fill:#e13dae;}.cls-3,.cls-5{fill:#1d1b60;}.cls-10,.cls-4{fill:#ffa300;}.cls-28,.cls-5,.cls-53,.cls-63,.cls-65{font-size:11px;}.cls-28,.cls-5,.cls-53,.cls-63,.cls-65,.cls-68{font-family:NotoSansCJKkr-Bold-KSCpc-EUC-H, Noto Sans CJK KR;font-weight:700;}.cls-5{letter-spacing:-0.03em;}.cls-6{letter-spacing:-0.02em;}.cls-7{letter-spacing:-0.02em;}.cls-8{letter-spacing:-0.02em;}.cls-9{letter-spacing:-0.01em;}.cls-10{letter-spacing:-0.03em;}.cls-11{letter-spacing:-0.02em;}.cls-12{letter-spacing:-0.02em;}.cls-13{letter-spacing:-0.02em;}.cls-14{letter-spacing:0em;}.cls-15{letter-spacing:-0.02em;}.cls-16{letter-spacing:0.01em;}.cls-17{letter-spacing:-0.01em;}.cls-18{letter-spacing:-0.02em;}.cls-19{letter-spacing:-0.02em;}.cls-20{letter-spacing:-0.02em;}.cls-21{fill:#666;letter-spacing:-0.02em;}.cls-22{letter-spacing:-0.03em;}.cls-23{letter-spacing:-0.02em;}.cls-24{letter-spacing:-0.03em;}.cls-25{letter-spacing:-0.02em;}.cls-26{letter-spacing:-0.03em;}.cls-27{letter-spacing:-0.02em;}.cls-28,.cls-53,.cls-63,.cls-65{fill:#fff;}.cls-28{letter-spacing:-0.03em;}.cls-29{letter-spacing:-0.01em;}.cls-30{letter-spacing:-0.04em;}.cls-31{letter-spacing:-0.05em;}.cls-32{letter-spacing:-0.04em;}.cls-33{letter-spacing:-0.06em;}.cls-34{letter-spacing:-0.05em;}.cls-35{letter-spacing:-0.05em;}.cls-36{letter-spacing:-0.05em;}.cls-37{letter-spacing:-0.05em;}.cls-38{letter-spacing:-0.03em;}.cls-39{letter-spacing:-0.06em;}.cls-40{letter-spacing:-0.05em;}.cls-41{letter-spacing:-0.04em;}.cls-42{letter-spacing:-0.05em;}.cls-43{letter-spacing:-0.05em;}.cls-44{letter-spacing:-0.07em;}.cls-45,.cls-65{letter-spacing:-0.04em;}.cls-46,.cls-53{letter-spacing:-0.05em;}.cls-47{letter-spacing:-0.04em;}.cls-48{letter-spacing:-0.05em;}.cls-49{letter-spacing:-0.05em;}.cls-50{letter-spacing:-0.03em;}.cls-51{letter-spacing:-0.06em;}.cls-52{letter-spacing:-0.05em;}.cls-54{letter-spacing:-0.01em;}.cls-55{letter-spacing:-0.05em;}.cls-56{letter-spacing:-0.05em;}.cls-57{letter-spacing:-0.05em;}.cls-58{letter-spacing:-0.06em;}.cls-59{letter-spacing:-0.04em;}.cls-60{letter-spacing:-0.05em;}.cls-61{letter-spacing:-0.07em;}.cls-62{letter-spacing:-0.05em;}.cls-63{letter-spacing:-0.04em;}.cls-64{letter-spacing:-0.05em;}.cls-66{letter-spacing:-0.05em;}.cls-67{letter-spacing:-0.03em;}.cls-68{font-size:20px;letter-spacing:-0.02em;}.cls-69{letter-spacing:0em;}.cls-70{letter-spacing:-0.03em;}.cls-71{letter-spacing:-0.02em;}.cls-72{letter-spacing:-0.04em;}.cls-73{letter-spacing:-0.01em;}.cls-74{letter-spacing:-0.05em;}.cls-75{letter-spacing:-0.04em;}</style></defs><title>system2_1</title><g id="레이어_2" data-name="레이어 2"><rect class="cls-1" x="226.53" y="126.18" width="9.16" height="28" rx="2.35" ry="2.35"/><rect class="cls-1" x="213.93" y="126.18" width="9.16" height="28" rx="2.35" ry="2.35"/><rect class="cls-1" x="239.14" y="126.18" width="9.16" height="28" rx="2.35" ry="2.35"/><rect class="cls-1" x="251.74" y="126.18" width="9.16" height="28" rx="2.35" ry="2.35"/><rect class="cls-1" x="264.35" y="126.18" width="9.16" height="28" rx="2.35" ry="2.35"/><rect class="cls-1" x="276.95" y="126.18" width="9.16" height="28" rx="2.35" ry="2.35"/><rect class="cls-1" x="289.56" y="126.18" width="9.16" height="28" rx="2.35" ry="2.35"/><rect class="cls-1" x="302.16" y="126.18" width="9.16" height="28" rx="2.35" ry="2.35"/><rect class="cls-1" x="314.77" y="126.18" width="9.16" height="28" rx="2.35" ry="2.35"/><rect class="cls-1" x="327.37" y="126.18" width="9.16" height="28" rx="2.35" ry="2.35"/><rect class="cls-1" x="339.97" y="126.18" width="9.16" height="28" rx="2.35" ry="2.35"/><rect class="cls-1" x="365.18" y="126.18" width="9.16" height="28" rx="2.35" ry="2.35"/><rect class="cls-1" x="352.58" y="126.18" width="9.16" height="28" rx="2.35" ry="2.35"/><rect class="cls-1" x="377.79" y="126.18" width="9.16" height="28" rx="2.35" ry="2.35"/><rect class="cls-1" x="390.39" y="126.18" width="9.16" height="28" rx="2.35" ry="2.35"/><rect class="cls-2" x="278.46" y="86.18" width="58.04" height="28" rx="2.62" ry="2.62"/><rect class="cls-2" x="341.52" y="86.18" width="58.04" height="28" rx="2.62" ry="2.62"/><rect class="cls-3" x="86.99" y="6.17" width="312.56" height="28" rx="2.62" ry="2.62"/><rect class="cls-4" x="152.45" y="46.17" width="247.1" height="28" rx="2.62" ry="2.62"/><rect class="cls-4" x="86.99" y="46.17" width="60.4" height="28" rx="2.62" ry="2.62"/><rect class="cls-2" x="86.99" y="86.18" width="186.56" height="28" rx="2.62" ry="2.62"/><rect class="cls-1" x="152.45" y="126.18" width="58.04" height="28" rx="2.35" ry="2.35"/><text class="cls-5" transform="translate(30 25.1)">P<tspan class="cls-6" x="6.98" y="0">o</tspan><tspan class="cls-7" x="13.61" y="0">l</tspan><tspan class="cls-8" x="16.83" y="0">i</tspan><tspan class="cls-9" x="19.9" y="0">c</tspan><tspan class="cls-8" x="25.61" y="0">y</tspan><tspan class="cls-10"><tspan x="0" y="40">L</tspan><tspan class="cls-8" x="6.01" y="40">i</tspan><tspan class="cls-11" x="9.08" y="40">q</tspan><tspan class="cls-12" x="15.91" y="40">u</tspan><tspan class="cls-8" x="22.66" y="40">i</tspan><tspan class="cls-13" x="25.73" y="40">di</tspan><tspan class="cls-14" x="35.64" y="40">t</tspan><tspan class="cls-8" x="40.23" y="40">y</tspan></tspan><tspan class="cls-2"><tspan x="0" y="80">P</tspan><tspan class="cls-15" x="6.98" y="80">o</tspan><tspan class="cls-16" x="13.62" y="80">r</tspan><tspan class="cls-17" x="18.56" y="80">t</tspan><tspan class="cls-18" x="23.07" y="80">f</tspan><tspan class="cls-19" x="26.89" y="80">o</tspan><tspan class="cls-20" x="33.52" y="80">l</tspan><tspan class="cls-8" x="36.75" y="80">io</tspan></tspan><tspan class="cls-21"><tspan x="0" y="120">D</tspan><tspan class="cls-22" x="7.62" y="120">Q</tspan><tspan class="cls-8" x="15.81" y="120">N m</tspan><tspan class="cls-23" x="36.32" y="120">a</tspan><tspan class="cls-24" x="42.59" y="120">c</tspan><tspan class="cls-25" x="48.08" y="120">h</tspan><tspan class="cls-26" x="54.85" y="120">i</tspan><tspan class="cls-27" x="57.92" y="120">n</tspan><tspan class="cls-8" x="64.74" y="120">e</tspan></tspan></text><text class="cls-28" transform="translate(96.99 25.1)">A<tspan class="cls-29" x="6.67" y="0">r</tspan><tspan class="cls-30" x="11.33" y="0">t</tspan><tspan class="cls-31" x="15.46" y="0">i</tspan><tspan class="cls-32" x="18.31" y="0">fi</tspan><tspan class="cls-33" x="25.49" y="0">c</tspan><tspan class="cls-34" x="30.68" y="0">i</tspan><tspan class="cls-35" x="33.43" y="0">a</tspan><tspan class="cls-36" x="39.39" y="0">l </tspan><tspan class="cls-37" x="44.25" y="0">n</tspan><tspan class="cls-32" x="50.8" y="0">e</tspan><tspan class="cls-38" x="56.72" y="0">t</tspan><tspan class="cls-39" x="60.96" y="0">w</tspan><tspan class="cls-40" x="69.83" y="0">o</tspan><tspan class="cls-41" x="76.2" y="0">r</tspan><tspan class="cls-36" x="80.54" y="0">k </tspan><tspan class="cls-42" x="88.6" y="0">f</tspan><tspan class="cls-40" x="92.15" y="0">o</tspan><tspan class="cls-36" x="98.52" y="0">r m</tspan><tspan class="cls-43" x="114.77" y="0">a</tspan><tspan class="cls-41" x="120.75" y="0">r</tspan><tspan class="cls-44" x="125.09" y="0">k</tspan><tspan class="cls-45" x="131" y="0">e</tspan><tspan class="cls-46" x="136.91" y="0">t </tspan><tspan class="cls-47" x="142.93" y="0">p</tspan><tspan class="cls-48" x="149.52" y="0">o</tspan><tspan class="cls-49" x="155.88" y="0">l</tspan><tspan class="cls-36" x="158.83" y="0">i</tspan><tspan class="cls-50" x="161.63" y="0">c</tspan><tspan class="cls-36" x="167.06" y="0">y</tspan><tspan class="cls-51"><tspan x="0" y="40">U</tspan><tspan class="cls-52" x="7.52" y="40">S</tspan><tspan class="cls-46" x="13.85" y="40">D</tspan></tspan></text><text class="cls-53"><tspan x="162.45" y="65.1">C</tspan><tspan class="cls-54" x="169.13" y="65.1">r</tspan><tspan class="cls-55" x="173.83" y="65.1">y</tspan><tspan class="cls-56" x="179.61" y="65.1">p</tspan><tspan class="cls-57" x="186.18" y="65.1">t</tspan><tspan class="cls-36" x="190.25" y="65.1">o </tspan><tspan class="cls-58" x="198.53" y="65.1">c</tspan><tspan class="cls-36" x="203.71" y="65.1">u</tspan><tspan class="cls-59" x="210.17" y="65.1">r</tspan><tspan class="cls-36" x="214.51" y="65.1">r</tspan><tspan class="cls-47" x="218.76" y="65.1">e</tspan><tspan class="cls-37" x="224.66" y="65.1">n</tspan><tspan class="cls-50" x="231.21" y="65.1">c</tspan><tspan class="cls-36" x="236.65" y="65.1">y</tspan><tspan class="cls-60"><tspan x="162.45" y="105.1">B</tspan><tspan class="cls-61" x="169.41" y="105.1">T</tspan><tspan class="cls-36" x="175.55" y="105.1">C</tspan></tspan><tspan class="cls-36"><tspan x="162.45" y="145.1">Hi</tspan><tspan class="cls-62" x="173.02" y="145.1">dd</tspan><tspan class="cls-47" x="186.17" y="145.1">e</tspan><tspan x="192.07" y="145.1">n</tspan></tspan></text><text class="cls-63"><tspan x="288.46" y="105.1">E</tspan><tspan class="cls-64" x="294.75" y="105.1">T</tspan><tspan class="cls-36" x="301.06" y="105.1">H</tspan></text><text class="cls-65"><tspan x="351.52" y="105.1">e</tspan><tspan class="cls-66" x="357.43" y="105.1">t</tspan><tspan class="cls-67" x="361.49" y="105.1">c</tspan><tspan class="cls-46" x="366.92" y="105.1">.</tspan></text><text class="cls-68" transform="translate(120.85 -15.02)">3<tspan class="cls-69" x="11.46" y="0">차</tspan><tspan class="cls-70" x="29.79" y="0">원 </tspan><tspan class="cls-71" x="51.73" y="0">A</tspan><tspan class="cls-70" x="64.2" y="0">I </tspan><tspan class="cls-72" x="74.33" y="0">의</tspan><tspan class="cls-73" x="91.92" y="0">사</tspan><tspan class="cls-74" x="110.1" y="0">결</tspan><tspan class="cls-70" x="127.57" y="0">정 </tspan><tspan class="cls-75" x="150.57" y="0">엔</tspan><tspan class="cls-70" x="168.09" y="0">진</tspan></text></g></svg>