<?xml version="1.0" encoding="utf-8"?>
<!-- Generator: Adobe Illustrator 21.1.0, SVG Export Plug-In . SVG Version: 6.00 Build 0)  -->
<svg version="1.1" id="Layer_1" xmlns="http://www.w3.org/2000/svg" xmlns:xlink="http://www.w3.org/1999/xlink" x="0px" y="0px"
	 viewBox="0 0 370 400" style="enable-background:new 0 0 370 400;" xml:space="preserve">
<style type="text/css">
	.st0{fill:#E13DAE;}
	.st1{fill:#1D1B60;}
	.st2{fill:#FFFFFF;}
</style>
<title>token2</title>
<g id="레이어_1">
	<path class="st0" d="M197,80.8v246.2H85.3V80.8H197 M198,79.8H84.3v248.2H198V79.8z"/>
	<path class="st1" d="M9,82.9h2v-6.6H9.4v-0.7c0.6-0.1,1.3-0.3,1.8-0.7H12v7.9h1.8v0.9H9V82.9z"/>
	<path class="st1" d="M14.5,79.4c0-3.1,1.1-4.5,2.8-4.5s2.7,1.5,2.7,4.5S18.9,84,17.3,84S14.5,82.5,14.5,79.4z M18.9,79.4
		c0-2.6-0.7-3.7-1.7-3.7s-1.7,1.1-1.7,3.7s0.7,3.7,1.7,3.7S18.9,82,18.9,79.4z"/>
	<path class="st1" d="M21.1,79.4c0-3.1,1.1-4.5,2.8-4.5s2.7,1.5,2.7,4.5S25.5,84,23.8,84S21.1,82.5,21.1,79.4z M25.5,79.4
		c0-2.6-0.7-3.7-1.7-3.7s-1.7,1.1-1.7,3.7s0.7,3.7,1.7,3.7S25.5,82,25.5,79.4z"/>
	<path class="st1" d="M27.5,77.6c0-1.8,0.8-2.8,2-2.8s2,1,2,2.8s-0.8,2.8-2,2.8S27.5,79.4,27.5,77.6z M30.6,77.6
		c0-1.4-0.5-2.1-1.2-2.1s-1.2,0.7-1.2,2.1s0.5,2.1,1.2,2.1S30.6,79,30.6,77.6z M34.5,74.9h0.7L30.4,84h-0.7L34.5,74.9z M33.5,81.2
		c0-1.8,0.8-2.8,2-2.8s2,1,2,2.8s-0.8,2.8-2,2.8S33.6,83,33.5,81.2L33.5,81.2z M36.7,81.2c0-1.4-0.5-2.1-1.2-2.1s-1.2,0.7-1.2,2.1
		s0.5,2.1,1.2,2.1S36.7,82.6,36.7,81.2L36.7,81.2z"/>
	<path class="st1" d="M15.3,107.4c0.4,0.4,0.9,0.7,1.5,0.7c1.1,0,2.1-0.9,2.2-3.7c-0.5,0.6-1.2,1-2,1.1c-1.5,0-2.4-0.9-2.4-2.8
		c-0.1-1.5,1-2.7,2.4-2.9c0,0,0,0,0,0c1.7,0,3,1.4,3,4.2c0,3.6-1.5,4.9-3.2,4.9c-0.8,0-1.6-0.3-2.1-0.9L15.3,107.4z M19,103.5
		c-0.1-1.8-0.8-2.8-1.9-2.8c-0.8,0-1.5,0.8-1.5,2s0.5,2,1.6,2C17.9,104.7,18.6,104.2,19,103.5z"/>
	<path class="st1" d="M21.1,104.4c0-3.1,1.1-4.5,2.8-4.5s2.7,1.5,2.7,4.5s-1.1,4.6-2.7,4.6S21.1,107.5,21.1,104.4z M25.5,104.4
		c0-2.6-0.7-3.7-1.7-3.7s-1.7,1.1-1.7,3.7s0.7,3.7,1.7,3.7S25.5,107,25.5,104.4z"/>
	<path class="st1" d="M27.5,102.6c0-1.8,0.8-2.8,2-2.8s2,1,2,2.8s-0.8,2.8-2,2.8S27.5,104.4,27.5,102.6z M30.6,102.6
		c0-1.4-0.5-2.1-1.2-2.1s-1.2,0.7-1.2,2.1s0.5,2.1,1.2,2.1S30.6,104,30.6,102.6z M34.5,99.9h0.7l-4.9,9.1h-0.7L34.5,99.9z
		 M33.5,106.2c0-1.8,0.8-2.8,2-2.8s2,1,2,2.8s-0.8,2.8-2,2.8S33.6,108,33.5,106.2L33.5,106.2z M36.7,106.2c0-1.4-0.5-2.1-1.2-2.1
		s-1.2,0.7-1.2,2.1s0.5,2.1,1.2,2.1S36.7,107.6,36.7,106.2L36.7,106.2z"/>
	<path class="st1" d="M14.6,131.6c0-1,0.7-2,1.6-2.4v-0.1c-0.7-0.4-1.2-1.2-1.2-2c0-1.2,1-2.2,2.2-2.2c0.1,0,0.1,0,0.2,0
		c1.2-0.1,2.3,0.8,2.4,2c0,0.1,0,0.2,0,0.3c-0.1,0.8-0.5,1.6-1.2,2.1v0.1c0.9,0.4,1.5,1.3,1.5,2.3c0,1.3-1.1,2.3-2.8,2.3
		c-1.4,0.2-2.6-0.8-2.8-2.2C14.6,131.7,14.6,131.7,14.6,131.6z M19.1,131.6c0-1.2-1.1-1.6-2.3-2.1c-0.7,0.4-1.2,1.2-1.2,2
		c0,0.9,0.8,1.7,1.8,1.6c0,0,0.1,0,0.1,0c0.8,0.1,1.6-0.5,1.7-1.3C19.1,131.8,19.1,131.7,19.1,131.6L19.1,131.6z M18.9,127.2
		c0.1-0.8-0.6-1.5-1.4-1.6c0,0-0.1,0-0.1,0c-0.7,0-1.4,0.5-1.4,1.3c0,0.1,0,0.1,0,0.2c0,1.1,1,1.5,2,1.9
		C18.5,128.6,18.9,128,18.9,127.2L18.9,127.2z"/>
	<path class="st1" d="M21.1,129.4c0-3.1,1.1-4.5,2.8-4.5s2.7,1.5,2.7,4.5c0,3-1.1,4.6-2.7,4.6S21.1,132.5,21.1,129.4z M25.5,129.4
		c0-2.6-0.7-3.7-1.7-3.7s-1.7,1.1-1.7,3.7c0,2.6,0.7,3.7,1.7,3.7S25.5,132,25.5,129.4z"/>
	<path class="st1" d="M27.5,127.6c0-1.8,0.8-2.8,2-2.8s2,1,2,2.8s-0.8,2.8-2,2.8S27.5,129.4,27.5,127.6z M30.6,127.6
		c0-1.4-0.5-2.1-1.2-2.1s-1.2,0.7-1.2,2.1s0.5,2.1,1.2,2.1S30.6,129,30.6,127.6z M34.5,124.9h0.7l-4.9,9.1h-0.7L34.5,124.9z
		 M33.5,131.2c0-1.8,0.8-2.8,2-2.8s2,1,2,2.8s-0.8,2.8-2,2.8S33.6,133,33.5,131.2L33.5,131.2z M36.7,131.2c0-1.4-0.5-2.1-1.2-2.1
		s-1.2,0.7-1.2,2.1s0.5,2.1,1.2,2.1S36.7,132.6,36.7,131.2L36.7,131.2z"/>
	<path class="st1" d="M19.3,151H15v-1h5.5v0.7c-2.1,2.6-2.5,4.7-2.6,8.1h-1.1C16.8,156,17.6,153.3,19.3,151z"/>
	<path class="st1" d="M21.1,154.4c0-3.1,1.1-4.5,2.8-4.5s2.7,1.5,2.7,4.5s-1.1,4.6-2.7,4.6S21.1,157.5,21.1,154.4z M25.5,154.4
		c0-2.6-0.7-3.6-1.7-3.6s-1.7,1.1-1.7,3.6s0.7,3.7,1.7,3.7S25.5,157,25.5,154.4z"/>
	<path class="st1" d="M27.5,152.6c0-1.8,0.8-2.8,2-2.8s2,1,2,2.8s-0.8,2.8-2,2.8S27.5,154.4,27.5,152.6z M30.6,152.6
		c0-1.4-0.5-2.1-1.2-2.1s-1.2,0.7-1.2,2.1s0.5,2.1,1.2,2.1S30.6,154,30.6,152.6z M34.5,149.9h0.7l-4.9,9.1h-0.7L34.5,149.9z
		 M33.5,156.2c0-1.8,0.8-2.8,2-2.8s2,1,2,2.8s-0.8,2.8-2,2.8S33.6,158,33.5,156.2L33.5,156.2z M36.7,156.2c0-1.4-0.5-2.1-1.2-2.1
		s-1.2,0.7-1.2,2.1s0.5,2.1,1.2,2.1S36.7,157.6,36.7,156.2L36.7,156.2z"/>
	<path class="st1" d="M19.4,176.4c-0.4-0.4-0.9-0.7-1.4-0.7c-1.2,0-2.2,0.9-2.3,3.7c0.5-0.6,1.2-1,2-1.1c1.5,0,2.4,0.9,2.4,2.8
		c0.1,1.5-0.9,2.7-2.4,2.9c0,0-0.1,0-0.1,0c-1.7,0-2.9-1.4-2.9-4.4c0-3.4,1.5-4.8,3.2-4.8c0.8,0,1.5,0.3,2,0.9L19.4,176.4z
		 M19.1,181.1c0-1.2-0.5-1.9-1.6-1.9c-0.7,0.1-1.4,0.5-1.8,1.1c0.1,1.8,0.8,2.8,1.9,2.8C18.5,183.1,19.1,182.3,19.1,181.1
		L19.1,181.1z"/>
	<path class="st1" d="M21.1,179.4c0-3.1,1.1-4.5,2.8-4.5s2.7,1.5,2.7,4.5s-1.1,4.6-2.7,4.6S21.1,182.5,21.1,179.4z M25.5,179.4
		c0-2.6-0.7-3.6-1.7-3.6s-1.7,1.1-1.7,3.6s0.7,3.7,1.7,3.7S25.5,182,25.5,179.4z"/>
	<path class="st1" d="M27.5,177.6c0-1.8,0.8-2.8,2-2.8s2,1,2,2.8s-0.8,2.8-2,2.8S27.5,179.4,27.5,177.6z M30.6,177.6
		c0-1.4-0.5-2.1-1.2-2.1s-1.2,0.7-1.2,2.1s0.5,2.1,1.2,2.1S30.6,179,30.6,177.6z M34.5,174.9h0.7l-4.9,9.1h-0.7L34.5,174.9z
		 M33.5,181.2c0-1.8,0.8-2.8,2-2.8s2,1,2,2.8s-0.8,2.8-2,2.8S33.6,183,33.5,181.2L33.5,181.2z M36.7,181.2c0-1.4-0.5-2.1-1.2-2.1
		s-1.2,0.7-1.2,2.1s0.5,2.1,1.2,2.1S36.7,182.6,36.7,181.2L36.7,181.2z"/>
	<path class="st1" d="M14.4,207.8l0.5-0.7c0.5,0.6,1.3,1,2.2,1c1,0,1.9-0.9,1.9-1.9c0-0.1,0-0.1,0-0.2c0.1-1-0.6-1.9-1.5-2
		c-0.1,0-0.2,0-0.3,0c-0.5,0-1,0.2-1.5,0.5l-0.6-0.4l0.3-4.2h4.3v1h-3.3l-0.2,2.5c0.4-0.2,0.8-0.4,1.3-0.4c1.4-0.1,2.6,1,2.7,2.3
		c0,0.2,0,0.3,0,0.5c0.1,1.6-1.1,2.9-2.7,3c-0.1,0-0.1,0-0.2,0C16.2,209,15.1,208.6,14.4,207.8z"/>
	<path class="st1" d="M21.1,204.4c0-3.1,1.1-4.5,2.8-4.5s2.7,1.5,2.7,4.5s-1.1,4.6-2.7,4.6S21.1,207.5,21.1,204.4z M25.5,204.4
		c0-2.6-0.7-3.6-1.7-3.6s-1.7,1.1-1.7,3.6s0.7,3.7,1.7,3.7S25.5,207,25.5,204.4z"/>
	<path class="st1" d="M27.5,202.6c0-1.8,0.8-2.8,2-2.8s2,1,2,2.8s-0.8,2.8-2,2.8S27.5,204.4,27.5,202.6z M30.6,202.6
		c0-1.4-0.5-2.1-1.2-2.1s-1.2,0.7-1.2,2.1s0.5,2.1,1.2,2.1S30.6,204,30.6,202.6z M34.5,199.9h0.7l-4.9,9.1h-0.7L34.5,199.9z
		 M33.5,206.2c0-1.8,0.8-2.8,2-2.8s2,1,2,2.8s-0.8,2.8-2,2.8S33.6,208,33.5,206.2L33.5,206.2z M36.7,206.2c0-1.4-0.5-2.1-1.2-2.1
		s-1.2,0.7-1.2,2.1s0.5,2.1,1.2,2.1S36.7,207.6,36.7,206.2L36.7,206.2z"/>
	<path class="st1" d="M20.2,231.4h-1.2v2.4H18v-2.4h-3.8v-0.7l3.7-5.7h1.2v5.5h1.2L20.2,231.4z M18,230.5v-2.7c0-0.4,0-1.1,0.1-1.6
		l0,0c-0.2,0.4-0.5,0.9-0.7,1.3l-2,3H18z"/>
	<path class="st1" d="M21.1,229.4c0-3.1,1.1-4.5,2.8-4.5s2.7,1.5,2.7,4.5s-1.1,4.6-2.7,4.6S21.1,232.5,21.1,229.4z M25.5,229.4
		c0-2.6-0.7-3.6-1.7-3.6s-1.7,1.1-1.7,3.6s0.7,3.7,1.7,3.7S25.5,232,25.5,229.4z"/>
	<path class="st1" d="M27.5,227.6c0-1.8,0.8-2.8,2-2.8s2,1,2,2.8s-0.8,2.8-2,2.8S27.5,229.4,27.5,227.6z M30.6,227.6
		c0-1.4-0.5-2.1-1.2-2.1s-1.2,0.7-1.2,2.1s0.5,2.1,1.2,2.1S30.6,229,30.6,227.6z M34.5,224.9h0.7l-4.9,9.1h-0.7L34.5,224.9z
		 M33.5,231.2c0-1.8,0.8-2.8,2-2.8s2,1,2,2.8s-0.8,2.8-2,2.8S33.6,233,33.5,231.2L33.5,231.2z M36.7,231.2c0-1.4-0.5-2.1-1.2-2.1
		s-1.2,0.7-1.2,2.1s0.5,2.1,1.2,2.1S36.7,232.6,36.7,231.2L36.7,231.2z"/>
	<path class="st1" d="M14.4,257.8l0.6-0.7c0.5,0.6,1.3,1,2.2,1c0.9,0.1,1.7-0.6,1.8-1.4c0-0.1,0-0.1,0-0.2c0-1.1-0.7-1.8-2.7-1.8
		v-0.8c1.8,0,2.4-0.7,2.4-1.7c0-0.8-0.6-1.4-1.3-1.4c-0.1,0-0.1,0-0.2,0c-0.7,0.1-1.3,0.4-1.8,0.9l-0.6-0.7c0.6-0.7,1.5-1,2.5-1.1
		c1.5,0,2.5,0.8,2.5,2.2c0,1-0.6,1.8-1.6,2.1l0,0c1.1,0.2,1.9,1.1,1.9,2.2c0,1.4-1.1,2.6-2.5,2.6c-0.1,0-0.2,0-0.3,0
		C16.2,259,15.1,258.6,14.4,257.8z"/>
	<path class="st1" d="M21.1,254.4c0-3.1,1.1-4.5,2.8-4.5s2.7,1.5,2.7,4.5c0,3-1.1,4.6-2.7,4.6S21.1,257.5,21.1,254.4z M25.5,254.4
		c0-2.6-0.7-3.6-1.7-3.6s-1.7,1.1-1.7,3.6c0,2.6,0.7,3.7,1.7,3.7S25.5,257,25.5,254.4z"/>
	<path class="st1" d="M27.5,252.6c0-1.8,0.8-2.8,2-2.8s2,1,2,2.8s-0.8,2.8-2,2.8S27.5,254.4,27.5,252.6z M30.6,252.6
		c0-1.4-0.5-2.1-1.2-2.1s-1.2,0.7-1.2,2.1s0.5,2.1,1.2,2.1S30.6,254,30.6,252.6z M34.5,249.9h0.7l-4.9,9.1h-0.7L34.5,249.9z
		 M33.5,256.2c0-1.8,0.8-2.8,2-2.8s2,1,2,2.8c0,1.8-0.8,2.8-2,2.8S33.6,258,33.5,256.2L33.5,256.2z M36.7,256.2
		c0-1.4-0.5-2.1-1.2-2.1s-1.2,0.7-1.2,2.1s0.5,2.1,1.2,2.1S36.7,257.6,36.7,256.2L36.7,256.2z"/>
	<path class="st1" d="M14.8,283.2c2.8-2.4,4-4.2,4-5.7c0.1-0.8-0.5-1.6-1.3-1.7c-0.1,0-0.2,0-0.3,0c-0.7,0-1.4,0.4-1.8,1l-0.6-0.6
		c0.6-0.8,1.6-1.3,2.6-1.3c1.3-0.1,2.5,0.9,2.6,2.3c0,0.1,0,0.2,0,0.3c0,1.8-1.4,3.5-3.4,5.5c0.5,0,1-0.1,1.4-0.1h2.4v1h-5.5V283.2z
		"/>
	<path class="st1" d="M21.1,279.4c0-3.1,1.1-4.5,2.8-4.5s2.7,1.5,2.7,4.5s-1.1,4.6-2.7,4.6S21.1,282.5,21.1,279.4z M25.5,279.4
		c0-2.6-0.7-3.6-1.7-3.6s-1.7,1.1-1.7,3.6s0.7,3.7,1.7,3.7S25.5,282,25.5,279.4z"/>
	<path class="st1" d="M27.5,277.6c0-1.8,0.8-2.8,2-2.8s2,1,2,2.8s-0.8,2.8-2,2.8S27.5,279.4,27.5,277.6z M30.6,277.6
		c0-1.4-0.5-2.1-1.2-2.1s-1.2,0.7-1.2,2.1s0.5,2.1,1.2,2.1S30.6,279,30.6,277.6z M34.5,274.9h0.7l-4.9,9.1h-0.7L34.5,274.9z
		 M33.5,281.2c0-1.8,0.8-2.8,2-2.8s2,1,2,2.8s-0.8,2.8-2,2.8S33.6,283,33.5,281.2L33.5,281.2z M36.7,281.2c0-1.4-0.5-2.1-1.2-2.1
		s-1.2,0.7-1.2,2.1s0.5,2.1,1.2,2.1S36.7,282.6,36.7,281.2L36.7,281.2z"/>
	<path class="st1" d="M15.5,307.9h2v-6.6h-1.6v-0.7c0.6-0.1,1.3-0.3,1.8-0.6h0.8v7.9h1.8v0.9h-4.8V307.9z"/>
	<path class="st1" d="M21.1,304.4c0-3.1,1.1-4.5,2.8-4.5s2.7,1.5,2.7,4.5s-1.1,4.6-2.7,4.6S21.1,307.5,21.1,304.4z M25.5,304.4
		c0-2.6-0.7-3.6-1.7-3.6s-1.7,1.1-1.7,3.6s0.7,3.7,1.7,3.7S25.5,307,25.5,304.4z"/>
	<path class="st1" d="M27.5,302.6c0-1.8,0.8-2.8,2-2.8s2,1,2,2.8s-0.8,2.8-2,2.8S27.5,304.4,27.5,302.6z M30.6,302.6
		c0-1.4-0.5-2.1-1.2-2.1s-1.2,0.7-1.2,2.1s0.5,2.1,1.2,2.1S30.6,304,30.6,302.6z M34.5,299.9h0.7l-4.9,9.1h-0.7L34.5,299.9z
		 M33.5,306.2c0-1.8,0.8-2.8,2-2.8s2,1,2,2.8s-0.8,2.8-2,2.8S33.6,308,33.5,306.2L33.5,306.2z M36.7,306.2c0-1.4-0.5-2.1-1.2-2.1
		s-1.2,0.7-1.2,2.1s0.5,2.1,1.2,2.1S36.7,307.6,36.7,306.2L36.7,306.2z"/>
	<path class="st1" d="M21.1,329.4c0-3.1,1.1-4.5,2.8-4.5s2.7,1.5,2.7,4.5s-1.1,4.6-2.7,4.6S21.1,332.5,21.1,329.4z M25.5,329.4
		c0-2.6-0.7-3.6-1.7-3.6s-1.7,1.1-1.7,3.6s0.7,3.7,1.7,3.7S25.5,332,25.5,329.4z"/>
	<path class="st1" d="M27.5,327.6c0-1.8,0.8-2.8,2-2.8s2,1,2,2.8s-0.8,2.8-2,2.8S27.5,329.4,27.5,327.6z M30.6,327.6
		c0-1.4-0.5-2.1-1.2-2.1s-1.2,0.7-1.2,2.1s0.5,2.1,1.2,2.1S30.6,329,30.6,327.6z M34.5,324.9h0.7l-4.9,9.1h-0.7L34.5,324.9z
		 M33.5,331.2c0-1.8,0.8-2.8,2-2.8s2,1,2,2.8s-0.8,2.8-2,2.8S33.6,333,33.5,331.2L33.5,331.2z M36.7,331.2c0-1.4-0.5-2.1-1.2-2.1
		s-1.2,0.7-1.2,2.1s0.5,2.1,1.2,2.1S36.7,332.6,36.7,331.2L36.7,331.2z"/>
	<path class="st0" d="M329.8,80.8v246.2H218.2V80.8H329.8 M330.8,79.8H217.2v248.2h113.6V79.8z"/>
	<rect x="84.4" y="154.1" class="st0" width="113.6" height="173.8"/>
	<rect x="217.2" y="154.3" class="st0" width="113.6" height="173.6"/>
	<path class="st0" d="M118,111.8h3.2v-9.4h-2.7v-1.8c1.2-0.2,2.4-0.6,3.5-1.2h2.2v12.4h2.8v2.4h-9V111.8z"/>
	<path class="st0" d="M128.8,116.8c1.5-0.6,2.4-1.6,2.4-2.7H131c-1,0.1-1.8-0.7-1.8-1.6c0,0,0-0.1,0-0.1c0-1,0.8-1.8,1.8-1.7
		c0,0,0.1,0,0.1,0c1.4,0,2.1,1.1,2.1,2.9c0,2.3-1.5,4.4-3.8,4.9L128.8,116.8z"/>
	<path class="st0" d="M134.8,110.5c0-1.7,1-3.2,2.5-3.9v-0.1c-1.2-0.8-2-2.1-2-3.5c0-2.4,1.9-3.9,4.5-3.9s4.3,1.6,4.3,3.9
		c-0.1,1.4-0.8,2.6-1.9,3.4v0.1c1.5,0.7,2.5,2.3,2.5,4c0,2.2-2,4-5,4C136.9,114.4,134.8,112.8,134.8,110.5z M142,110.4
		c0-1.5-1.4-2.2-3.3-3c-0.8,0.7-1.3,1.7-1.4,2.7c0,1.3,1.1,2.2,2.3,2.2c0.1,0,0.1,0,0.2,0c1.1,0.1,2-0.6,2.2-1.7
		C142,110.6,142,110.5,142,110.4L142,110.4z M141.7,103.2c0.1-1-0.7-2-1.7-2.1c-0.1,0-0.2,0-0.3,0c-0.9,0-1.7,0.7-1.8,1.7
		c0,0,0,0.1,0,0.1c0,1.4,1.1,2.1,2.7,2.7C141.4,105,141.7,104.2,141.7,103.2L141.7,103.2z"/>
	<path class="st0" d="M146.1,106.7c0-5.1,2-7.6,5-7.6s5,2.5,5,7.6s-2,7.7-5,7.7S146.1,111.8,146.1,106.7z M153.4,106.7
		c0-4.1-1-5.3-2.2-5.3s-2.2,1.2-2.2,5.3s1,5.4,2.2,5.4S153.4,110.9,153.4,106.7L153.4,106.7z"/>
	<path class="st0" d="M157.7,106.7c0-5.1,2-7.6,5-7.6s5,2.5,5,7.6s-2,7.7-5,7.7S157.7,111.8,157.7,106.7z M165,106.7
		c0-4.1-1-5.3-2.2-5.3s-2.2,1.2-2.2,5.3s1,5.4,2.2,5.4S165,110.9,165,106.7L165,106.7z"/>
	<path class="st0" d="M243.9,123.4h3.1V114h-2.7v-1.8c1.2-0.2,2.4-0.6,3.4-1.2h2.2v12.4h2.8v2.4h-8.9L243.9,123.4z"/>
	<path class="st0" d="M254.3,124.1c4-3.6,6.4-6.4,6.4-8.7c0.2-1.2-0.7-2.2-1.8-2.4c-0.1,0-0.3,0-0.4,0c-1.1,0.1-2.1,0.7-2.7,1.5
		l-1.6-1.6c1.1-1.4,2.9-2.2,4.7-2.2c2.4-0.2,4.5,1.6,4.7,4c0,0.2,0,0.4,0,0.6c0,2.7-2.2,5.6-4.9,8.2c0.7-0.1,1.7-0.2,2.4-0.2h3.2
		v2.5h-9.9V124.1z"/>
	<path class="st0" d="M266,128.4c1.5-0.6,2.4-1.6,2.4-2.7h-0.2c-1,0.1-1.8-0.7-1.8-1.6c0,0,0-0.1,0-0.1c0-1,0.8-1.8,1.8-1.7
		c0,0,0.1,0,0.1,0c1.4,0,2.1,1.1,2.1,2.9c0,2.3-1.6,4.3-3.8,4.9L266,128.4z"/>
	<path class="st0" d="M271.7,118.3c0-5.1,2-7.6,5-7.6s5,2.5,5,7.6s-2,7.7-5,7.7S271.7,123.4,271.7,118.3z M278.9,118.3
		c0-4.1-1-5.3-2.2-5.3s-2.2,1.2-2.2,5.3s1,5.4,2.2,5.4S278.9,122.5,278.9,118.3z"/>
	<path class="st0" d="M283.2,118.3c0-5.1,2-7.6,5-7.6s5,2.5,5,7.6s-2,7.7-5,7.7S283.2,123.4,283.2,118.3z M290.5,118.3
		c0-4.1-1-5.3-2.2-5.3s-2.2,1.2-2.2,5.3s1,5.4,2.2,5.4S290.5,122.5,290.5,118.3z"/>
	<path class="st0" d="M294.8,118.3c0-5.1,2-7.6,5-7.6s5,2.5,5,7.6s-2,7.7-5,7.7S294.8,123.4,294.8,118.3z M302.1,118.3
		c0-4.1-1-5.3-2.2-5.3s-2.2,1.2-2.2,5.3s1,5.4,2.2,5.4S302.1,122.5,302.1,118.3z"/>
	<path class="st2" d="M127.7,227.6H126v3.8h-2.7v-3.8H117v-2l5.5-9h3.5v8.7h1.8L127.7,227.6z M123.2,225.3v-3c0-0.9,0.1-2.2,0.1-3.1
		h-0.1c-0.4,0.8-0.8,1.6-1.2,2.4l-2.3,3.7L123.2,225.3z"/>
	<path class="st2" d="M128.6,234.1c1.5-0.6,2.4-1.6,2.4-2.7h-0.2c-1,0.1-1.8-0.7-1.8-1.6c0,0,0-0.1,0-0.1c0-1,0.8-1.8,1.8-1.7
		c0,0,0.1,0,0.1,0c1.4,0,2.1,1.1,2.1,2.9c0,2.3-1.5,4.4-3.8,4.9L128.6,234.1z"/>
	<path class="st2" d="M134.8,229.7c4-3.6,6.4-6.4,6.4-8.7c0.2-1.2-0.7-2.2-1.8-2.4c-0.1,0-0.3,0-0.4,0c-1.1,0.1-2.1,0.7-2.7,1.5
		l-1.6-1.6c1.1-1.4,2.9-2.2,4.7-2.2c2.4-0.2,4.5,1.6,4.7,4c0,0.2,0,0.4,0,0.6c0,2.7-2.2,5.6-4.9,8.2c0.7-0.1,1.7-0.2,2.4-0.2h3.2
		v2.5h-9.9L134.8,229.7z"/>
	<path class="st2" d="M146,223.9c0-5.1,2-7.6,5-7.6s5,2.5,5,7.6s-2,7.7-5,7.7S146,229,146,223.9z M153.2,223.9c0-4.1-1-5.3-2.2-5.3
		s-2.2,1.2-2.2,5.3s1,5.4,2.2,5.4S153.2,228.1,153.2,223.9L153.2,223.9z"/>
	<path class="st2" d="M157.6,223.9c0-5.1,2-7.6,5-7.6s5,2.5,5,7.6s-2,7.7-5,7.7S157.6,229,157.6,223.9z M164.8,223.9
		c0-4.1-1-5.3-2.2-5.3s-2.2,1.2-2.2,5.3s1,5.4,2.2,5.4S164.8,228.1,164.8,223.9L164.8,223.9z"/>
	<path class="st2" d="M243.2,241.4c4-3.6,6.4-6.4,6.4-8.7c0.2-1.2-0.7-2.2-1.8-2.4c-0.1,0-0.3,0-0.4,0c-1.1,0.1-2.1,0.7-2.7,1.5
		l-1.6-1.6c1.1-1.4,2.9-2.2,4.7-2.2c2.4-0.2,4.5,1.6,4.7,4c0,0.2,0,0.4,0,0.6c0,2.7-2.2,5.6-4.9,8.2c0.7-0.1,1.7-0.2,2.4-0.2h3.2
		v2.5h-9.9L243.2,241.4z"/>
	<path class="st2" d="M254.5,239.4c0-1.7,1-3.2,2.5-3.9v-0.1c-1.2-0.8-2-2.1-2-3.5c0-2.4,1.9-3.9,4.5-3.9s4.3,1.6,4.3,3.9
		c-0.1,1.4-0.8,2.6-1.9,3.4v0.1c1.5,0.7,2.5,2.3,2.5,4c0,2.2-2,4-5,4C256.6,243.4,254.5,241.8,254.5,239.4z M261.7,239.3
		c0-1.5-1.4-2.2-3.3-3c-0.8,0.7-1.3,1.7-1.4,2.7c0,1.3,1.1,2.2,2.3,2.2c0.1,0,0.1,0,0.2,0c1.1,0.1,2-0.6,2.1-1.7
		C261.7,239.5,261.7,239.4,261.7,239.3L261.7,239.3z M261.5,232.2c0.1-1-0.7-2-1.7-2.1c-0.1,0-0.2,0-0.3,0c-0.9,0-1.8,0.7-1.8,1.6
		c0,0.1,0,0.1,0,0.2c0,1.4,1.1,2.1,2.7,2.7C261,234,261.4,233.1,261.5,232.2L261.5,232.2z"/>
	<path class="st2" d="M265.9,245.8c1.5-0.6,2.4-1.6,2.4-2.7h-0.2c-1,0.1-1.8-0.7-1.8-1.6c0,0,0-0.1,0-0.1c0-1,0.8-1.8,1.8-1.7
		c0,0,0.1,0,0.1,0c1.4,0,2.1,1.1,2.1,2.9c0,2.3-1.5,4.4-3.8,4.9L265.9,245.8z"/>
	<path class="st2" d="M271.6,235.6c0-5.1,2-7.6,5-7.6s5,2.5,5,7.6s-2,7.7-5,7.7S271.6,240.8,271.6,235.6z M278.8,235.6
		c0-4.1-1-5.3-2.2-5.3s-2.2,1.2-2.2,5.3s1,5.4,2.2,5.4S278.8,239.8,278.8,235.6z"/>
	<path class="st2" d="M283.1,235.6c0-5.1,2-7.6,5-7.6s5,2.5,5,7.6s-2,7.7-5,7.7S283.1,240.8,283.1,235.6z M290.4,235.6
		c0-4.1-1-5.3-2.2-5.3s-2.2,1.2-2.2,5.3s1,5.4,2.2,5.4S290.4,239.8,290.4,235.6L290.4,235.6z"/>
	<path class="st2" d="M294.7,235.6c0-5.1,2-7.6,5-7.6s5,2.5,5,7.6s-2,7.7-5,7.7S294.7,240.8,294.7,235.6z M302,235.6
		c0-4.1-1-5.3-2.2-5.3s-2.2,1.2-2.2,5.3s1,5.4,2.2,5.4S302,239.8,302,235.6L302,235.6z"/>
	<path class="st1" d="M350,328.4H52.6c-0.3,0-0.5-0.2-0.5-0.5V79.8c0-0.3,0.2-0.5,0.5-0.5s0.5,0.2,0.5,0.5v247.7H350
		c0.3,0,0.5,0.2,0.5,0.5S350.3,328.4,350,328.4z"/>
	<path class="st1" d="M52.6,129.9H46c-0.3,0-0.5-0.2-0.5-0.5s0.2-0.5,0.5-0.5h6.6c0.3,0,0.5,0.2,0.5,0.5S52.9,129.9,52.6,129.9z"/>
	<path class="st1" d="M52.6,328.4H46c-0.3,0-0.5-0.2-0.5-0.5s0.2-0.5,0.5-0.5h6.6c0.3,0,0.5,0.2,0.5,0.5S52.9,328.4,52.6,328.4z"/>
	<path class="st1" d="M52.6,303.6H46c-0.3,0-0.5-0.2-0.5-0.5s0.2-0.5,0.5-0.5h6.6c0.3,0,0.5,0.2,0.5,0.5S52.9,303.6,52.6,303.6z"/>
	<path class="st1" d="M52.6,278.8H46c-0.3,0-0.5-0.2-0.5-0.5s0.2-0.5,0.5-0.5h6.6c0.3,0,0.5,0.2,0.5,0.5S52.9,278.8,52.6,278.8z"/>
	<path class="st1" d="M52.6,254H46c-0.3,0-0.5-0.2-0.5-0.5s0.2-0.5,0.5-0.5h6.6c0.3,0,0.5,0.2,0.5,0.5S52.9,254,52.6,254z"/>
	<path class="st1" d="M52.6,229.1H46c-0.3,0-0.5-0.2-0.5-0.5s0.2-0.5,0.5-0.5h6.6c0.3,0,0.5,0.2,0.5,0.5S52.9,229.1,52.6,229.1z"/>
	<path class="st1" d="M52.6,204.3H46c-0.3,0-0.5-0.2-0.5-0.5s0.2-0.5,0.5-0.5h6.6c0.3,0,0.5,0.2,0.5,0.5S52.9,204.3,52.6,204.3z"/>
	<path class="st1" d="M52.6,179.5H46c-0.3,0-0.5-0.2-0.5-0.5s0.2-0.5,0.5-0.5h6.6c0.3,0,0.5,0.2,0.5,0.5S52.9,179.5,52.6,179.5z"/>
	<path class="st1" d="M52.6,154.7H46c-0.3,0-0.5-0.2-0.5-0.5s0.2-0.5,0.5-0.5h6.6c0.3,0,0.5,0.2,0.5,0.5S52.9,154.7,52.6,154.7z"/>
	<path class="st1" d="M52.6,105.1H46c-0.3,0-0.5-0.2-0.5-0.5s0.2-0.5,0.5-0.5h6.6c0.3,0,0.5,0.2,0.5,0.5S52.9,105.1,52.6,105.1z"/>
	<path class="st1" d="M52.6,80.2H46c-0.3,0-0.5-0.2-0.5-0.5s0.2-0.5,0.5-0.5h6.6c0.3,0,0.5,0.2,0.5,0.5S52.9,80.2,52.6,80.2z"/>
</g>
<path class="st0" d="M120.8,38.4h-4v-1.5h5.9V38c-2.1,2.5-2.3,4.3-2.5,7.8h-1.8C118.4,43.1,119.3,40.5,120.8,38.4z"/>
<path class="st0" d="M123.3,41.3c0-3.1,1.2-4.6,3-4.6c1.8,0,3,1.5,3,4.6s-1.2,4.6-3,4.6S123.3,44.4,123.3,41.3z M127.7,41.3
	c0-2.5-0.6-3.2-1.3-3.2s-1.3,0.7-1.3,3.2s0.6,3.3,1.3,3.3S127.7,43.8,127.7,41.3z"/>
<path class="st0" d="M130.1,39.5c0-1.8,0.9-2.8,2.2-2.8s2.2,1,2.2,2.8s-0.9,2.8-2.2,2.8S130.1,41.3,130.1,39.5z M133.2,39.5
	c0-1.3-0.4-1.8-0.9-1.8s-0.9,0.5-0.9,1.8s0.4,1.8,0.9,1.8S133.2,40.8,133.2,39.5z M137.4,36.7h1l-4.8,9.2h-1L137.4,36.7z
	 M136.5,43.1c0-1.8,0.9-2.8,2.2-2.8s2.2,1,2.2,2.8s-0.9,2.8-2.2,2.8S136.5,44.9,136.5,43.1z M139.6,43.1c0-1.3-0.4-1.8-0.9-1.8
	s-0.9,0.5-0.9,1.8s0.4,1.8,0.9,1.8S139.6,44.4,139.6,43.1z"/>
<path class="st0" d="M143.9,42.4c-0.2-1.8,1.1-3.4,2.9-3.5c1.8-0.2,3.4,1.1,3.5,2.9c0,0.2,0,0.4,0,0.6c0.2,1.8-1.1,3.4-2.9,3.5
	c-1.8,0.2-3.4-1.1-3.5-2.9C143.9,42.8,143.9,42.6,143.9,42.4z M148.5,42.4c0-1.3-0.5-2.1-1.4-2.1s-1.4,0.8-1.4,2.1s0.5,2.1,1.4,2.1
	S148.6,43.7,148.5,42.4L148.5,42.4z"/>
<path class="st0" d="M155,37.6c-0.2-0.1-0.5-0.1-0.7-0.1c-0.5,0-0.8,0.3-0.8,1.1v0.6h1.3v1.4h-1.3v5.3h-1.8v-5.3h-0.9v-1.3l0.9-0.1
	v-0.5c-0.2-1.2,0.6-2.3,1.8-2.5c0.2,0,0.4,0,0.6,0c0.4,0,0.9,0.1,1.3,0.2L155,37.6z"/>
<path class="st0" d="M158,39.1h1.4l0.1,1.2l0,0c0.3-0.8,1.1-1.3,1.9-1.3c0.3,0,0.5,0,0.8,0.1l-0.3,1.5c-0.2-0.1-0.5-0.1-0.7-0.1
	c-0.5,0-1.2,0.3-1.6,1.3v4H158V39.1z"/>
<path class="st0" d="M162.7,44c0-1.4,1.2-2.2,3.9-2.5c0-0.7-0.3-1.2-1.1-1.2c-0.7,0-1.3,0.3-1.9,0.6l-0.6-1.2
	c0.8-0.6,1.8-0.9,2.8-0.9c1.7,0,2.6,1,2.6,3v3.9h-1.4l-0.1-0.7l0,0c-0.5,0.5-1.2,0.8-2,0.9c-1.1,0.1-2-0.7-2-1.8
	C162.7,44.1,162.7,44,162.7,44z M166.6,44v-1.4c-1.6,0.2-2.2,0.7-2.2,1.3s0.4,0.8,0.9,0.8C165.8,44.5,166.2,44.3,166.6,44L166.6,44z
	"/>
<path class="st0" d="M169.6,37c0-0.6,0.5-1.1,1.1-1.1s1.1,0.5,1.1,1.1s-0.5,1.1-1.1,1.1S169.6,37.6,169.6,37z M169.8,39h1.8v6.7
	h-1.8V39z"/>
<path class="st0" d="M172.4,45l0.8-1.1c0.5,0.4,1.1,0.7,1.8,0.7c0.7,0,1-0.3,1-0.7s-0.7-0.7-1.4-1s-1.8-0.8-1.8-2s1-2.1,2.5-2.1
	c0.8,0,1.6,0.3,2.3,0.8l-0.8,1.1c-0.4-0.3-0.9-0.5-1.4-0.6c-0.6,0-0.9,0.3-0.9,0.7s0.7,0.7,1.4,0.9c0.9,0.3,1.9,0.8,1.9,2
	s-0.9,2.1-2.7,2.1C174.1,45.9,173.2,45.6,172.4,45z"/>
<path class="st0" d="M178.3,42.4c-0.1-1.8,1.2-3.4,3-3.5c0,0,0.1,0,0.1,0c1.9,0,2.8,1.3,2.8,3.2c0,0.3,0,0.5-0.1,0.8H180
	c0,1,0.9,1.7,1.9,1.7c0,0,0,0,0,0c0.5,0,1.1-0.2,1.5-0.5l0.6,1.1c-0.7,0.5-1.5,0.7-2.4,0.7c-1.8,0-3.3-1.4-3.3-3.2
	C178.3,42.6,178.3,42.5,178.3,42.4z M182.8,41.8c0-0.9-0.4-1.5-1.3-1.5c-0.8,0-1.5,0.7-1.5,1.5L182.8,41.8z"/>
<path class="st0" d="M185.1,42.4c0-2.2,1.4-3.5,2.8-3.5c0.6,0,1.3,0.3,1.7,0.7l-0.1-1.1v-2.4h1.8v9.6h-1.4l-0.1-0.7l0,0
	c-0.5,0.5-1.2,0.8-1.9,0.9C186.1,45.9,185.1,44.6,185.1,42.4z M189.5,43.8v-3c-0.3-0.3-0.8-0.5-1.2-0.5c-0.8,0-1.4,0.7-1.4,2.1
	s0.5,2.1,1.4,2.1C188.8,44.5,189.2,44.2,189.5,43.8L189.5,43.8z"/>
<path class="st0" d="M195.4,36.9h5.4v1.5h-3.7v2h3.1v1.5h-3.1v2.4h3.8v1.5h-5.6L195.4,36.9z"/>
<path class="st0" d="M204.3,38.4h-2.5v-1.5h6.8v1.5h-2.5v7.4h-1.8L204.3,38.4z"/>
<path class="st0" d="M209.7,36.9h1.8v3.5h3.4v-3.5h1.8v8.9h-1.8v-3.9h-3.4v3.8h-1.8V36.9z"/>
<path class="st0" d="M220.1,39.1h1.8l0.7,3.3c0.1,0.7,0.2,1.3,0.3,2l0,0c0.1-0.7,0.2-1.3,0.4-2l0.8-3.3h1.6l0.8,3.3
	c0.2,0.7,0.3,1.3,0.4,2h0.1c0.1-0.7,0.2-1.3,0.3-2l0.7-3.3h1.6l-1.7,6.7H226l-0.7-2.9c-0.1-0.6-0.2-1.2-0.4-2h-0.1
	c-0.1,0.7-0.2,1.3-0.4,2l-0.7,2.9h-2L220.1,39.1z"/>
<path class="st0" d="M230.6,37c0-0.6,0.5-1.1,1.1-1.1s1.1,0.5,1.1,1.1s-0.5,1.1-1.1,1.1S230.6,37.6,230.6,37z M230.7,39h1.8v6.7
	h-1.8V39z"/>
<path class="st0" d="M234,43.9v-7.7h1.8V44c0,0.4,0.2,0.5,0.4,0.5c0.1,0,0.2,0,0.2,0l0.2,1.3c-0.3,0.1-0.6,0.2-0.9,0.2
	C234.4,45.9,234,45.1,234,43.9z"/>
<path class="st0" d="M237.4,43.9v-7.7h1.8V44c0,0.4,0.2,0.5,0.4,0.5c0.1,0,0.2,0,0.2,0l0.2,1.3c-0.3,0.1-0.6,0.2-0.9,0.2
	C237.9,45.9,237.4,45.1,237.4,43.9z"/>
<path class="st0" d="M244.9,45.1L244.9,45.1l-0.2,0.7h-1.4v-9.6h1.8v2.4v1.1c0.5-0.5,1.2-0.8,1.9-0.8c1.7,0,2.6,1.3,2.6,3.4
	c0,2.3-1.4,3.7-2.9,3.7C246,45.9,245.4,45.6,244.9,45.1z M247.7,42.3c0-1.3-0.4-2-1.3-2c-0.5,0-1,0.3-1.3,0.7v3
	c0.3,0.3,0.8,0.5,1.2,0.5C247.1,44.5,247.7,43.8,247.7,42.3z"/>
<path class="st0" d="M250.4,42.4c-0.1-1.8,1.2-3.4,3-3.5c0,0,0.1,0,0.1,0c1.9,0,2.8,1.3,2.8,3.2c0,0.3,0,0.5-0.1,0.8h-4.1
	c0,1,0.9,1.7,1.9,1.7c0,0,0,0,0,0c0.5,0,1.1-0.2,1.5-0.5l0.6,1.1c-0.7,0.5-1.5,0.7-2.4,0.7c-1.8,0.1-3.3-1.4-3.3-3.1
	C250.3,42.7,250.3,42.5,250.4,42.4z M254.8,41.8c0-0.9-0.4-1.5-1.3-1.5c-0.8,0-1.5,0.7-1.5,1.5L254.8,41.8z"/>
<path class="st0" d="M259.8,43.2V39h1.8v4c0,1,0.3,1.4,0.9,1.4c0.6,0,1.1-0.3,1.4-0.8v-4.5h1.8v6.7h-1.4l-0.1-1l0,0
	c-0.5,0.7-1.3,1.1-2.1,1.1C260.4,45.9,259.8,44.9,259.8,43.2z"/>
<path class="st0" d="M266.6,45l0.8-1.1c0.5,0.4,1.1,0.7,1.8,0.7c0.7,0,1-0.3,1-0.7s-0.7-0.7-1.4-1s-1.8-0.8-1.8-2s1-2.1,2.5-2.1
	c0.8,0,1.6,0.3,2.3,0.8l-0.8,1.1c-0.4-0.3-0.9-0.5-1.5-0.6c-0.6,0-0.9,0.3-0.9,0.7s0.7,0.7,1.4,0.9c0.9,0.3,1.9,0.8,1.9,2
	s-0.9,2.1-2.7,2.1C268.2,45.9,267.3,45.6,266.6,45z"/>
<path class="st0" d="M272.4,42.4c-0.1-1.8,1.2-3.4,3-3.5c0,0,0.1,0,0.1,0c1.9,0,2.8,1.3,2.8,3.2c0,0.3,0,0.5-0.1,0.8h-4.1
	c0,1,0.9,1.7,1.8,1.7c0,0,0,0,0,0c0.5,0,1.1-0.2,1.5-0.5l0.6,1.1c-0.7,0.5-1.5,0.7-2.4,0.7c-1.8,0-3.3-1.4-3.3-3.2
	C272.4,42.7,272.4,42.5,272.4,42.4z M276.9,41.8c0-0.9-0.4-1.5-1.3-1.5c-0.8,0-1.4,0.7-1.5,1.5H276.9z"/>
<path class="st0" d="M279.2,42.4c0-2.2,1.4-3.5,2.8-3.5c0.6,0,1.3,0.3,1.7,0.7l-0.1-1.1v-2.4h1.8v9.6H284l-0.1-0.7l0,0
	c-0.5,0.5-1.2,0.8-1.9,0.9C280.3,45.9,279.2,44.6,279.2,42.4z M283.6,43.8v-3c-0.3-0.3-0.8-0.5-1.2-0.5c-0.8,0-1.4,0.7-1.4,2.1
	s0.5,2.1,1.4,2.1C282.9,44.5,283.3,44.2,283.6,43.8L283.6,43.8z"/>
<path class="st0" d="M123.7,51.6c-0.2-0.1-0.5-0.1-0.7-0.1c-0.5,0-0.8,0.3-0.8,1.1v0.6h1.3v1.4h-1.3v5.3h-1.8v-5.3h-0.9v-1.3
	l0.9-0.1v-0.5c-0.2-1.2,0.6-2.3,1.8-2.5c0.2,0,0.4,0,0.5,0c0.4,0,0.9,0.1,1.3,0.2L123.7,51.6z"/>
<path class="st0" d="M123.8,56.4c0.1-1.8,1.7-3.1,3.5-3c1.8,0.1,3.1,1.7,3,3.5c-0.1,1.7-1.5,3-3.2,3c-1.8,0-3.3-1.5-3.2-3.3
	C123.8,56.6,123.8,56.5,123.8,56.4z M128.5,56.4c0-1.3-0.5-2.1-1.4-2.1s-1.4,0.8-1.4,2.1s0.5,2.1,1.4,2.1S128.5,57.7,128.5,56.4z"/>
<path class="st0" d="M131.5,53.1h1.4l0.1,1.2l0,0c0.4-0.8,1.1-1.3,2-1.4c0.3,0,0.5,0,0.8,0.1l-0.3,1.5c-0.2-0.1-0.5-0.1-0.7-0.1
	c-0.5,0-1.2,0.3-1.6,1.3v4h-1.8L131.5,53.1z"/>
<path class="st0" d="M138.5,58c0-1.4,1.2-2.2,3.9-2.5c0-0.7-0.3-1.2-1.1-1.2c-0.7,0-1.3,0.3-1.9,0.6l-0.6-1.2
	c0.8-0.6,1.8-0.9,2.8-0.9c1.7,0,2.6,1,2.6,3v3.9h-1.4l-0.1-0.7l0,0c-0.5,0.5-1.2,0.8-2,0.9c-1.1,0.1-2-0.7-2-1.8
	C138.5,58.1,138.5,58,138.5,58z M142.3,58v-1.4c-1.6,0.2-2.2,0.7-2.2,1.3s0.4,0.8,0.9,0.8C141.6,58.5,142,58.3,142.3,58L142.3,58z"
	/>
<path class="st0" d="M145.2,56.4c-0.1-1.8,1.3-3.4,3.2-3.5c0.1,0,0.2,0,0.3,0c0.7,0,1.4,0.3,2,0.7l-0.8,1.1c-0.3-0.3-0.6-0.4-1-0.4
	c-1,0-1.7,0.8-1.7,2.1s0.7,2.1,1.7,2.1c0.5,0,0.9-0.2,1.3-0.5l0.7,1.2c-0.6,0.5-1.4,0.8-2.2,0.8c-1.8,0.1-3.3-1.3-3.4-3
	C145.2,56.7,145.2,56.6,145.2,56.4z"/>
<path class="st0" d="M155.5,60.2l0.1-1.1c-0.5,0.5-1.1,0.8-1.8,0.8c-1.7,0-2.8-1.3-2.8-3.5s1.4-3.5,2.8-3.5c0.7,0,1.4,0.3,1.8,0.8
	l0,0l0.1-0.7h1.4v9.3h-1.8L155.5,60.2z M155.5,57.8v-3c-0.3-0.3-0.8-0.5-1.2-0.5c-0.8,0-1.4,0.7-1.4,2.1s0.5,2.1,1.4,2.1
	C154.8,58.5,155.2,58.2,155.5,57.8L155.5,57.8z"/>
<path class="st0" d="M158.8,57.2V53h1.8v4c0,1,0.3,1.4,0.9,1.4c0.6,0,1.1-0.3,1.4-0.8v-4.5h1.8v6.7h-1.4l-0.1-1l0,0
	c-0.5,0.7-1.3,1.1-2.1,1.1C159.4,59.9,158.8,58.9,158.8,57.2z"/>
<path class="st0" d="M166,51c0-0.6,0.5-1.1,1.1-1.1s1.1,0.5,1.1,1.1l0,0c0,0.6-0.5,1.1-1.1,1.1S166,51.6,166,51z M166.2,53h1.8v6.7
	h-1.8V53z"/>
<path class="st0" d="M169.5,53.1h1.4l0.1,1.2l0,0c0.4-0.8,1.1-1.3,2-1.4c0.3,0,0.5,0,0.8,0.1l-0.3,1.5c-0.2-0.1-0.5-0.1-0.7-0.1
	c-0.5,0-1.2,0.3-1.6,1.3v4h-1.8L169.5,53.1z"/>
<path class="st0" d="M174.3,51c0-0.6,0.4-1.1,1-1.1c0.6,0,1.1,0.4,1.1,1c0,0.6-0.4,1.1-1,1.1c0,0,0,0,0,0
	C174.8,52,174.3,51.6,174.3,51C174.3,51,174.3,51,174.3,51z M174.5,53h1.8v6.7h-1.8V53z"/>
<path class="st0" d="M177.8,53.1h1.4l0.1,0.9l0,0c0.6-0.6,1.3-1,2.2-1c1.4,0,2.1,1,2.1,2.7v4.2h-1.8v-4c0-1-0.3-1.4-0.9-1.4
	c-0.6,0-1.1,0.3-1.4,0.8v4.6h-1.8L177.8,53.1z"/>
<path class="st0" d="M184.6,61c0-0.6,0.4-1.2,1-1.4v-0.1c-0.4-0.2-0.6-0.7-0.6-1.1c0-0.5,0.3-1,0.7-1.3l0,0
	c-0.6-0.4-0.9-1.1-0.9-1.8c0-1.4,1.1-2.5,2.5-2.4c0.1,0,0.1,0,0.2,0c0.3,0,0.7,0.1,1,0.2h2.4v1.3h-1.1c0.2,0.3,0.3,0.6,0.3,1
	c0,1.3-1,2.3-2.3,2.3c-0.1,0-0.2,0-0.3,0c-0.3,0-0.6-0.1-0.9-0.2c-0.2,0.1-0.3,0.3-0.3,0.6c0,0.4,0.3,0.5,1.1,0.5h1.1
	c1.6,0,2.5,0.5,2.5,1.7c0,1.4-1.4,2.4-3.6,2.4C185.9,62.7,184.6,62.2,184.6,61z M189.4,60.6c0-0.5-0.4-0.6-1.1-0.6h-0.8
	c-0.3,0-0.6,0-0.9-0.1c-0.3,0.2-0.4,0.5-0.4,0.8c0,0.6,0.6,0.9,1.6,0.9S189.4,61.1,189.4,60.6L189.4,60.6z M188.6,55.4
	c0-0.8-0.4-1.2-1-1.2s-1.1,0.4-1.1,1.2c-0.1,0.6,0.3,1.1,0.9,1.2c0,0,0.1,0,0.1,0C188.1,56.6,188.6,56.1,188.6,55.4L188.6,55.4z"/>
<path class="st0" d="M194.2,51c0-0.6,0.4-1.1,1-1.1c0.6,0,1.1,0.4,1.1,1c0,0.6-0.4,1.1-1,1.1c0,0,0,0,0,0
	C194.7,52,194.2,51.6,194.2,51C194.2,51,194.2,51,194.2,51z M194.4,53h1.8v6.7h-1.8V53z"/>
<path class="st0" d="M197.6,53.1h1.4l0.1,0.9l0,0c0.6-0.6,1.3-1,2.2-1c1.4,0,2.1,1,2.1,2.7v4.2h-1.8v-4c0-1-0.3-1.4-0.9-1.4
	c-0.6,0-1.1,0.3-1.4,0.8v4.6h-1.8L197.6,53.1z"/>
<path class="st0" d="M204.4,59l0.8-1.1c0.5,0.4,1.1,0.7,1.8,0.7c0.7,0,1-0.3,1-0.7s-0.7-0.7-1.4-1s-1.8-0.8-1.8-2s1-2.1,2.5-2.1
	c0.8,0,1.6,0.3,2.3,0.8l-0.8,1.1c-0.4-0.3-0.9-0.5-1.4-0.6c-0.6,0-0.9,0.3-0.9,0.7s0.7,0.7,1.4,0.9c0.9,0.3,1.9,0.8,1.9,2
	s-0.9,2.1-2.7,2.1C206.1,59.9,205.1,59.6,204.4,59z"/>
<path class="st0" d="M211.1,57.4v-3h-0.9v-1.3l1-0.1l0.2-1.8h1.5v1.8h1.7v1.4h-1.7v3c0,0.8,0.3,1.1,0.9,1.1c0.2,0,0.4-0.1,0.7-0.1
	l0.3,1.3c-0.5,0.2-0.9,0.2-1.4,0.2C211.7,59.9,211.1,58.9,211.1,57.4z"/>
<path class="st0" d="M215.6,53.1h1.4l0.1,1.2l0,0c0.3-0.8,1.1-1.3,1.9-1.3c0.3,0,0.5,0,0.8,0.1l-0.3,1.5c-0.2-0.1-0.5-0.1-0.7-0.1
	c-0.5,0-1.2,0.3-1.6,1.3v4h-1.7V53.1z"/>
<path class="st0" d="M220.4,51c0-0.6,0.4-1.1,1-1.1c0.6,0,1.1,0.4,1.1,1c0,0.6-0.4,1.1-1,1.1c0,0,0,0,0,0
	C220.9,52,220.5,51.6,220.4,51C220.4,51,220.4,51,220.4,51z M220.6,53h1.8v6.7h-1.7L220.6,53z"/>
<path class="st0" d="M223.9,53.1h1.4l0.1,0.9l0,0c0.6-0.6,1.3-1,2.2-1c1.4,0,2.1,1,2.1,2.7v4.2H228v-4c0-1-0.3-1.4-0.9-1.4
	c-0.6,0-1.1,0.3-1.4,0.8v4.6h-1.8L223.9,53.1z"/>
<path class="st0" d="M230.6,59l0.8-1.1c0.5,0.4,1.1,0.7,1.8,0.7c0.7,0,1-0.3,1-0.7s-0.7-0.7-1.4-1S231,56.1,231,55s1-2.1,2.5-2.1
	c0.8,0,1.6,0.3,2.3,0.8l-0.8,1c-0.4-0.3-0.9-0.5-1.4-0.6c-0.6,0-0.9,0.3-0.9,0.7s0.7,0.7,1.4,0.9c0.9,0.3,1.9,0.8,1.9,2
	s-0.9,2.1-2.7,2.1C232.3,59.9,231.4,59.6,230.6,59z"/>
<path class="st0" d="M236.8,51c0-0.6,0.5-1.1,1.1-1.1s1.1,0.5,1.1,1.1l0,0c0,0.6-0.5,1.1-1.1,1.1S236.8,51.6,236.8,51z M236.9,53
	h1.8v6.7h-1.8V53z"/>
<path class="st0" d="M239.8,56.4c-0.1-1.8,1.3-3.4,3.2-3.5c0.1,0,0.2,0,0.3,0c0.7,0,1.4,0.3,2,0.7l-0.8,1.1c-0.3-0.3-0.6-0.4-1-0.4
	c-1,0-1.7,0.8-1.7,2.1s0.7,2.1,1.7,2.1c0.5,0,0.9-0.2,1.3-0.5l0.7,1.2c-0.6,0.5-1.4,0.8-2.2,0.8c-1.8,0.1-3.3-1.3-3.4-3
	C239.8,56.7,239.8,56.6,239.8,56.4z"/>
<path class="st0" d="M248.3,58c0-1.4,1.2-2.2,3.9-2.5c0-0.7-0.3-1.2-1.1-1.2c-0.7,0-1.3,0.3-1.9,0.6l-0.6-1.2
	c0.8-0.6,1.8-0.9,2.8-0.9c1.7,0,2.6,1,2.6,3v3.9h-1.4l-0.1-0.7l0,0c-0.5,0.5-1.2,0.8-2,0.9c-1.1,0.1-2-0.7-2-1.8
	C248.3,58.1,248.3,58,248.3,58z M252.2,58v-1.4c-1.6,0.2-2.2,0.7-2.2,1.3s0.4,0.8,0.9,0.8C251.4,58.5,251.9,58.3,252.2,58L252.2,58z
	"/>
<path class="st0" d="M254.8,59l0.8-1.1c0.5,0.4,1.1,0.7,1.8,0.7c0.7,0,1-0.3,1-0.7s-0.7-0.7-1.4-1s-1.8-0.8-1.8-2s1-2.1,2.5-2.1
	c0.8,0,1.6,0.3,2.3,0.8l-0.8,1.1c-0.4-0.3-0.9-0.5-1.5-0.6c-0.6,0-0.9,0.3-0.9,0.7s0.7,0.7,1.4,0.9c0.9,0.3,1.9,0.8,1.9,2
	s-0.9,2.1-2.7,2.1C256.5,59.9,255.5,59.6,254.8,59z"/>
<path class="st0" d="M260.5,59l0.8-1.1c0.5,0.4,1.1,0.7,1.8,0.7c0.7,0,1-0.3,1-0.7s-0.7-0.7-1.4-1s-1.8-0.8-1.8-2s1-2.1,2.5-2.1
	c0.8,0,1.6,0.3,2.3,0.8l-0.8,1.1c-0.4-0.3-0.9-0.5-1.5-0.6c-0.6,0-0.9,0.3-0.9,0.7s0.7,0.7,1.4,0.9c0.9,0.3,1.9,0.8,1.9,2
	s-0.9,2.1-2.7,2.1C262.1,59.9,261.2,59.6,260.5,59z"/>
<path class="st0" d="M266.4,56.4c-0.1-1.8,1.2-3.4,3-3.5c0,0,0.1,0,0.1,0c1.9,0,2.8,1.3,2.8,3.2c0,0.3,0,0.5-0.1,0.8h-4.1
	c0,1,0.9,1.7,1.9,1.7c0,0,0,0,0,0c0.5,0,1.1-0.2,1.5-0.5l0.6,1.1c-0.7,0.5-1.5,0.7-2.4,0.7c-1.8,0.1-3.3-1.4-3.3-3.1
	C266.3,56.7,266.4,56.5,266.4,56.4z M270.8,55.8c0-0.9-0.4-1.5-1.3-1.5c-0.8,0-1.4,0.7-1.5,1.5H270.8z"/>
<path class="st0" d="M273.7,57.4v-3h-1v-1.3l1-0.1l0.2-1.8h1.5v1.8h1.7v1.4h-1.6v3c0,0.8,0.3,1.1,0.9,1.1c0.2,0,0.4-0.1,0.7-0.1
	l0.3,1.3c-0.5,0.2-0.9,0.2-1.4,0.2C274.4,59.9,273.7,58.9,273.7,57.4z"/>
<path class="st0" d="M277.8,59l0.8-1.1c0.5,0.4,1.1,0.7,1.8,0.7c0.7,0,1-0.3,1-0.7s-0.7-0.7-1.4-1s-1.8-0.8-1.8-2s1-2.1,2.5-2.1
	c0.8,0,1.6,0.3,2.3,0.8l-0.8,1.1c-0.4-0.3-0.9-0.5-1.5-0.6c-0.6,0-0.9,0.3-0.9,0.7s0.7,0.7,1.4,0.9c0.9,0.3,1.9,0.8,1.9,2
	s-0.9,2.1-2.7,2.1C279.4,59.9,278.5,59.6,277.8,59z"/>
<path class="st0" d="M101.5,125.9c0-2.9,1.6-4.6,4-4.6s4,1.7,4,4.6c0,2.9-1.6,4.6-4,4.6S101.5,128.8,101.5,125.9z M107.6,125.9
	c0-1.9-0.8-3-2.2-3s-2.2,1.1-2.2,3s0.8,3.1,2.2,3.1S107.6,127.8,107.6,125.9z"/>
<path class="st0" d="M110.8,123.7h1.4l0.1,0.7l0,0c0.5-0.5,1.3-0.8,2-0.9c1.7,0,2.6,1.3,2.6,3.4c0,2.3-1.4,3.6-2.8,3.6
	c-0.6,0-1.2-0.3-1.7-0.7v1.1v2h-1.8L110.8,123.7z M115.2,126.9c0-1.3-0.4-2-1.3-2c-0.5,0-1,0.3-1.3,0.7v3c0.3,0.3,0.8,0.5,1.2,0.5
	C114.5,129.1,115.2,128.4,115.2,126.9z"/>
<path class="st0" d="M117.8,127c-0.1-1.8,1.2-3.4,3-3.5c0,0,0.1,0,0.1,0c1.8,0,2.8,1.3,2.8,3.2c0,0.3,0,0.5-0.1,0.8h-4.1
	c0,1,0.9,1.7,1.9,1.7c0,0,0,0,0,0c0.5,0,1.1-0.2,1.5-0.5l0.6,1.1c-0.7,0.5-1.5,0.7-2.3,0.7c-1.8,0.1-3.3-1.4-3.3-3.1
	C117.8,127.2,117.8,127.1,117.8,127z M122.2,126.3c0-0.9-0.4-1.5-1.3-1.5c-0.8,0-1.4,0.7-1.5,1.5H122.2z"/>
<path class="st0" d="M124.9,123.7h1.4l0.1,1.2l0,0c0.3-0.8,1.1-1.3,1.9-1.3c0.3,0,0.5,0,0.8,0.1l-0.3,1.5c-0.2-0.1-0.5-0.1-0.7-0.1
	c-0.5,0-1.2,0.3-1.6,1.3v4h-1.8L124.9,123.7z"/>
<path class="st0" d="M129.6,128.6c0-1.4,1.2-2.2,3.9-2.5c0-0.7-0.3-1.2-1.1-1.2c-0.7,0-1.3,0.3-1.9,0.6l-0.6-1.2
	c0.8-0.6,1.8-0.9,2.8-0.9c1.7,0,2.6,1,2.6,3v3.9h-1.4l-0.1-0.7l0,0c-0.5,0.5-1.2,0.8-2,0.9c-1.1,0.1-2-0.7-2-1.8
	C129.6,128.8,129.6,128.7,129.6,128.6z M133.4,128.6v-1.4c-1.6,0.2-2.2,0.7-2.2,1.3s0.4,0.8,0.9,0.8
	C132.6,129.2,133.1,128.9,133.4,128.6L133.4,128.6z"/>
<path class="st0" d="M136.9,128v-3h-0.9v-1.3l1-0.1l0.2-1.8h1.5v1.8h1.7v1.4h-1.7v3c0,0.8,0.3,1.1,0.9,1.1c0.2,0,0.4-0.1,0.7-0.1
	l0.3,1.3c-0.5,0.2-0.9,0.2-1.4,0.2C137.5,130.6,136.9,129.6,136.9,128z"/>
<path class="st0" d="M141.2,121.6c0-0.6,0.4-1.1,1-1.1c0.6,0,1.1,0.4,1.1,1c0,0.6-0.4,1.1-1,1.1c0,0,0,0,0,0
	C141.7,122.7,141.3,122.3,141.2,121.6C141.2,121.7,141.2,121.7,141.2,121.6z M141.4,123.6h1.8v6.7h-1.8V123.6z"/>
<path class="st0" d="M144.7,123.7h1.4l0.1,0.9l0,0c0.6-0.6,1.3-1,2.2-1.1c1.4,0,2.1,1,2.1,2.7v4.2h-1.8v-4c0-1-0.3-1.4-0.9-1.4
	c-0.6,0-1.1,0.3-1.4,0.8v4.6h-1.8L144.7,123.7z"/>
<path class="st0" d="M151.6,131.6c0-0.6,0.4-1.2,1-1.4v-0.1c-0.4-0.2-0.6-0.7-0.6-1.1c0-0.5,0.3-1,0.7-1.3l0,0
	c-0.6-0.4-0.9-1.1-0.9-1.8c0-1.4,1.1-2.5,2.5-2.4c0.1,0,0.1,0,0.2,0c0.3,0,0.7,0.1,1,0.2h2.4v1.3h-1.1c0.2,0.3,0.3,0.6,0.3,1
	c0,1.3-1,2.3-2.3,2.3c-0.1,0-0.2,0-0.3,0c-0.3,0-0.6-0.1-0.9-0.2c-0.2,0.1-0.3,0.3-0.3,0.6c0,0.4,0.3,0.6,1.1,0.6h1.1
	c1.6,0,2.5,0.5,2.5,1.7c0,1.4-1.4,2.4-3.6,2.4C152.8,133.3,151.6,132.8,151.6,131.6z M156.3,131.2c0-0.5-0.4-0.6-1.1-0.6h-0.8
	c-0.3,0-0.6,0-0.9-0.1c-0.3,0.2-0.4,0.5-0.4,0.8c0,0.6,0.6,0.9,1.6,0.9S156.3,131.8,156.3,131.2z M155.5,125.9c0-0.8-0.4-1.2-1-1.2
	s-1.1,0.4-1.1,1.2c-0.1,0.6,0.3,1.1,0.9,1.2c0,0,0.1,0,0.1,0C155.1,127.2,155.5,126.7,155.5,125.9L155.5,125.9z"/>
<path class="st0" d="M160.9,127c-0.1-1.8,1.3-3.4,3.2-3.5c0.1,0,0.2,0,0.3,0c0.7,0,1.4,0.3,2,0.7l-0.8,1.1c-0.3-0.3-0.6-0.4-1-0.4
	c-1,0-1.7,0.8-1.7,2.1s0.7,2.1,1.7,2.1c0.5,0,0.9-0.2,1.3-0.5l0.7,1.2c-0.6,0.5-1.4,0.8-2.2,0.8c-1.8,0.1-3.3-1.3-3.4-3
	C160.8,127.3,160.8,127.2,160.9,127z"/>
<path class="st0" d="M166.7,127c0.1-1.8,1.7-3.1,3.5-3c1.8,0.1,3.1,1.7,3,3.5c-0.1,1.7-1.5,3-3.2,3c-1.8,0-3.3-1.5-3.2-3.3
	C166.7,127.1,166.7,127.1,166.7,127z M171.3,127c0-1.3-0.5-2.1-1.4-2.1s-1.4,0.8-1.4,2.1c0,1.3,0.5,2.1,1.4,2.1
	S171.4,128.3,171.3,127L171.3,127z"/>
<path class="st0" d="M173.6,129.6l0.8-1.1c0.5,0.4,1.1,0.7,1.8,0.7c0.7,0,1-0.3,1-0.7s-0.7-0.7-1.4-1s-1.8-0.8-1.8-2s1-2.1,2.5-2.1
	c0.8,0,1.6,0.3,2.3,0.8l-0.8,1.1c-0.4-0.3-0.9-0.5-1.4-0.6c-0.6,0-0.9,0.3-0.9,0.7s0.7,0.7,1.4,0.9c0.9,0.3,1.9,0.8,1.9,2
	s-0.9,2.1-2.7,2.1C175.3,130.5,174.4,130.2,173.6,129.6z"/>
<path class="st0" d="M180.3,128v-3h-0.9v-1.3l1-0.1l0.2-1.8h1.5v1.8h1.7v1.4H182v3c0,0.8,0.3,1.1,0.9,1.1c0.2,0,0.4-0.1,0.7-0.1
	l0.3,1.3c-0.5,0.2-0.9,0.2-1.4,0.2C180.9,130.6,180.3,129.6,180.3,128z"/>
<path class="st2" d="M96.7,239.9c0-0.6,0.5-1,1.1-1c0.6,0,1,0.5,1,1c0,0.6-0.5,1-1.1,1C97.2,240.9,96.7,240.4,96.7,239.9z
	 M96.9,241.9h1.7v6.7h-1.8L96.9,241.9z"/>
<path class="st2" d="M100.1,241.9h1.4l0.1,0.9l0,0c0.6-0.6,1.3-1,2.2-1.1c1.4,0,2.1,1,2.1,2.7v4.2h-1.8v-4c0-1-0.3-1.4-0.9-1.4
	c-0.6,0-1.1,0.3-1.4,0.8v4.6h-1.8L100.1,241.9z"/>
<path class="st2" d="M106.6,241.9h1.8l1,3.4c0.2,0.7,0.4,1.4,0.5,2h0.1c0.2-0.7,0.4-1.4,0.5-2l1-3.4h1.7l-2.2,6.7h-2L106.6,241.9z"
	/>
<path class="st2" d="M113.3,245.3c-0.1-1.8,1.2-3.4,3-3.5c0,0,0.1,0,0.1,0c1.8,0,2.8,1.4,2.8,3.2c0,0.3,0,0.5-0.1,0.8h-4.1
	c0,1,0.9,1.7,1.9,1.7c0,0,0,0,0,0c0.5,0,1.1-0.2,1.5-0.5l0.6,1c-0.7,0.5-1.5,0.7-2.3,0.7c-1.8,0-3.3-1.4-3.3-3.2
	C113.3,245.5,113.3,245.4,113.3,245.3z M117.8,244.6c0-0.9-0.4-1.5-1.3-1.5c-0.8,0-1.4,0.7-1.5,1.5H117.8z"/>
<path class="st2" d="M119.8,247.8l0.8-1.1c0.5,0.4,1.1,0.7,1.8,0.7c0.7,0,1-0.3,1-0.7s-0.7-0.7-1.4-1s-1.8-0.8-1.8-2s1-2.1,2.5-2.1
	c0.8,0,1.6,0.3,2.3,0.8l-0.8,1.1c-0.4-0.3-0.9-0.5-1.4-0.6c-0.6,0-0.9,0.3-0.9,0.6s0.7,0.7,1.4,0.9c0.9,0.3,1.9,0.8,1.9,2
	s-0.9,2.1-2.7,2.1C121.4,248.7,120.5,248.4,119.8,247.8z"/>
<path class="st2" d="M126.5,246.3v-3h-0.9V242l1-0.1l0.2-1.8h1.5v1.8h1.7v1.4h-1.7v3c0,0.8,0.3,1.1,0.9,1.1c0.2,0,0.4-0.1,0.7-0.1
	l0.3,1.3c-0.5,0.2-0.9,0.2-1.4,0.2C127.1,248.8,126.5,247.8,126.5,246.3z"/>
<path class="st2" d="M131,241.9h1.4l0.1,0.9l0,0c0.5-0.6,1.3-1,2.1-1.1c0.8-0.1,1.6,0.4,1.9,1.2c0.5-0.7,1.3-1.1,2.1-1.2
	c1.4,0,2.1,1,2.1,2.7v4.2H139v-4c0-1-0.3-1.4-0.9-1.4c-0.5,0.1-1,0.3-1.3,0.8v4.6H135v-4c0-1-0.3-1.4-0.9-1.4
	c-0.5,0.1-1,0.3-1.3,0.8v4.6H131V241.9z"/>
<path class="st2" d="M141.9,245.3c-0.1-1.8,1.2-3.4,3-3.5c0,0,0.1,0,0.1,0c1.9,0,2.8,1.4,2.8,3.2c0,0.3,0,0.5-0.1,0.8h-4.1
	c0,1,0.9,1.7,1.8,1.7c0,0,0,0,0,0c0.5,0,1.1-0.2,1.5-0.5l0.6,1.1c-0.7,0.5-1.5,0.7-2.4,0.7c-1.8,0.1-3.3-1.4-3.3-3.1
	C141.8,245.5,141.9,245.4,141.9,245.3z M146.3,244.6c0-0.9-0.4-1.5-1.3-1.5c-0.8,0-1.4,0.7-1.5,1.5H146.3z"/>
<path class="st2" d="M149,241.9h1.4l0.1,0.9l0,0c0.6-0.6,1.3-1,2.2-1.1c1.4,0,2.1,1,2.1,2.7v4.2h-1.8v-4c0-1-0.3-1.4-0.9-1.4
	c-0.6,0-1.1,0.3-1.4,0.8v4.6H149V241.9z"/>
<path class="st2" d="M156.6,246.3v-3h-0.9V242l1-0.1l0.2-1.8h1.5v1.8h1.7v1.4h-1.7v3c0,0.8,0.3,1.1,0.9,1.1c0.2,0,0.4-0.1,0.7-0.1
	l0.3,1.3c-0.5,0.2-0.9,0.2-1.4,0.2C157.2,248.8,156.6,247.8,156.6,246.3z"/>
<path class="st2" d="M167,240.4c-0.2-0.1-0.5-0.1-0.7-0.1c-0.5,0-0.8,0.3-0.8,1.1v0.6h1.3v1.4h-1.3v5.3h-1.8v-5.3h-0.9V242l0.9-0.1
	v-0.6c-0.2-1.2,0.7-2.3,1.9-2.5c0.2,0,0.3,0,0.5,0c0.4,0,0.9,0.1,1.3,0.2L167,240.4z"/>
<path class="st2" d="M167.5,246.1v-4.2h1.8v4c0,1,0.3,1.4,0.9,1.4c0.6,0,1.1-0.3,1.4-0.8v-4.6h1.8v6.7h-1.4l-0.1-1l0,0
	c-0.5,0.7-1.3,1.1-2.1,1.1C168.2,248.8,167.5,247.8,167.5,246.1z"/>
<path class="st2" d="M174.9,241.9h1.4l0.1,0.9l0,0c0.6-0.6,1.3-1,2.2-1.1c1.4,0,2.1,1,2.1,2.7v4.2H179v-4c0-1-0.3-1.4-0.9-1.4
	c-0.6,0-1.1,0.3-1.4,0.8v4.6h-1.8L174.9,241.9z"/>
<path class="st2" d="M181.9,245.3c0-2.2,1.4-3.5,2.8-3.5c0.6,0,1.3,0.3,1.7,0.7l-0.1-1.1V239h1.8v9.6h-1.4l-0.1-0.7l0,0
	c-0.5,0.5-1.2,0.8-1.9,0.9C183,248.8,181.9,247.5,181.9,245.3z M186.4,246.6v-3c-0.3-0.3-0.8-0.5-1.2-0.5c-0.8,0-1.4,0.7-1.4,2.1
	s0.5,2.1,1.4,2.1C185.6,247.3,186.1,247,186.4,246.6L186.4,246.6z"/>
<path class="st1" d="M113.9,345.4c-0.4-0.5-1.1-0.8-1.7-0.8c-1.3,0-2.3,1-2.4,3.7c0.6-0.7,1.4-1.1,2.3-1.2c1.9,0,3.2,1.1,3.2,3.5
	c0.1,1.9-1.3,3.6-3.2,3.7c-0.1,0-0.2,0-0.2,0c-2.1,0-4-1.7-4-5.6c0-4.1,2.1-5.9,4.3-5.9c1.1,0,2.2,0.4,3,1.3L113.9,345.4z
	 M113.3,350.6c0-1.3-0.6-1.9-1.6-1.9c-0.8,0-1.5,0.5-1.8,1.2c0.2,2,1,2.8,1.9,2.8S113.3,351.9,113.3,350.6z"/>
<path class="st1" d="M116.3,356.1c1.2-0.4,1.8-1.2,1.8-2h-0.1c-0.7,0-1.3-0.5-1.4-1.2c0,0,0-0.1,0-0.1c0-0.7,0.6-1.3,1.4-1.3
	c0,0,0,0,0.1,0c1,0,1.6,0.8,1.6,2.2c0,1.7-1.2,3.3-2.8,3.7L116.3,356.1z"/>
<path class="st1" d="M120.6,348.5c0-3.8,1.5-5.7,3.8-5.7s3.8,1.9,3.8,5.7s-1.5,5.8-3.8,5.8S120.6,352.3,120.6,348.5z M126,348.5
	c0-3.1-0.7-4-1.7-4s-1.7,0.9-1.7,4s0.7,4.1,1.7,4.1S126,351.6,126,348.5L126,348.5z"/>
<path class="st1" d="M129.3,348.5c0-3.8,1.5-5.7,3.8-5.7s3.8,1.9,3.8,5.7s-1.5,5.8-3.8,5.8S129.3,352.3,129.3,348.5z M134.7,348.5
	c0-3.1-0.7-4-1.7-4s-1.7,0.9-1.7,4s0.7,4.1,1.7,4.1S134.7,351.6,134.7,348.5z"/>
<path class="st1" d="M138,348.5c0-3.8,1.5-5.7,3.8-5.7s3.8,1.9,3.8,5.7s-1.5,5.8-3.8,5.8S138,352.3,138,348.5z M143.4,348.5
	c0-3.1-0.7-4-1.7-4s-1.7,0.9-1.7,4s0.7,4.1,1.7,4.1S143.4,351.6,143.4,348.5L143.4,348.5z"/>
<path class="st1" d="M150.2,343h6.8v1.8h-4.6v2.6h3.9v1.9h-3.9v3h4.8v1.9h-7L150.2,343z"/>
<path class="st1" d="M161.3,344.8h-3.1V343h8.5v1.8h-3.1v9.2h-2.2L161.3,344.8z"/>
<path class="st1" d="M167.9,343h2.2v4.4h4.2V343h2.2v11.1h-2.2v-4.8h-4.2v4.8h-2.2V343z"/>
<path class="st1" d="M242.7,351.2h-1.3v2.9h-2.1v-2.9h-4.7v-1.5l4.1-6.7h2.6v6.5h1.3V351.2z M239.3,349.5v-2.3
	c0-0.6,0.1-1.6,0.1-2.3h-0.1c-0.3,0.6-0.6,1.2-0.9,1.8l-1.7,2.8H239.3z"/>
<path class="st1" d="M243.6,348.5c0-3.8,1.5-5.7,3.8-5.7s3.8,1.9,3.8,5.7s-1.5,5.8-3.8,5.8S243.6,352.3,243.6,348.5z M249.1,348.5
	c0-3.1-0.7-4-1.7-4s-1.7,0.9-1.7,4s0.7,4.1,1.7,4.1S249.1,351.6,249.1,348.5L249.1,348.5z"/>
<path class="st1" d="M252,356.1c1.1-0.4,1.8-1.2,1.8-2h-0.1c-0.7,0-1.3-0.5-1.4-1.2c0,0,0-0.1,0-0.1c0-0.7,0.6-1.3,1.4-1.3
	c0,0,0,0,0.1,0c1,0,1.6,0.8,1.6,2.2c0,1.7-1.2,3.3-2.8,3.7L252,356.1z"/>
<path class="st1" d="M256.3,348.5c0-3.8,1.5-5.7,3.8-5.7s3.8,1.9,3.8,5.7s-1.5,5.8-3.8,5.8S256.3,352.3,256.3,348.5z M261.7,348.5
	c0-3.1-0.7-4-1.7-4s-1.7,0.9-1.7,4s0.7,4.1,1.7,4.1S261.7,351.6,261.7,348.5z"/>
<path class="st1" d="M265,348.5c0-3.8,1.5-5.7,3.8-5.7s3.8,1.9,3.8,5.7s-1.5,5.8-3.8,5.8S265,352.3,265,348.5z M270.4,348.5
	c0-3.1-0.7-4-1.7-4s-1.7,0.9-1.7,4s0.7,4.1,1.7,4.1S270.4,351.6,270.4,348.5L270.4,348.5z"/>
<path class="st1" d="M273.7,348.5c0-3.8,1.5-5.7,3.8-5.7s3.8,1.9,3.8,5.7s-1.5,5.8-3.8,5.8S273.7,352.3,273.7,348.5z M279.1,348.5
	c0-3.1-0.7-4-1.7-4s-1.7,0.9-1.7,4s0.7,4.1,1.7,4.1S279.1,351.6,279.1,348.5L279.1,348.5z"/>
<path class="st1" d="M285.9,343h6.8v1.8h-4.6v2.6h3.9v1.9h-3.9v3h4.8v1.9h-7L285.9,343z"/>
<path class="st1" d="M297,344.8h-3.1V343h8.5v1.8h-3.1v9.2H297V344.8z"/>
<path class="st1" d="M303.7,343h2.2v4.4h4.2V343h2.2v11.1h-2.2v-4.8h-4.2v4.8h-2.2V343z"/>
<path class="st1" d="M108.1,378.7l1.3-1.5c0.8,0.7,1.8,1.2,2.8,1.2c1.2,0,1.8-0.5,1.8-1.3s-0.7-1.1-1.7-1.5l-1.5-0.6
	c-1.3-0.4-2.2-1.6-2.2-3c0-1.8,1.6-3.2,3.8-3.2c1.3,0,2.6,0.5,3.5,1.4l-1.1,1.4c-0.6-0.6-1.5-0.9-2.4-0.9c-1,0-1.6,0.4-1.6,1.2
	s0.8,1.1,1.7,1.5l1.5,0.6c1.3,0.4,2.3,1.6,2.2,3c0,1.8-1.5,3.4-4.1,3.4C110.6,380.3,109.2,379.7,108.1,378.7z"/>
<path class="st1" d="M117.3,374.5c0-3.6,2-5.7,5-5.7s5,2.1,5,5.7s-2,5.8-5,5.8S117.3,378.1,117.3,374.5z M124.9,374.5
	c0-2.4-1-3.8-2.7-3.8s-2.7,1.4-2.7,3.8s1.1,3.9,2.7,3.9S124.9,376.9,124.9,374.5L124.9,374.5z"/>
<path class="st1" d="M128.9,369h6.8v1.8h-4.6v2.9h3.9v1.9h-3.9v4.5h-2.2V369z"/>
<path class="st1" d="M139.8,370.8h-3.1V369h8.5v1.8H142v9.2h-2.2L139.8,370.8z"/>
<path class="st1" d="M149.1,374.6c0-3.7,2.4-5.8,5.2-5.8c1.2,0,2.4,0.5,3.2,1.4l-1.2,1.4c-0.5-0.6-1.2-0.9-2-0.9
	c-1.7,0-2.9,1.4-2.9,3.8s1.1,3.9,2.9,3.9c0.9,0,1.7-0.4,2.3-1.1l1.2,1.4c-0.9,1.1-2.2,1.7-3.5,1.6
	C151.3,380.3,149.1,378.3,149.1,374.6z"/>
<path class="st1" d="M164.7,377.2h-3.6l-0.8,2.9h-2.2l3.6-11.1h2.6l3.6,11.1h-2.3L164.7,377.2z M164.2,375.5l-0.3-1.2
	c-0.4-1.1-0.6-2.4-1-3.6h-0.1c-0.3,1.2-0.6,2.5-0.9,3.6l-0.3,1.2H164.2z"/>
<path class="st1" d="M168.9,369h3.6c2.5,0,4.4,0.9,4.4,3.5s-1.9,3.7-4.3,3.7h-1.5v4h-2.2L168.9,369z M172.4,374.4
	c1.5,0,2.3-0.6,2.3-1.9s-0.8-1.7-2.3-1.7h-1.3v3.6H172.4z"/>
<path class="st1" d="M238.9,369h2.2v4.4h4.2V369h2.2v11.1h-2.2v-4.8h-4.2v4.8h-2.2V369z"/>
<path class="st1" d="M255.2,377.2h-3.6l-0.8,2.9h-2.2l3.6-11.1h2.6l3.6,11.1H256L255.2,377.2z M254.7,375.5l-0.3-1.2
	c-0.4-1.1-0.6-2.4-1-3.6h-0.1c-0.3,1.2-0.6,2.5-0.9,3.6l-0.3,1.2H254.7z"/>
<path class="st1" d="M265.4,380.1l-2.3-4.2h-1.5v4.2h-2.2V369h3.9c2.3,0,4.2,0.8,4.2,3.4c0.1,1.4-0.8,2.7-2.1,3.2l2.6,4.5H265.4z
	 M261.6,374.1h1.4c1.4,0,2.2-0.6,2.2-1.8s-0.8-1.6-2.2-1.6h-1.4L261.6,374.1z"/>
<path class="st1" d="M269.2,369h3c3.4,0,5.5,1.8,5.5,5.5s-2.1,5.6-5.4,5.6h-3.2L269.2,369z M272.1,378.3c2.1,0,3.4-1.1,3.4-3.8
	s-1.3-3.7-3.4-3.7h-0.7v7.5L272.1,378.3z"/>
<path class="st1" d="M282,374.6c0-3.7,2.4-5.8,5.2-5.8c1.2,0,2.4,0.5,3.2,1.4l-1.2,1.4c-0.5-0.6-1.2-0.9-2-0.9
	c-1.7,0-2.9,1.4-2.9,3.8s1.1,3.9,2.9,3.9c0.9,0,1.7-0.4,2.3-1.1l1.2,1.4c-0.9,1.1-2.2,1.7-3.5,1.6C284.3,380.3,282,378.3,282,374.6z
	"/>
<path class="st1" d="M297.6,377.2H294l-0.8,2.9H291l3.5-11.1h2.6l3.6,11.1h-2.3L297.6,377.2z M297.2,375.5l-0.3-1.2
	c-0.4-1.1-0.6-2.4-1-3.6h-0.1c-0.3,1.2-0.6,2.5-0.9,3.6l-0.3,1.2H297.2z"/>
<path class="st1" d="M301.8,369h3.6c2.5,0,4.4,0.9,4.4,3.5s-1.9,3.7-4.3,3.7H304v4h-2.2L301.8,369z M305.4,374.4
	c1.5,0,2.3-0.6,2.3-1.9s-0.8-1.7-2.3-1.7H304v3.6H305.4z"/>
</svg>
