<svg xmlns="http://www.w3.org/2000/svg" viewBox="0 0 370 400"><defs><style>.cls-1{fill:#e13dae;}.cls-2{fill:#1d1b60;}.cls-3{fill:#fff;}</style></defs><title>token2</title><g id="레이어_1" data-name="레이어 1"><path class="cls-1" d="M197,80.75V326.91H85.35V80.75H197m1-1H84.35V327.91H198V79.75Z"/><path class="cls-2" d="M9,82.91h2V76.35H9.36v-.7A5.57,5.57,0,0,0,11.18,75H12v7.88h1.76v.91H9Z"/><path class="cls-2" d="M14.52,79.4c0-3.06,1.07-4.53,2.75-4.53S20,76.35,20,79.4,18.93,84,17.26,84,14.52,82.46,14.52,79.4Zm4.41,0c0-2.57-.67-3.65-1.67-3.65s-1.68,1.08-1.68,3.65.67,3.71,1.68,3.71S18.93,82,18.93,79.4Z"/><path class="cls-2" d="M21.09,79.4c0-3.06,1.07-4.53,2.75-4.53s2.73,1.49,2.73,4.53S25.5,84,23.83,84,21.09,82.46,21.09,79.4Zm4.41,0c0-2.57-.67-3.65-1.67-3.65s-1.68,1.08-1.68,3.65.67,3.71,1.68,3.71S25.5,82,25.5,79.4Z"/><path class="cls-2" d="M27.45,77.62c0-1.76.79-2.76,2-2.76s2,1,2,2.76-.79,2.79-2,2.79S27.45,79.4,27.45,77.62Zm3.17,0c0-1.4-.48-2.09-1.18-2.09s-1.16.68-1.16,2.09.48,2.11,1.16,2.11S30.62,79,30.62,77.62Zm3.93-2.76h.74L30.44,84h-.73Zm-1,6.33c0-1.76.8-2.76,2-2.76s2,1,2,2.76-.79,2.78-2,2.78S33.57,83,33.57,81.2Zm3.17,0c0-1.4-.48-2.09-1.16-2.09s-1.18.68-1.18,2.09.48,2.11,1.18,2.11S36.74,82.6,36.74,81.2Z"/><path class="cls-2" d="M15.28,107.4a2,2,0,0,0,1.48.67c1.14,0,2.12-.94,2.21-3.67a2.71,2.71,0,0,1-2,1.09c-1.46,0-2.42-.95-2.42-2.77A2.64,2.64,0,0,1,17,99.86c1.69,0,3,1.39,3,4.19,0,3.56-1.54,4.93-3.19,4.93a2.8,2.8,0,0,1-2.11-.9ZM19,103.5c-.12-1.81-.79-2.77-1.92-2.77-.84,0-1.49.79-1.49,2s.53,2,1.57,2A2.32,2.32,0,0,0,19,103.5Z"/><path class="cls-2" d="M21.09,104.4c0-3.06,1.07-4.53,2.75-4.53s2.73,1.49,2.73,4.53S25.5,109,23.83,109,21.09,107.46,21.09,104.4Zm4.41,0c0-2.57-.67-3.65-1.67-3.65s-1.68,1.08-1.68,3.65.67,3.71,1.68,3.71S25.5,107,25.5,104.4Z"/><path class="cls-2" d="M27.45,102.62c0-1.76.79-2.76,2-2.76s2,1,2,2.76-.79,2.79-2,2.79S27.45,104.4,27.45,102.62Zm3.17,0c0-1.4-.48-2.09-1.18-2.09s-1.16.68-1.16,2.09.48,2.11,1.16,2.11S30.62,104,30.62,102.62Zm3.93-2.76h.74L30.44,109h-.73Zm-1,6.33c0-1.76.8-2.76,2-2.76s2,1,2,2.76-.79,2.78-2,2.78S33.57,108,33.57,106.2Zm3.17,0c0-1.4-.48-2.09-1.16-2.09s-1.18.68-1.18,2.09.48,2.11,1.18,2.11S36.74,107.6,36.74,106.2Z"/><path class="cls-2" d="M14.59,131.64a2.82,2.82,0,0,1,1.62-2.42v-.06a2.45,2.45,0,0,1-1.19-2,2.23,2.23,0,0,1,2.41-2.23,2.22,2.22,0,0,1,2.41,2.31,2.88,2.88,0,0,1-1.18,2.12v.06a2.57,2.57,0,0,1,1.49,2.3c0,1.28-1.1,2.28-2.76,2.28A2.52,2.52,0,0,1,14.59,131.64Zm4.52,0c0-1.18-1.08-1.62-2.33-2.12a2.39,2.39,0,0,0-1.2,2,1.69,1.69,0,0,0,1.83,1.62A1.52,1.52,0,0,0,19.11,131.68Zm-.2-4.4a1.47,1.47,0,0,0-1.5-1.57A1.35,1.35,0,0,0,16,127.13c0,1.06.95,1.51,2,1.92A2.36,2.36,0,0,0,18.9,127.27Z"/><path class="cls-2" d="M21.09,129.4c0-3.06,1.07-4.53,2.75-4.53s2.73,1.49,2.73,4.53S25.5,134,23.83,134,21.09,132.46,21.09,129.4Zm4.41,0c0-2.57-.67-3.65-1.67-3.65s-1.68,1.08-1.68,3.65.67,3.71,1.68,3.71S25.5,132,25.5,129.4Z"/><path class="cls-2" d="M27.45,127.62c0-1.76.79-2.76,2-2.76s2,1,2,2.76-.79,2.79-2,2.79S27.45,129.4,27.45,127.62Zm3.17,0c0-1.4-.48-2.09-1.18-2.09s-1.16.68-1.16,2.09.48,2.11,1.16,2.11S30.62,129,30.62,127.62Zm3.93-2.76h.74L30.44,134h-.73Zm-1,6.33c0-1.76.8-2.76,2-2.76s2,1,2,2.76-.79,2.78-2,2.78S33.57,133,33.57,131.2Zm3.17,0c0-1.4-.48-2.09-1.16-2.09s-1.18.68-1.18,2.09.48,2.11,1.18,2.11S36.74,132.6,36.74,131.2Z"/><path class="cls-2" d="M19.26,151H15V150h5.5v.66c-2.06,2.65-2.45,4.69-2.58,8.13H16.79A13,13,0,0,1,19.26,151Z"/><path class="cls-2" d="M21.09,154.4c0-3.06,1.07-4.53,2.75-4.53s2.73,1.49,2.73,4.53S25.5,159,23.83,159,21.09,157.46,21.09,154.4Zm4.41,0c0-2.57-.67-3.65-1.67-3.65s-1.68,1.08-1.68,3.65.67,3.71,1.68,3.71S25.5,157,25.5,154.4Z"/><path class="cls-2" d="M27.45,152.62c0-1.76.79-2.76,2-2.76s2,1,2,2.76-.79,2.79-2,2.79S27.45,154.4,27.45,152.62Zm3.17,0c0-1.4-.48-2.09-1.18-2.09s-1.16.68-1.16,2.09.48,2.11,1.16,2.11S30.62,154,30.62,152.62Zm3.93-2.76h.74L30.44,159h-.73Zm-1,6.33c0-1.76.8-2.76,2-2.76s2,1,2,2.76-.79,2.78-2,2.78S33.57,158,33.57,156.2Zm3.17,0c0-1.4-.48-2.09-1.16-2.09s-1.18.68-1.18,2.09.48,2.11,1.18,2.11S36.74,157.6,36.74,156.2Z"/><path class="cls-2" d="M19.41,176.45a1.86,1.86,0,0,0-1.42-.67c-1.2,0-2.22.92-2.27,3.66a2.74,2.74,0,0,1,2-1.07c1.49,0,2.43.92,2.43,2.76A2.64,2.64,0,0,1,17.64,184c-1.69,0-2.94-1.45-2.94-4.35,0-3.44,1.55-4.76,3.25-4.76a2.7,2.7,0,0,1,2.05.9Zm-.28,4.68c0-1.19-.52-1.94-1.58-1.94a2.29,2.29,0,0,0-1.8,1.13c.13,1.82.79,2.82,1.9,2.82C18.48,183.13,19.13,182.32,19.13,181.12Z"/><path class="cls-2" d="M21.09,179.4c0-3.06,1.07-4.53,2.75-4.53s2.73,1.49,2.73,4.53S25.5,184,23.83,184,21.09,182.46,21.09,179.4Zm4.41,0c0-2.57-.67-3.65-1.67-3.65s-1.68,1.08-1.68,3.65.67,3.71,1.68,3.71S25.5,182,25.5,179.4Z"/><path class="cls-2" d="M27.45,177.62c0-1.76.79-2.76,2-2.76s2,1,2,2.76-.79,2.79-2,2.79S27.45,179.4,27.45,177.62Zm3.17,0c0-1.4-.48-2.09-1.18-2.09s-1.16.68-1.16,2.09.48,2.11,1.16,2.11S30.62,179,30.62,177.62Zm3.93-2.76h.74L30.44,184h-.73Zm-1,6.33c0-1.76.8-2.76,2-2.76s2,1,2,2.76-.79,2.78-2,2.78S33.57,183,33.57,181.2Zm3.17,0c0-1.4-.48-2.09-1.16-2.09s-1.18.68-1.18,2.09.48,2.11,1.18,2.11S36.74,182.6,36.74,181.2Z"/><path class="cls-2" d="M14.42,207.81l.54-.72a2.89,2.89,0,0,0,2.16,1A1.9,1.9,0,0,0,19,206a1.78,1.78,0,0,0-1.82-2,2.39,2.39,0,0,0-1.46.52l-.59-.36L15.4,200h4.28V201H16.36l-.22,2.54a2.53,2.53,0,0,1,1.31-.35A2.51,2.51,0,0,1,20.1,206a2.86,2.86,0,0,1-2.88,3A3.73,3.73,0,0,1,14.42,207.81Z"/><path class="cls-2" d="M21.09,204.4c0-3.06,1.07-4.53,2.75-4.53s2.73,1.49,2.73,4.53S25.5,209,23.83,209,21.09,207.46,21.09,204.4Zm4.41,0c0-2.57-.67-3.65-1.67-3.65s-1.68,1.08-1.68,3.65.67,3.71,1.68,3.71S25.5,207,25.5,204.4Z"/><path class="cls-2" d="M27.45,202.62c0-1.76.79-2.76,2-2.76s2,1,2,2.76-.79,2.79-2,2.79S27.45,204.4,27.45,202.62Zm3.17,0c0-1.4-.48-2.09-1.18-2.09s-1.16.68-1.16,2.09.48,2.11,1.16,2.11S30.62,204,30.62,202.62Zm3.93-2.76h.74L30.44,209h-.73Zm-1,6.33c0-1.76.8-2.76,2-2.76s2,1,2,2.76-.79,2.78-2,2.78S33.57,208,33.57,206.2Zm3.17,0c0-1.4-.48-2.09-1.16-2.09s-1.18.68-1.18,2.09.48,2.11,1.18,2.11S36.74,207.6,36.74,206.2Z"/><path class="cls-2" d="M20.22,231.4H19.06v2.42H18V231.4H14.19v-.72L17.85,225h1.21v5.49h1.16ZM18,230.52v-2.7c0-.43,0-1.14.07-1.59h0c-.22.43-.46.86-.71,1.29l-2,3Z"/><path class="cls-2" d="M21.09,229.4c0-3.06,1.07-4.53,2.75-4.53s2.73,1.49,2.73,4.53S25.5,234,23.83,234,21.09,232.46,21.09,229.4Zm4.41,0c0-2.57-.67-3.65-1.67-3.65s-1.68,1.08-1.68,3.65.67,3.71,1.68,3.71S25.5,232,25.5,229.4Z"/><path class="cls-2" d="M27.45,227.62c0-1.76.79-2.76,2-2.76s2,1,2,2.76-.79,2.79-2,2.79S27.45,229.4,27.45,227.62Zm3.17,0c0-1.4-.48-2.09-1.18-2.09s-1.16.68-1.16,2.09.48,2.11,1.16,2.11S30.62,229,30.62,227.62Zm3.93-2.76h.74L30.44,234h-.73Zm-1,6.33c0-1.76.8-2.76,2-2.76s2,1,2,2.76-.79,2.78-2,2.78S33.57,233,33.57,231.2Zm3.17,0c0-1.4-.48-2.09-1.16-2.09s-1.18.68-1.18,2.09.48,2.11,1.18,2.11S36.74,232.6,36.74,231.2Z"/><path class="cls-2" d="M14.42,257.78l.55-.72a2.91,2.91,0,0,0,2.18,1,1.62,1.62,0,0,0,1.79-1.63c0-1.06-.71-1.76-2.73-1.76v-.84c1.81,0,2.43-.73,2.43-1.68a1.37,1.37,0,0,0-1.49-1.42,2.74,2.74,0,0,0-1.82.88l-.59-.7a3.52,3.52,0,0,1,2.46-1.06c1.48,0,2.55.79,2.55,2.21a2.19,2.19,0,0,1-1.57,2.12v0a2.26,2.26,0,0,1,1.87,2.23A2.56,2.56,0,0,1,17.24,259,3.64,3.64,0,0,1,14.42,257.78Z"/><path class="cls-2" d="M21.09,254.4c0-3.06,1.07-4.53,2.75-4.53s2.73,1.49,2.73,4.53S25.5,259,23.83,259,21.09,257.46,21.09,254.4Zm4.41,0c0-2.57-.67-3.65-1.67-3.65s-1.68,1.08-1.68,3.65.67,3.71,1.68,3.71S25.5,257,25.5,254.4Z"/><path class="cls-2" d="M27.45,252.62c0-1.76.79-2.76,2-2.76s2,1,2,2.76-.79,2.79-2,2.79S27.45,254.4,27.45,252.62Zm3.17,0c0-1.4-.48-2.09-1.18-2.09s-1.16.68-1.16,2.09.48,2.11,1.16,2.11S30.62,254,30.62,252.62Zm3.93-2.76h.74L30.44,259h-.73Zm-1,6.33c0-1.76.8-2.76,2-2.76s2,1,2,2.76-.79,2.78-2,2.78S33.57,258,33.57,256.2Zm3.17,0c0-1.4-.48-2.09-1.16-2.09s-1.18.68-1.18,2.09.48,2.11,1.18,2.11S36.74,257.6,36.74,256.2Z"/><path class="cls-2" d="M14.83,283.18c2.76-2.41,4-4.16,4-5.67a1.55,1.55,0,0,0-1.62-1.74,2.46,2.46,0,0,0-1.82,1l-.64-.62a3.36,3.36,0,0,1,2.59-1.29,2.41,2.41,0,0,1,2.55,2.6c0,1.75-1.38,3.54-3.44,5.49.46,0,1-.08,1.44-.08h2.43v.95H14.83Z"/><path class="cls-2" d="M21.09,279.4c0-3.06,1.07-4.53,2.75-4.53s2.73,1.49,2.73,4.53S25.5,284,23.83,284,21.09,282.46,21.09,279.4Zm4.41,0c0-2.57-.67-3.65-1.67-3.65s-1.68,1.08-1.68,3.65.67,3.71,1.68,3.71S25.5,282,25.5,279.4Z"/><path class="cls-2" d="M27.45,277.62c0-1.76.79-2.76,2-2.76s2,1,2,2.76-.79,2.79-2,2.79S27.45,279.4,27.45,277.62Zm3.17,0c0-1.4-.48-2.09-1.18-2.09s-1.16.68-1.16,2.09.48,2.11,1.16,2.11S30.62,279,30.62,277.62Zm3.93-2.76h.74L30.44,284h-.73Zm-1,6.33c0-1.76.8-2.76,2-2.76s2,1,2,2.76-.79,2.78-2,2.78S33.57,283,33.57,281.2Zm3.17,0c0-1.4-.48-2.09-1.16-2.09s-1.18.68-1.18,2.09.48,2.11,1.18,2.11S36.74,282.6,36.74,281.2Z"/><path class="cls-2" d="M15.53,307.91h2v-6.56H15.93v-.7a5.57,5.57,0,0,0,1.82-.62h.84v7.88h1.76v.91H15.53Z"/><path class="cls-2" d="M21.09,304.4c0-3.06,1.07-4.53,2.75-4.53s2.73,1.49,2.73,4.53S25.5,309,23.83,309,21.09,307.46,21.09,304.4Zm4.41,0c0-2.57-.67-3.65-1.67-3.65s-1.68,1.08-1.68,3.65.67,3.71,1.68,3.71S25.5,307,25.5,304.4Z"/><path class="cls-2" d="M27.45,302.62c0-1.76.79-2.76,2-2.76s2,1,2,2.76-.79,2.79-2,2.79S27.45,304.4,27.45,302.62Zm3.17,0c0-1.4-.48-2.09-1.18-2.09s-1.16.68-1.16,2.09.48,2.11,1.16,2.11S30.62,304,30.62,302.62Zm3.93-2.76h.74L30.44,309h-.73Zm-1,6.33c0-1.76.8-2.76,2-2.76s2,1,2,2.76-.79,2.78-2,2.78S33.57,308,33.57,306.2Zm3.17,0c0-1.4-.48-2.09-1.16-2.09s-1.18.68-1.18,2.09.48,2.11,1.18,2.11S36.74,307.6,36.74,306.2Z"/><path class="cls-2" d="M21.09,329.4c0-3.06,1.07-4.53,2.75-4.53s2.73,1.49,2.73,4.53S25.5,334,23.83,334,21.09,332.46,21.09,329.4Zm4.41,0c0-2.57-.67-3.65-1.67-3.65s-1.68,1.08-1.68,3.65.67,3.71,1.68,3.71S25.5,332,25.5,329.4Z"/><path class="cls-2" d="M27.45,327.62c0-1.76.79-2.76,2-2.76s2,1,2,2.76-.79,2.79-2,2.79S27.45,329.4,27.45,327.62Zm3.17,0c0-1.4-.48-2.09-1.18-2.09s-1.16.68-1.16,2.09.48,2.11,1.16,2.11S30.62,329,30.62,327.62Zm3.93-2.76h.74L30.44,334h-.73Zm-1,6.33c0-1.76.8-2.76,2-2.76s2,1,2,2.76-.79,2.78-2,2.78S33.57,333,33.57,331.2Zm3.17,0c0-1.4-.48-2.09-1.16-2.09s-1.18.68-1.18,2.09.48,2.11,1.18,2.11S36.74,332.6,36.74,331.2Z"/><path class="cls-1" d="M329.78,80.75V326.91H218.18V80.75h111.6m1-1H217.18V327.91h113.6V79.75Z"/><rect class="cls-1" x="84.36" y="154.09" width="113.6" height="173.82"/><rect class="cls-1" x="217.18" y="154.31" width="113.6" height="173.6"/><path class="cls-1" d="M118,111.79h3.18v-9.36h-2.68v-1.82A9.6,9.6,0,0,0,122,99.37h2.18v12.42h2.78v2.38H118Z"/><path class="cls-1" d="M128.75,116.83c1.54-.58,2.4-1.58,2.4-2.74H131a1.73,1.73,0,0,1-1.84-1.74,1.77,1.77,0,0,1,1.9-1.74c1.36,0,2.12,1.08,2.12,2.9a5,5,0,0,1-3.78,4.92Z"/><path class="cls-1" d="M134.81,110.49a4.31,4.31,0,0,1,2.54-3.86v-.1a4.22,4.22,0,0,1-2-3.52c0-2.38,1.88-3.9,4.46-3.9s4.3,1.58,4.3,3.94a4.31,4.31,0,0,1-1.9,3.38v.1a4.31,4.31,0,0,1,2.48,4c0,2.24-2,4-5,4C136.93,114.45,134.81,112.81,134.81,110.49Zm7.18-.1c0-1.54-1.36-2.18-3.28-3a3.56,3.56,0,0,0-1.36,2.74,2.27,2.27,0,0,0,2.48,2.2A1.94,1.94,0,0,0,142,110.39Zm-.24-7.16a1.89,1.89,0,0,0-2-2.06A1.72,1.72,0,0,0,138,103c0,1.4,1.14,2.08,2.7,2.7A3.55,3.55,0,0,0,141.75,103.23Z"/><path class="cls-1" d="M146.13,106.71c0-5.12,2-7.62,5-7.62s5,2.52,5,7.62-2,7.74-5,7.74S146.13,111.81,146.13,106.71Zm7.24,0c0-4.14-1-5.34-2.22-5.34s-2.24,1.2-2.24,5.34,1,5.44,2.24,5.44S153.37,110.87,153.37,106.71Z"/><path class="cls-1" d="M157.72,106.71c0-5.12,2-7.62,5-7.62s5,2.52,5,7.62-2,7.74-5,7.74S157.72,111.81,157.72,106.71Zm7.24,0c0-4.14-1-5.34-2.22-5.34s-2.24,1.2-2.24,5.34,1,5.44,2.24,5.44S165,110.87,165,106.71Z"/><path class="cls-1" d="M243.85,123.38H247V114h-2.68V112.2a9.61,9.61,0,0,0,3.44-1.24H250v12.42h2.78v2.38h-8.9Z"/><path class="cls-1" d="M254.3,124.06c4-3.6,6.4-6.38,6.4-8.66a2.12,2.12,0,0,0-2.22-2.4,3.84,3.84,0,0,0-2.72,1.52l-1.6-1.6a6,6,0,0,1,4.7-2.24,4.34,4.34,0,0,1,4.66,4.56c0,2.68-2.22,5.56-4.92,8.2.74-.08,1.72-.16,2.4-.16h3.22v2.48H254.3Z"/><path class="cls-1" d="M266,128.42c1.54-.58,2.4-1.58,2.4-2.74h-.18a1.73,1.73,0,0,1-1.84-1.74,1.77,1.77,0,0,1,1.9-1.74c1.36,0,2.12,1.08,2.12,2.9A5,5,0,0,1,266.6,130Z"/><path class="cls-1" d="M271.66,118.3c0-5.12,2-7.62,5-7.62s5,2.52,5,7.62-2,7.74-5,7.74S271.66,123.4,271.66,118.3Zm7.24,0c0-4.14-1-5.34-2.22-5.34s-2.24,1.2-2.24,5.34,1,5.44,2.24,5.44S278.9,122.46,278.9,118.3Z"/><path class="cls-1" d="M283.25,118.3c0-5.12,2-7.62,5-7.62s5,2.52,5,7.62-2,7.74-5,7.74S283.25,123.4,283.25,118.3Zm7.24,0c0-4.14-1-5.34-2.22-5.34s-2.24,1.2-2.24,5.34,1,5.44,2.24,5.44S290.49,122.46,290.49,118.3Z"/><path class="cls-1" d="M294.84,118.3c0-5.12,2-7.62,5-7.62s5,2.52,5,7.62-2,7.74-5,7.74S294.84,123.4,294.84,118.3Zm7.24,0c0-4.14-1-5.34-2.22-5.34s-2.24,1.2-2.24,5.34,1,5.44,2.24,5.44S302.08,122.46,302.08,118.3Z"/><path class="cls-3" d="M127.72,227.55H126v3.84h-2.74v-3.84h-6.3v-2l5.52-9H126v8.72h1.76Zm-4.5-2.24v-3c0-.86.08-2.2.12-3.06h-.08c-.36.78-.76,1.6-1.18,2.4l-2.3,3.68Z"/><path class="cls-3" d="M128.56,234.05c1.54-.58,2.4-1.58,2.4-2.74h-.18a1.73,1.73,0,0,1-1.84-1.74,1.77,1.77,0,0,1,1.9-1.74c1.36,0,2.12,1.08,2.12,2.9a5,5,0,0,1-3.78,4.92Z"/><path class="cls-3" d="M134.81,229.69c4-3.6,6.4-6.38,6.4-8.66a2.12,2.12,0,0,0-2.22-2.4,3.84,3.84,0,0,0-2.72,1.52l-1.6-1.6a6,6,0,0,1,4.7-2.24,4.34,4.34,0,0,1,4.66,4.56c0,2.68-2.22,5.56-4.92,8.2.74-.08,1.72-.16,2.4-.16h3.22v2.48h-9.92Z"/><path class="cls-3" d="M146,223.93c0-5.12,2-7.62,5-7.62s5,2.52,5,7.62-2,7.74-5,7.74S146,229,146,223.93Zm7.24,0c0-4.14-1-5.34-2.22-5.34s-2.24,1.2-2.24,5.34,1,5.44,2.24,5.44S153.25,228.09,153.25,223.93Z"/><path class="cls-3" d="M157.6,223.93c0-5.12,2-7.62,5-7.62s5,2.52,5,7.62-2,7.74-5,7.74S157.6,229,157.6,223.93Zm7.24,0c0-4.14-1-5.34-2.22-5.34s-2.24,1.2-2.24,5.34,1,5.44,2.24,5.44S164.84,228.09,164.84,223.93Z"/><path class="cls-3" d="M243.18,241.41c4-3.6,6.4-6.38,6.4-8.66a2.12,2.12,0,0,0-2.22-2.4,3.84,3.84,0,0,0-2.72,1.52l-1.6-1.6a6,6,0,0,1,4.7-2.24,4.34,4.34,0,0,1,4.66,4.56c0,2.68-2.22,5.56-4.92,8.2.74-.08,1.72-.16,2.4-.16h3.22v2.48h-9.92Z"/><path class="cls-3" d="M254.52,239.43a4.31,4.31,0,0,1,2.54-3.86v-.1a4.22,4.22,0,0,1-2-3.52c0-2.38,1.88-3.9,4.46-3.9s4.3,1.58,4.3,3.94a4.31,4.31,0,0,1-1.9,3.38v.1a4.31,4.31,0,0,1,2.48,4c0,2.24-2,4-5,4C256.64,243.39,254.52,241.75,254.52,239.43Zm7.18-.1c0-1.54-1.36-2.18-3.28-3a3.56,3.56,0,0,0-1.36,2.74,2.27,2.27,0,0,0,2.48,2.2A1.94,1.94,0,0,0,261.7,239.33Zm-.24-7.16a1.89,1.89,0,0,0-2-2.06,1.72,1.72,0,0,0-1.8,1.84c0,1.4,1.14,2.08,2.7,2.7A3.54,3.54,0,0,0,261.46,232.17Z"/><path class="cls-3" d="M265.88,245.77c1.54-.58,2.4-1.58,2.4-2.74h-.18a1.73,1.73,0,0,1-1.84-1.74,1.77,1.77,0,0,1,1.9-1.74c1.36,0,2.12,1.08,2.12,2.9a5,5,0,0,1-3.78,4.92Z"/><path class="cls-3" d="M271.56,235.65c0-5.12,2-7.62,5-7.62s5,2.52,5,7.62-2,7.74-5,7.74S271.56,240.75,271.56,235.65Zm7.24,0c0-4.14-1-5.34-2.22-5.34s-2.24,1.2-2.24,5.34,1,5.44,2.24,5.44S278.8,239.81,278.8,235.65Z"/><path class="cls-3" d="M283.15,235.65c0-5.12,2-7.62,5-7.62s5,2.52,5,7.62-2,7.74-5,7.74S283.15,240.75,283.15,235.65Zm7.24,0c0-4.14-1-5.34-2.22-5.34s-2.24,1.2-2.24,5.34,1,5.44,2.24,5.44S290.39,239.81,290.39,235.65Z"/><path class="cls-3" d="M294.74,235.65c0-5.12,2-7.62,5-7.62s5,2.52,5,7.62-2,7.74-5,7.74S294.74,240.75,294.74,235.65Zm7.24,0c0-4.14-1-5.34-2.22-5.34s-2.24,1.2-2.24,5.34,1,5.44,2.24,5.44S302,239.81,302,235.65Z"/><path class="cls-2" d="M350,328.41H52.6a.5.5,0,0,1-.5-.5V79.75a.5.5,0,0,1,1,0V327.41H350a.5.5,0,0,1,0,1Z"/><path class="cls-2" d="M52.6,129.88H46a.5.5,0,0,1,0-1h6.6a.5.5,0,0,1,0,1Z"/><path class="cls-2" d="M52.6,328.41H46a.5.5,0,0,1,0-1h6.6a.5.5,0,1,1,0,1Z"/><path class="cls-2" d="M52.6,303.59H46a.5.5,0,0,1,0-1h6.6a.5.5,0,1,1,0,1Z"/><path class="cls-2" d="M52.6,278.78H46a.5.5,0,0,1,0-1h6.6a.5.5,0,1,1,0,1Z"/><path class="cls-2" d="M52.6,254H46a.5.5,0,1,1,0-1h6.6a.5.5,0,0,1,0,1Z"/><path class="cls-2" d="M52.6,229.15H46a.5.5,0,0,1,0-1h6.6a.5.5,0,1,1,0,1Z"/><path class="cls-2" d="M52.6,204.33H46a.5.5,0,0,1,0-1h6.6a.5.5,0,1,1,0,1Z"/><path class="cls-2" d="M52.6,179.52H46a.5.5,0,0,1,0-1h6.6a.5.5,0,0,1,0,1Z"/><path class="cls-2" d="M52.6,154.7H46a.5.5,0,0,1,0-1h6.6a.5.5,0,0,1,0,1Z"/><path class="cls-2" d="M52.6,105.07H46a.5.5,0,0,1,0-1h6.6a.5.5,0,0,1,0,1Z"/><path class="cls-2" d="M52.6,80.25H46a.5.5,0,0,1,0-1h6.6a.5.5,0,0,1,0,1Z"/></g><g id="korean"><path class="cls-1" d="M122.4,50.88v1.2H113v-1.2H117v-2.1H114V43.71h7.36v5.08h-2.93v2.1Zm-6.93-3.27h4.46V44.87h-4.46Z"/><path class="cls-1" d="M128.45,48.43A3.89,3.89,0,0,1,126,46.5a4,4,0,0,1-2.52,2.11l-.74-1.17a3.12,3.12,0,0,0,2.47-2.77h-2.07V43.5h5.63v1.17h-2a3,3,0,0,0,2.41,2.62Zm1.39.56h1.47v4.17h-6.87V49h1.47v.94h3.93Zm0,2.08h-3.93V52h3.93ZM131.31,43v5.6h-1.49V43Z"/><path class="cls-1" d="M134.94,48.63a2.54,2.54,0,1,1,2.36-2.54A2.36,2.36,0,0,1,134.94,48.63Zm0-1.25c.61,0,1-.47,1-1.29s-.43-1.28-1-1.28-1,.48-1,1.28S134.33,47.38,134.94,47.38Zm-.71,2.21h7.12V53.3h-1.48V50.76h-5.64Zm7.12-6.65v6.17h-1.4V46.64h-.79v2.45h-1.38v-6h1.38v2.32h.79v-2.5Z"/><path class="cls-1" d="M142.52,50a46.52,46.52,0,0,0,6.54-.34l.09,1.07a33.34,33.34,0,0,1-6.44.47Zm6.13-3.83a2.86,2.86,0,1,1-2.85-2.55A2.63,2.63,0,0,1,148.65,46.18Zm-4.26,0a1.41,1.41,0,1,0,1.4-1.28A1.27,1.27,0,0,0,144.4,46.18Zm6.7-3.25V53.31h-1.48V42.93Z"/><path class="cls-1" d="M158.61,45.39h-3.74V44h5.53v1c-1.93,2.36-2.19,4.05-2.32,7.31H156.4A11.47,11.47,0,0,1,158.61,45.39Z"/><path class="cls-1" d="M161,48.13c0-2.87,1.12-4.28,2.82-4.28s2.81,1.42,2.81,4.28-1.12,4.35-2.81,4.35S161,51,161,48.13Zm4.07,0c0-2.32-.54-3-1.25-3s-1.26.67-1.26,3,.54,3.05,1.26,3.05S165,50.47,165,48.13Z"/><path class="cls-1" d="M167.33,46.47c0-1.66.83-2.62,2-2.62s2,1,2,2.62-.84,2.65-2,2.65S167.33,48.14,167.33,46.47Zm2.89,0c0-1.22-.38-1.68-.86-1.68s-.85.46-.85,1.68.37,1.72.85,1.72S170.22,47.69,170.22,46.47Zm3.93-2.62h1l-4.53,8.63h-1Zm-.77,6c0-1.67.84-2.63,2-2.63s2,1,2,2.63-.85,2.65-2,2.65S173.38,51.49,173.38,49.83Zm2.89,0c0-1.22-.38-1.7-.86-1.7s-.86.47-.86,1.7.38,1.71.86,1.71S176.26,51.05,176.26,49.83Z"/><path class="cls-1" d="M187.52,47.59v1.07h-9.37V47.59Zm-6.83,4.6h6v1h-7.47V50.7h5.72v-.53h-5.73v-1h7.2v2.46h-5.72Zm4.22-8.07H179.3v-1h7.08v2.44h-5.59v.54h5.77v1h-7.23V44.63h5.59Z"/><path class="cls-1" d="M200.44,50.85V52h-9.35V50.85h3.3V47.29h1.48v3.56Zm-2.8-1.25a21.61,21.61,0,0,0,.42-4.59h-6V43.83h7.51v1a23.93,23.93,0,0,1-.42,5Z"/><path class="cls-1" d="M210.3,49.89h-2.17v3.38h-1.5V49.89h-2.08v3.38h-1.49V49.89h-2.12v-1.2h9.37Zm-8.45-4.29c0-1.4,1.53-2.31,3.74-2.31s3.74.91,3.74,2.31-1.54,2.31-3.74,2.31S201.86,47,201.86,45.6Zm1.52,0c0,.74.86,1.13,2.22,1.13s2.21-.39,2.21-1.13-.86-1.13-2.21-1.13S203.37,44.87,203.37,45.6Z"/><path class="cls-1" d="M217.65,45.73a4.63,4.63,0,0,0,2.52,4.19l-.82,1.17a4.83,4.83,0,0,1-2.41-2.79,5.06,5.06,0,0,1-2.47,3l-.83-1.18a4.87,4.87,0,0,0,2.54-4.44v-.57H214V43.93h5.68v1.22h-2.06Zm5.81,2.38h-1.5v5.18h-1.48V42.94h1.48v3.94h1.5Z"/><path class="cls-1" d="M229.68,49a3.87,3.87,0,0,1-2.34-2,4,4,0,0,1-2.46,2.23L224.1,48a3.39,3.39,0,0,0,2.47-3.36V43.57h1.5v1.12a3.2,3.2,0,0,0,2.37,3.16Zm-2.46,2.92h5.54v1.18h-7V49.79h1.48Zm6.55-6v1.22H232.4v3.35h-1.48V42.94h1.48v3Z"/><path class="cls-1" d="M237.46,44h4.08v6.7h-4.08Zm1.38,5.55h1.33V45.17h-1.33Zm7.2-6.61V53.27h-1.4v-5.2h-.86v4.74h-1.38V43.1h1.38v3.78h.86v-4Z"/><path class="cls-1" d="M252.84,45.81A2.84,2.84,0,1,1,250,43.37,2.57,2.57,0,0,1,252.84,45.81Zm-4.18,0A1.37,1.37,0,1,0,250,44.59,1.23,1.23,0,0,0,248.66,45.81ZM250.26,49v1h3.93V49h1.47v4.21h-6.87V49Zm0,3h3.93v-.94h-3.93Zm5.4-9.05V48.5h-1.49V42.94Z"/><path class="cls-1" d="M262.32,43.11h1.38v9.71h-1.38V48h-.81c-.13,2-1,3.23-2.23,3.23S257,49.77,257,47.42s.86-3.75,2.23-3.75,2.06,1.15,2.22,3.08h.82Zm-2.15,4.31c0-1.58-.33-2.36-.9-2.36s-.9.77-.9,2.36.34,2.37.9,2.37S260.17,49,260.17,47.42Zm5.65-4.49V53.27h-1.4V42.93Z"/><path class="cls-1" d="M273.67,45.24a4.88,4.88,0,0,0,2.39,4.56l-.9,1.17a4.71,4.71,0,0,1-2.23-2.79,4.93,4.93,0,0,1-2.39,3l-.89-1.2a5,5,0,0,0,2.53-4.72v-1.5h1.49Zm5.79,2.91H278v5.13h-1.48V42.94H278v4h1.5Z"/><path class="cls-1" d="M289.54,47.85V49H280.2V47.85h2.1V46.6a1.69,1.69,0,0,1-1.17-1.52c0-1.24,1.46-2,3.74-2s3.75.75,3.75,2a1.7,1.7,0,0,1-1.2,1.53v1.24Zm-1.1,3.56c0,1.2-1.36,1.89-3.59,1.89s-3.58-.69-3.58-1.89,1.35-1.88,3.58-1.88S288.44,50.21,288.44,51.41Zm-5.78-6.32c0,.56.81.85,2.21.85s2.22-.29,2.22-.85-.81-.86-2.22-.86S282.65,44.5,282.65,45.09Zm4.28,6.32c0-.53-.71-.75-2.09-.75s-2.09.22-2.09.75.71.76,2.09.76S286.93,51.94,286.93,51.41Zm-3.16-3.56h2.16V47a10.39,10.39,0,0,1-1.07.06,8.22,8.22,0,0,1-1.09-.07Z"/><path class="cls-1" d="M114.94,129.4l1-1.22a3.49,3.49,0,0,0,2.25,1c.92,0,1.42-.4,1.42-1s-.54-.86-1.33-1.2l-1.19-.5a2.57,2.57,0,0,1-1.8-2.39c0-1.45,1.27-2.57,3.07-2.57a3.94,3.94,0,0,1,2.78,1.14l-.9,1.12a2.83,2.83,0,0,0-1.88-.73c-.78,0-1.28.35-1.28.94s.64.86,1.39,1.16l1.16.49a2.45,2.45,0,0,1,1.79,2.41c0,1.45-1.21,2.69-3.26,2.69A4.73,4.73,0,0,1,114.94,129.4Z"/><path class="cls-1" d="M122.22,127.19a3.29,3.29,0,0,1,3.13-3.54c1.85,0,2.81,1.35,2.81,3.21a3.28,3.28,0,0,1-.08.8h-4.14a1.76,1.76,0,0,0,1.86,1.68,2.77,2.77,0,0,0,1.51-.47l.6,1.08a4.23,4.23,0,0,1-2.35.74A3.25,3.25,0,0,1,122.22,127.19Zm4.42-.68c0-.91-.41-1.49-1.27-1.49a1.51,1.51,0,0,0-1.46,1.49Z"/><path class="cls-1" d="M129.6,128.18v-3h-.95V123.9l1-.08.2-1.8h1.48v1.8H133v1.39h-1.66v3c0,.77.31,1.13.91,1.13a2,2,0,0,0,.66-.14l.29,1.28a4.33,4.33,0,0,1-1.42.25C130.21,130.7,129.6,129.69,129.6,128.18Z"/><path class="cls-1" d="M134,128v-4.2h1.76v4c0,1,.29,1.4.94,1.4a1.62,1.62,0,0,0,1.37-.84v-4.53h1.76v6.72H138.4l-.13-1h0a2.7,2.7,0,0,1-2.15,1.13C134.64,130.7,134,129.69,134,128Z"/><path class="cls-1" d="M141.38,123.81h1.44l.12.7h0a3.19,3.19,0,0,1,2-.86c1.65,0,2.64,1.35,2.64,3.42,0,2.3-1.38,3.63-2.85,3.63a2.5,2.5,0,0,1-1.67-.73l0,1.1v2h-1.75Zm4.41,3.27c0-1.28-.41-2-1.33-2a1.89,1.89,0,0,0-1.33.7v3a1.88,1.88,0,0,0,1.22.5C145.17,129.25,145.8,128.55,145.8,127.09Z"/><path class="cls-1" d="M151.7,121.39v2.67H154v-2.67h1.57V129h-5.45v-7.62Zm0,6.36H154V125.3h-2.3Zm7-7.24v11.08h-1.58V120.51Z"/><path class="cls-1" d="M170,125.76V127H160v-1.25h2.24v-1.33a1.81,1.81,0,0,1-1.25-1.62c0-1.32,1.56-2.12,4-2.12s4,.8,4,2.12a1.82,1.82,0,0,1-1.28,1.63v1.32Zm-1.17,3.8c0,1.28-1.45,2-3.84,2s-3.83-.73-3.83-2,1.44-2,3.83-2S168.84,128.28,168.84,129.56Zm-6.18-6.75c0,.6.86.91,2.36.91s2.38-.31,2.38-.91-.86-.92-2.37-.92S162.67,122.18,162.67,122.81Zm4.57,6.75c0-.56-.76-.8-2.23-.8s-2.23.24-2.23.8.76.82,2.23.82S167.24,130.12,167.24,129.56Zm-3.37-3.8h2.3v-.91a11.05,11.05,0,0,1-1.14.06,8.64,8.64,0,0,1-1.16-.07Z"/><path class="cls-3" d="M120.68,246.77h-4.22V250h-1.58v-3.23h-4.2v-1.28h10Zm-1-2.08h-7.71v-5.33h7.6v1.25h-6v.8h5.79v1.2H113.5v.83h6.14Z"/><path class="cls-3" d="M125.74,241.91a4.94,4.94,0,0,0,2.69,4.47l-.87,1.25a5.16,5.16,0,0,1-2.58-3,5.4,5.4,0,0,1-2.64,3.25l-.89-1.26a5.21,5.21,0,0,0,2.71-4.74v-.61h-2.29V240h6.07v1.31h-2.2Zm6.2,2.54h-1.61V250h-1.58v-11h1.58v4.21h1.61Z"/><path class="cls-3" d="M142.69,244.3v1.26h-4.1v1.9H137v-1.9h-4.28V244.3Zm-9-2.87c0-1.39,1.6-2.29,4-2.29s4,.9,4,2.29-1.58,2.29-4,2.29S133.71,242.84,133.71,241.43Zm1.75,7.1h6.14v1.26h-7.75v-3.31h1.61Zm0-7.1c0,.68.88,1,2.25,1s2.27-.35,2.27-1-.86-1-2.27-1S135.42,240.75,135.42,241.43Z"/><path class="cls-3" d="M153.55,244.18v1.25h-10v-1.25h2.24v-1.33a1.81,1.81,0,0,1-1.25-1.62c0-1.32,1.56-2.12,4-2.12s4,.8,4,2.12a1.82,1.82,0,0,1-1.28,1.63v1.32Zm-1.17,3.8c0,1.28-1.45,2-3.84,2s-3.83-.73-3.83-2,1.44-2,3.83-2S152.37,246.7,152.37,248Zm-6.18-6.75c0,.6.86.91,2.36.91s2.38-.31,2.38-.91-.86-.92-2.37-.92S146.19,240.61,146.19,241.23Zm4.57,6.75c0-.56-.76-.8-2.23-.8s-2.23.24-2.23.8.76.82,2.23.82S150.76,248.55,150.76,248Zm-3.37-3.8h2.3v-.91a11.05,11.05,0,0,1-1.14.06,8.64,8.64,0,0,1-1.16-.07Z"/><path class="cls-3" d="M159.74,240.08c0,3.38-1.14,6.14-5.06,8l-.83-1.25c2.82-1.36,4-3.08,4.27-5.53h-3.68v-1.26Zm3.29-1.15v11h-1.59v-11Z"/><path class="cls-3" d="M174.3,243.41v1.26h-10v-1.26h7a12.76,12.76,0,0,0,.26-2.72h-6v-1.26h7.59v.89a14.51,14.51,0,0,1-.25,3.09Zm-8.83,2.41h7.6v4h-7.6Zm1.56,2.79h4.5v-1.56H167Z"/><path class="cls-2" d="M100.79,345.36a2.41,2.41,0,0,0-1.71-.81c-1.27,0-2.32,1-2.42,3.74a3.23,3.23,0,0,1,2.28-1.18c1.86,0,3.18,1.11,3.18,3.49a3.48,3.48,0,0,1-3.48,3.71c-2.12,0-4-1.7-4-5.61,0-4.14,2.05-5.91,4.29-5.91a4.11,4.11,0,0,1,3,1.26Zm-.69,5.23c0-1.32-.62-1.93-1.58-1.93a2.19,2.19,0,0,0-1.82,1.17c.21,2,1,2.8,1.89,2.8S100.1,351.94,100.1,350.59Z"/><path class="cls-2" d="M103.12,356.08c1.15-.44,1.8-1.19,1.8-2.05h-.13a1.3,1.3,0,0,1-1.38-1.31,1.33,1.33,0,0,1,1.42-1.3c1,0,1.59.81,1.59,2.17a3.79,3.79,0,0,1-2.83,3.69Z"/><path class="cls-2" d="M107.41,348.49c0-3.84,1.5-5.71,3.76-5.71s3.75,1.89,3.75,5.71-1.5,5.8-3.75,5.8S107.41,352.32,107.41,348.49Zm5.43,0c0-3.1-.72-4-1.67-4s-1.68.9-1.68,4,.72,4.08,1.68,4.08S112.84,351.61,112.84,348.49Z"/><path class="cls-2" d="M116.12,348.49c0-3.84,1.5-5.71,3.76-5.71s3.75,1.89,3.75,5.71-1.5,5.8-3.75,5.8S116.12,352.32,116.12,348.49Zm5.43,0c0-3.1-.72-4-1.67-4s-1.68.9-1.68,4,.72,4.08,1.68,4.08S121.55,351.61,121.55,348.49Z"/><path class="cls-2" d="M124.84,348.49c0-3.84,1.5-5.71,3.76-5.71s3.75,1.89,3.75,5.71-1.5,5.8-3.75,5.8S124.84,352.32,124.84,348.49Zm5.43,0c0-3.1-.72-4-1.67-4s-1.68.9-1.68,4,.72,4.08,1.68,4.08S130.27,351.61,130.27,348.49Z"/><path class="cls-2" d="M134.07,343h6.81v1.84h-4.59v2.57h3.9v1.86h-3.9v3H141v1.86h-7Z"/><path class="cls-2" d="M145.15,344.83H142V343h8.49v1.84h-3.15v9.25h-2.22Z"/><path class="cls-2" d="M151.83,343h2.22v4.37h4.2V343h2.21v11.1h-2.21v-4.8h-4.2v4.8h-2.22Z"/><path class="cls-2" d="M173.15,347.67a28.49,28.49,0,0,1-6.39.46H165.6v-5.85h6.18v1.54h-4.21v2.75a25.36,25.36,0,0,0,5.38-.45Zm-4.29,6h7.53v1.54h-9.49v-3.85H174v-.81h-7.17V349H176v3.81h-7.14Zm9-9.5v1.61H176v2.64h-2v-6.87h2v2.62Z"/><path class="cls-2" d="M185.21,349.23a5,5,0,0,1-3-2.67,5.46,5.46,0,0,1-3.34,3.07l-1-1.59a4.55,4.55,0,0,0,3.33-4.53v-1.23h2v1.14a4.2,4.2,0,0,0,3.09,4.25Zm4.33,3.48c0,1.68-1.8,2.67-4.72,2.67s-4.74-1-4.74-2.67,1.8-2.7,4.74-2.7S189.54,351,189.54,352.71Zm-2,0c0-.79-.95-1.17-2.75-1.17s-2.76.38-2.76,1.17.95,1.16,2.76,1.16S187.57,353.49,187.57,352.71Zm-.06-7H185v-1.61h2.52v-2.52h2v8.1h-2Z"/><path class="cls-2" d="M229.56,351.21h-1.32v2.88h-2.05v-2.88h-4.73v-1.5L225.6,343h2.64v6.54h1.32Zm-3.37-1.68v-2.27c0-.64.06-1.65.09-2.29h-.06c-.27.58-.57,1.2-.88,1.8l-1.73,2.76Z"/><path class="cls-2" d="M230.49,348.49c0-3.84,1.5-5.71,3.76-5.71s3.75,1.89,3.75,5.71-1.5,5.8-3.75,5.8S230.49,352.32,230.49,348.49Zm5.43,0c0-3.1-.72-4-1.67-4s-1.68.9-1.68,4,.72,4.08,1.68,4.08S235.92,351.61,235.92,348.49Z"/><path class="cls-2" d="M238.84,356.08c1.15-.44,1.8-1.19,1.8-2.05h-.13a1.3,1.3,0,0,1-1.38-1.31,1.33,1.33,0,0,1,1.42-1.3c1,0,1.59.81,1.59,2.17a3.78,3.78,0,0,1-2.83,3.69Z"/><path class="cls-2" d="M243.12,348.49c0-3.84,1.5-5.71,3.76-5.71s3.75,1.89,3.75,5.71-1.5,5.8-3.75,5.8S243.12,352.32,243.12,348.49Zm5.43,0c0-3.1-.72-4-1.67-4s-1.68.9-1.68,4,.72,4.08,1.68,4.08S248.55,351.61,248.55,348.49Z"/><path class="cls-2" d="M251.84,348.49c0-3.84,1.5-5.71,3.76-5.71s3.75,1.89,3.75,5.71-1.5,5.8-3.75,5.8S251.84,352.32,251.84,348.49Zm5.43,0c0-3.1-.72-4-1.67-4s-1.68.9-1.68,4,.72,4.08,1.68,4.08S257.27,351.61,257.27,348.49Z"/><path class="cls-2" d="M260.56,348.49c0-3.84,1.5-5.71,3.76-5.71s3.75,1.89,3.75,5.71-1.5,5.8-3.75,5.8S260.56,352.32,260.56,348.49Zm5.43,0c0-3.1-.72-4-1.67-4s-1.68.9-1.68,4,.72,4.08,1.68,4.08S266,351.61,266,348.49Z"/><path class="cls-2" d="M269.79,343h6.81v1.84H272v2.57h3.9v1.86H272v3h4.75v1.86h-7Z"/><path class="cls-2" d="M280.87,344.83h-3.12V343h8.49v1.84h-3.15v9.25h-2.22Z"/><path class="cls-2" d="M287.55,343h2.22v4.37H294V343h2.21v11.1H294v-4.8h-4.2v4.8h-2.22Z"/><path class="cls-2" d="M308.87,347.67a28.49,28.49,0,0,1-6.39.46h-1.15v-5.85h6.18v1.54h-4.21v2.75a25.36,25.36,0,0,0,5.38-.45Zm-4.29,6h7.53v1.54h-9.49v-3.85h7.15v-.81H302.6V349h9.12v3.81h-7.14Zm9-9.5v1.61h-1.83v2.64h-2v-6.87h2v2.62Z"/><path class="cls-2" d="M320.93,349.23a5,5,0,0,1-3-2.67,5.46,5.46,0,0,1-3.34,3.07l-1-1.59a4.55,4.55,0,0,0,3.33-4.53v-1.23h2v1.14a4.2,4.2,0,0,0,3.09,4.25Zm4.33,3.48c0,1.68-1.8,2.67-4.72,2.67s-4.74-1-4.74-2.67,1.8-2.7,4.74-2.7S325.26,351,325.26,352.71Zm-2,0c0-.79-.94-1.17-2.74-1.17s-2.76.38-2.76,1.17.94,1.16,2.76,1.16S323.28,353.49,323.28,352.71Zm-.06-7H320.7v-1.61h2.52v-2.52h2v8.1h-2Z"/><path class="cls-2" d="M128.71,378.15v1.59H116.2v-1.59h5.21v-3.09h2v3.09Zm-1.23-2.66a6.92,6.92,0,0,1-5.1-3.43,6.93,6.93,0,0,1-5.07,3.43l-.81-1.63c3.12-.51,4.83-2.62,4.83-4.54v-1h2.12v1c0,2,1.69,4,4.84,4.54Z"/><path class="cls-2" d="M142.29,378.17v1.6H129.79v-1.6Zm-9.66-7.83h-1.87v-1.57h10.5v1.57h-1.87v4.14h1.83v1.57H130.83v-1.57h1.8Zm4.79,0H134.6v4.14h2.82Z"/><path class="cls-2" d="M155.88,378.18v1.61H143.37v-1.61Zm-1.33-1.93h-9.7v-7.68h9.6v1.59h-7.59v1.46h7.27v1.53h-7.27v1.54h7.69Z"/><path class="cls-2" d="M162.38,368.37c0,3.54-1.48,5.94-5.23,7.41l-.92-1.41a7.12,7.12,0,0,0,3.17-2.05l-2.79.3-.25-1.56,3.82-.18a6.42,6.42,0,0,0,.21-.93h-3.45v-1.58Zm5.7,7.41v5.43h-9.39v-5.43h2V377h5.47v-1.18Zm-2,2.71h-5.47v1.18h5.47ZM165,375.12h-1.84v-7.3H165v2.83h1.18v-3.08h1.88v7.63h-1.87v-3H165Z"/><path class="cls-2" d="M259.69,369.6h3v1.58h-8V369.6h3.06v-1.8h2Zm2.5,5.64a3.5,3.5,0,1,1-3.48-3.29A3.28,3.28,0,0,1,262.19,375.24Zm-1.87,0a1.56,1.56,0,0,0-1.6-1.68,1.69,1.69,0,0,0,0,3.38A1.55,1.55,0,0,0,260.32,375.24Zm7.23-.65h-2v6.78h-2V367.56h2V373h2Z"/><path class="cls-2" d="M280.3,378.11v1.62H267.79v-1.62Zm-1.33-2.6h-9.72V368.7h9.61v1.61h-7.63v3.63H279Z"/><path class="cls-2" d="M286.81,368.37c0,3.54-1.48,5.94-5.23,7.41l-.92-1.41a7.12,7.12,0,0,0,3.17-2.05l-2.79.3-.25-1.56,3.82-.18a6.42,6.42,0,0,0,.21-.93h-3.45v-1.58Zm5.7,7.41v5.43h-9.39v-5.43h2V377h5.47v-1.18Zm-2,2.71h-5.47v1.18h5.47Zm-1.12-3.37h-1.84v-7.3h1.84v2.83h1.19v-3.08h1.88v7.63h-1.87v-3h-1.19Z"/></g></svg>