<svg id="레이어_1" data-name="레이어 1" xmlns="http://www.w3.org/2000/svg" viewBox="0 0 20 20"><defs><style>.cls-1{fill:#fff;}.cls-2{fill:#dcdcef;}.cls-3{fill:#f3f3ff;}</style></defs><title>checkoff</title><rect class="cls-1" x="-40.2" y="-582.05" width="400.63" height="782.04"/><rect class="cls-2" x="-20" y="-474.12" width="360" height="547.04" rx="4.29" ry="4.29"/><path class="cls-2" d="M335.71,72.92H-15.71A4.29,4.29,0,0,1-20,68.63V-54.09H340V68.63A4.29,4.29,0,0,1,335.71,72.92Z"/><rect class="cls-3" x="0.5" y="0.5" width="19" height="19" rx="3.84" ry="3.84"/><path class="cls-1" d="M15.66,1A3.35,3.35,0,0,1,19,4.34V15.66A3.35,3.35,0,0,1,15.66,19H4.34A3.35,3.35,0,0,1,1,15.66V4.34A3.35,3.35,0,0,1,4.34,1H15.66m0-1H4.34A4.34,4.34,0,0,0,0,4.34V15.66A4.34,4.34,0,0,0,4.34,20H15.66A4.34,4.34,0,0,0,20,15.66V4.34A4.34,4.34,0,0,0,15.66,0Z"/></svg>