<svg id="레이어_1" data-name="레이어 1" xmlns="http://www.w3.org/2000/svg" viewBox="0 0 360 100"><defs><style>.cls-1,.cls-28{fill:#fff;}.cls-2{fill:#f3f3ff;}.cls-22,.cls-28,.cls-3{font-size:15px;letter-spacing:-0.03em;}.cls-22,.cls-27,.cls-3{fill:#1d1b60;}.cls-28,.cls-3{font-family:NotoSansCJKkr-Bold-KSCpc-EUC-H, Noto Sans CJK KR;}.cls-4{font-weight:700;}.cls-11,.cls-14,.cls-19,.cls-23,.cls-25,.cls-29,.cls-33,.cls-5{font-size:11px;}.cls-11,.cls-14,.cls-19,.cls-22,.cls-29,.cls-33,.cls-5{font-family:NotoSansCJKkr-Regular-KSCpc-EUC-H, Noto Sans CJK KR;}.cls-5{letter-spacing:-0.04em;}.cls-6{letter-spacing:-0.05em;}.cls-29,.cls-7{letter-spacing:-0.03em;}.cls-8{letter-spacing:-0.04em;}.cls-9{letter-spacing:-0.02em;}.cls-10{letter-spacing:-0.02em;}.cls-11{letter-spacing:-0.03em;}.cls-12{letter-spacing:-0.03em;}.cls-13{letter-spacing:-0.04em;}.cls-14{letter-spacing:-0.01em;}.cls-15{letter-spacing:0em;}.cls-16{letter-spacing:-0.03em;}.cls-17{letter-spacing:-0.03em;}.cls-18{letter-spacing:-0.03em;}.cls-19{letter-spacing:-0.03em;}.cls-20{letter-spacing:-0.03em;}.cls-21{letter-spacing:-0.03em;}.cls-23{letter-spacing:-0.03em;}.cls-24{letter-spacing:-0.01em;}.cls-25{letter-spacing:-0.02em;}.cls-26{letter-spacing:-0.02em;}.cls-30{letter-spacing:-0.03em;}.cls-31{letter-spacing:-0.05em;}.cls-32{letter-spacing:-0.03em;}.cls-33{letter-spacing:-0.01em;}.cls-34{letter-spacing:-0.03em;}</style></defs><title>step3</title><rect class="cls-1" x="-20.27" y="-4.47" width="400.63" height="782.04"/><path class="cls-2" d="M324.91,21.11A31.49,31.49,0,0,0,294.2,38a22,22,0,0,1-19.5,12h0a21.66,21.66,0,0,1-19.35-11.75,31.5,31.5,0,0,0-56.18,0A21.65,21.65,0,0,1,179.82,50h0a21.67,21.67,0,0,1-19.36-11.75,31.49,31.49,0,0,0-56.17,0A21.67,21.67,0,0,1,84.93,50h0a22,22,0,0,1-19.5-12,31.49,31.49,0,1,0,.15,28.79A21.66,21.66,0,0,1,84.93,55h0a21.68,21.68,0,0,1,19.36,11.76,31.5,31.5,0,0,0,56.17,0A21.68,21.68,0,0,1,179.82,55h0a21.66,21.66,0,0,1,19.35,11.76,31.5,31.5,0,0,0,56.18,0A21.67,21.67,0,0,1,274.7,55h0a21.68,21.68,0,0,1,19.35,11.76,31.5,31.5,0,1,0,30.85-45.64Z"/><text class="cls-3" transform="translate(33.07 42.49)"><tspan class="cls-4">1</tspan><tspan class="cls-5"><tspan x="-15.01" y="14">A</tspan><tspan class="cls-6" x="-8.74" y="14">C</tspan><tspan class="cls-7" x="-2.23" y="14">C</tspan><tspan class="cls-8" x="4.46" y="14">E</tspan><tspan class="cls-9" x="10.49" y="14">P</tspan><tspan class="cls-10" x="17.26" y="14">T</tspan></tspan><tspan class="cls-11"><tspan x="-12.65" y="28">T</tspan><tspan class="cls-8" x="-6.36" y="28">E</tspan><tspan class="cls-12" x="-0.33" y="28">R</tspan><tspan class="cls-13" x="6.37" y="28">M</tspan><tspan class="cls-10" x="14.92" y="28">S</tspan></tspan></text><text class="cls-3" transform="translate(127.96 42.49)"><tspan class="cls-4">2</tspan><tspan class="cls-14"><tspan x="-10.52" y="14">B</tspan><tspan class="cls-15" x="-3.44" y="14">A</tspan><tspan class="cls-16" x="3.23" y="14">S</tspan><tspan class="cls-17" x="9.43" y="14">I</tspan><tspan class="cls-18" x="12.34" y="14">C</tspan></tspan><tspan class="cls-19"><tspan x="-7.73" y="28">I</tspan><tspan class="cls-20" x="-4.9" y="28">N</tspan><tspan class="cls-21" x="2.68" y="28">F</tspan><tspan class="cls-18" x="8.41" y="28">O</tspan></tspan></text><text class="cls-22" transform="translate(317.97 42.49)">4<tspan class="cls-23"><tspan x="-6.11" y="14">B</tspan><tspan class="cls-24" x="0.78" y="14">U</tspan><tspan class="cls-10" x="8.6" y="14">Y</tspan></tspan><tspan class="cls-25"><tspan x="-3.84" y="28">R</tspan><tspan class="cls-26" x="2.88" y="28">I</tspan><tspan class="cls-18" x="5.86" y="28">X</tspan></tspan></text><circle class="cls-27" cx="227.26" cy="52.49" r="36.88"/><text class="cls-28" transform="translate(222.84 42.49)"><tspan class="cls-4">3</tspan><tspan class="cls-29"><tspan x="-12.6" y="14">C</tspan><tspan class="cls-30" x="-5.91" y="14">H</tspan><tspan class="cls-31" x="1.72" y="14">E</tspan><tspan class="cls-32" x="7.64" y="14">C</tspan><tspan class="cls-10" x="14.33" y="14">K</tspan></tspan><tspan class="cls-33"><tspan x="-7.64" y="28">MA</tspan><tspan class="cls-34" x="7.67" y="28">I</tspan><tspan class="cls-10" x="10.51" y="28">L</tspan></tspan></text></svg>