<svg id="레이어_1" data-name="레이어 1" xmlns="http://www.w3.org/2000/svg" viewBox="0 0 360 100"><defs><style>.cls-1,.cls-29{fill:#fff;}.cls-2{fill:#f3f3ff;}.cls-3,.cls-4{fill:#1d1b60;}.cls-29,.cls-4{font-size:15px;letter-spacing:-0.03em;}.cls-4{font-family:NotoSansCJKkr-Bold-KSCpc-EUC-H, Noto Sans CJK KR;}.cls-5{font-weight:700;}.cls-12,.cls-15,.cls-20,.cls-23,.cls-27,.cls-30,.cls-32,.cls-6{font-size:11px;}.cls-12,.cls-15,.cls-20,.cls-23,.cls-27,.cls-29,.cls-6{font-family:NotoSansCJKkr-Regular-KSCpc-EUC-H, Noto Sans CJK KR;}.cls-6{letter-spacing:-0.04em;}.cls-7{letter-spacing:-0.05em;}.cls-23,.cls-8{letter-spacing:-0.03em;}.cls-9{letter-spacing:-0.04em;}.cls-10{letter-spacing:-0.02em;}.cls-11{letter-spacing:-0.02em;}.cls-12{letter-spacing:-0.03em;}.cls-13{letter-spacing:-0.03em;}.cls-14{letter-spacing:-0.04em;}.cls-15{letter-spacing:-0.01em;}.cls-16{letter-spacing:0em;}.cls-17{letter-spacing:-0.03em;}.cls-18{letter-spacing:-0.03em;}.cls-19{letter-spacing:-0.03em;}.cls-20{letter-spacing:-0.03em;}.cls-21{letter-spacing:-0.03em;}.cls-22{letter-spacing:-0.03em;}.cls-24{letter-spacing:-0.03em;}.cls-25{letter-spacing:-0.05em;}.cls-26{letter-spacing:-0.03em;}.cls-27{letter-spacing:-0.01em;}.cls-28{letter-spacing:-0.03em;}.cls-30{letter-spacing:-0.03em;}.cls-31{letter-spacing:-0.01em;}.cls-32{letter-spacing:-0.02em;}.cls-33{letter-spacing:-0.02em;}</style></defs><title>step4</title><rect class="cls-1" x="-20.27" y="-4.47" width="400.63" height="782.04"/><path class="cls-2" d="M325.09,21.11A31.5,31.5,0,0,0,294.38,38a22,22,0,0,1-19.49,12h0a21.67,21.67,0,0,1-19.36-11.75,31.5,31.5,0,0,0-56.18,0A21.65,21.65,0,0,1,180,50h0a21.65,21.65,0,0,1-19.35-11.75,31.5,31.5,0,0,0-56.18,0A21.67,21.67,0,0,1,85.11,50h0A22,22,0,0,1,65.62,38a31.5,31.5,0,1,0,.14,28.79A21.67,21.67,0,0,1,85.11,55h0a21.68,21.68,0,0,1,19.36,11.76,31.5,31.5,0,0,0,56.18,0A21.66,21.66,0,0,1,180,55h0a21.66,21.66,0,0,1,19.35,11.76,31.5,31.5,0,0,0,56.18,0A21.68,21.68,0,0,1,274.89,55h0a21.67,21.67,0,0,1,19.35,11.76,31.5,31.5,0,1,0,30.85-45.64Z"/><circle class="cls-3" cx="322.31" cy="52.49" r="36.88"/><text class="cls-4" transform="translate(33.25 42.49)"><tspan class="cls-5">1</tspan><tspan class="cls-6"><tspan x="-15.01" y="14">A</tspan><tspan class="cls-7" x="-8.74" y="14">C</tspan><tspan class="cls-8" x="-2.23" y="14">C</tspan><tspan class="cls-9" x="4.46" y="14">E</tspan><tspan class="cls-10" x="10.49" y="14">P</tspan><tspan class="cls-11" x="17.26" y="14">T</tspan></tspan><tspan class="cls-12"><tspan x="-12.65" y="28">T</tspan><tspan class="cls-9" x="-6.36" y="28">E</tspan><tspan class="cls-13" x="-0.33" y="28">R</tspan><tspan class="cls-14" x="6.37" y="28">M</tspan><tspan class="cls-11" x="14.92" y="28">S</tspan></tspan></text><text class="cls-4" transform="translate(128.14 42.49)"><tspan class="cls-5">2</tspan><tspan class="cls-15"><tspan x="-10.52" y="14">B</tspan><tspan class="cls-16" x="-3.44" y="14">A</tspan><tspan class="cls-17" x="3.23" y="14">S</tspan><tspan class="cls-18" x="9.43" y="14">I</tspan><tspan class="cls-19" x="12.34" y="14">C</tspan></tspan><tspan class="cls-20"><tspan x="-7.73" y="28">I</tspan><tspan class="cls-21" x="-4.9" y="28">N</tspan><tspan class="cls-22" x="2.68" y="28">F</tspan><tspan class="cls-19" x="8.41" y="28">O</tspan></tspan></text><text class="cls-4" transform="translate(223.03 42.49)"><tspan class="cls-5">3</tspan><tspan class="cls-23"><tspan x="-12.6" y="14">C</tspan><tspan class="cls-24" x="-5.91" y="14">H</tspan><tspan class="cls-25" x="1.72" y="14">E</tspan><tspan class="cls-26" x="7.64" y="14">C</tspan><tspan class="cls-11" x="14.33" y="14">K</tspan></tspan><tspan class="cls-27"><tspan x="-7.64" y="28">MA</tspan><tspan class="cls-28" x="7.67" y="28">I</tspan><tspan class="cls-11" x="10.51" y="28">L</tspan></tspan></text><text class="cls-29" transform="translate(318.15 42.49)">4<tspan class="cls-30"><tspan x="-6.11" y="14">B</tspan><tspan class="cls-31" x="0.78" y="14">U</tspan><tspan class="cls-11" x="8.6" y="14">Y</tspan></tspan><tspan class="cls-32"><tspan x="-3.84" y="28">R</tspan><tspan class="cls-33" x="2.88" y="28">I</tspan><tspan class="cls-19" x="5.86" y="28">X</tspan></tspan></text></svg>